<?xml version="1.0" encoding="utf-8"?>
<!-- Generator: Adobe Illustrator 21.0.2, SVG Export Plug-In . SVG Version: 6.00 Build 0)  -->
<svg version="1.1" id="Layer_1" xmlns="http://www.w3.org/2000/svg" xmlns:xlink="http://www.w3.org/1999/xlink" x="0px" y="0px"
	 viewBox="0 0 512 512" style="enable-background:new 0 0 512 512;" xml:space="preserve">
<style type="text/css">
	.st0{fill:#205685;}
</style>
<path class="st0" d="M394.9,362.1H307l1.9-11.3h88.9c61.6-0.3,95.4-27.1,94.6-61c-0.8-36-38-57.7-95.7-57.5
	c-52.6,0.2-95.3,9.8-104.4,61.3l-12,68.5h-11.4c-10.2,0.1-8.5-8.2-8.5-8.2l20.7-131c0,0,1.1-8.1,10.4-8.1h109.7
	c84.4,0,110.7,40.9,110.7,74.5c0,29.9-18.7,47.1-29.8,54.4C458.7,358.9,426.3,362.1,394.9,362.1z M134.4,362.1H8.5
	c-10.5,0-8.3-9.7-8.3-9.7l29.5-194.5c0,0,1.1-8.1,9.5-8.1h10.4L33,281.5c-5.6,50.2,53,62.8,105.5,60.9c59.9-2.2,91.1-20.3,92.4-54.8
	c1.3-34.2-31.5-60.7-93.5-61.5H66.6v-0.3l1.3-11h73c83,0,110.7,40.3,110.7,74.5c0,29.9-19.5,46.9-30.6,54.1
	C197.4,358.6,165.9,362.1,134.4,362.1z"/>
</svg>
