<?xml version="1.0" encoding="utf-8"?>
<!-- Generator: Adobe Illustrator 21.0.2, SVG Export Plug-In . SVG Version: 6.00 Build 0)  -->
<svg version="1.1" id="Layer_1" xmlns="http://www.w3.org/2000/svg" xmlns:xlink="http://www.w3.org/1999/xlink" x="0px" y="0px"
	 viewBox="0 0 48 43" style="enable-background:new 0 0 48 43;" xml:space="preserve">
<style type="text/css">
	.st0{fill:#FFFFFF;}
</style>
<path class="st0" d="M46,25.4v8.1c0,0.6-0.4,1-1,1h-6c-0.6,0-1-0.4-1-1v-8.1c-1.3-0.4-2-1.7-2-3.9v-6c0-0.6,0.4-1,1-1h10
	c0.6,0,1,0.4,1,1v6C48,23.7,47.3,25,46,25.4z M46,16.5h-8v5c0,2,0.6,2,1,2c0.6,0,1,0.4,1,1v8h4v-8c0-0.6,0.4-1,1-1c0.4,0,1,0,1-2
	V16.5z M42,12.5c-2.2,0-4-1.8-4-4s1.8-4,4-4s4,1.8,4,4S44.2,12.5,42,12.5z M42,6.5c-1.1,0-2,0.9-2,2s0.9,2,2,2s2-0.9,2-2
	S43.1,6.5,42,6.5z M28,30.4v11.1c0,0.6-0.4,1-1,1h-6c-0.6,0-1-0.4-1-1V30.4c-2.3-0.5-4-2.5-4-4.9v-10c0-0.6,0.4-1,1-1h14
	c0.6,0,1,0.4,1,1v10C32,27.9,30.3,29.9,28,30.4z M30,16.5H18v9c0,1.7,1.3,3,3,3c0.6,0,1,0.4,1,1v11h4v-11c0-0.6,0.4-1,1-1
	c1.7,0,3-1.3,3-3V16.5z M24,12.5c-3.3,0-6-2.7-6-6s2.7-6,6-6s6,2.7,6,6S27.3,12.5,24,12.5z M24,2.5c-2.2,0-4,1.8-4,4s1.8,4,4,4
	c2.2,0,4-1.8,4-4S26.2,2.5,24,2.5z M10,25.4v8.1c0,0.6-0.4,1-1,1H3c-0.6,0-1-0.4-1-1v-8.1c-1.3-0.4-2-1.7-2-3.9v-6c0-0.6,0.4-1,1-1
	h10c0.6,0,1,0.4,1,1v6C12,23.7,11.3,25,10,25.4z M10,16.5H2v5c0,2,0.6,2,1,2c0.6,0,1,0.4,1,1v8h4v-8c0-0.6,0.4-1,1-1c0.4,0,1,0,1-2
	V16.5z M6,12.5c-2.2,0-4-1.8-4-4s1.8-4,4-4s4,1.8,4,4S8.2,12.5,6,12.5z M6,6.5c-1.1,0-2,0.9-2,2s0.9,2,2,2s2-0.9,2-2S7.1,6.5,6,6.5z
	"/>
</svg>
