<?xml version="1.0" encoding="utf-8"?>
<!-- Generator: Adobe Illustrator 21.0.2, SVG Export Plug-In . SVG Version: 6.00 Build 0)  -->
<svg version="1.1" id="Layer_1" xmlns="http://www.w3.org/2000/svg" xmlns:xlink="http://www.w3.org/1999/xlink" x="0px" y="0px"
	 viewBox="0 0 70 59" style="enable-background:new 0 0 70 59;" xml:space="preserve">
<style type="text/css">
	.st0{filter:url(#Filter_0);}
	.st1{fill:#ECECEC;}
</style>
<filter  id="Filter_0">
	<feOffset  dx="0" dy="1" in="SourceAlpha"></feOffset>
	<feGaussianBlur  result="blurOut" stdDeviation="2.236"></feGaussianBlur>
	<feFlood  flood-color="rgb(0, 0, 0)" result="floodOut"></feFlood>
	<feComposite  in="floodOut" in2="blurOut" operator="out" result="compOut"></feComposite>
	<feComposite  in="compOut" in2="SourceAlpha" operator="in"></feComposite>
	<feComponentTransfer>
		<feFuncA  slope="0.29" type="linear"></feFuncA>
	</feComponentTransfer>
	<feBlend  in2="SourceGraphic" mode="multiply"></feBlend>
</filter>
<g class="st0">
	<path class="st1" d="M63.4,25.9L41.7,4.1c-1.3-1.3-3.5-1.3-4.8,0c-1.3,1.3-1.3,3.5,0,4.8l15.9,16h-46c-1.9,0-3.4,1.5-3.4,3.4
		c0,1.9,1.5,3.4,3.4,3.4h46l-15.9,16c-1.3,1.3-1.3,3.5,0,4.8c0.7,0.7,1.5,1,2.4,1s1.7-0.3,2.4-1l21.7-21.8
		C64.7,29.4,64.7,27.2,63.4,25.9L63.4,25.9z"/>
</g>
</svg>
