<svg
 xmlns="http://www.w3.org/2000/svg"
 xmlns:xlink="http://www.w3.org/1999/xlink"
 width="252px" height="307px">
<path fill-rule="evenodd"  fill="rgb(32, 86, 133)"
 d="M251.899,188.524 L251.879,188.886 L251.755,189.227 C251.635,189.557 248.771,196.937 234.962,196.937 C234.466,196.937 233.952,196.923 233.429,196.903 C225.888,203.416 211.324,205.856 199.851,205.938 C199.618,205.940 199.383,205.940 199.151,205.940 C184.524,205.940 172.200,202.595 165.653,196.900 C165.109,196.921 164.576,196.935 164.064,196.937 C150.990,196.937 147.730,190.328 147.316,189.342 C150.137,185.895 151.755,182.344 152.125,178.754 C152.389,176.193 152.009,173.677 151.020,171.358 C151.273,169.764 151.414,168.252 151.473,166.807 C157.785,154.499 168.636,149.328 168.795,149.254 L170.903,148.283 C170.219,132.601 170.668,122.230 171.469,115.418 C171.738,111.105 174.413,84.744 199.632,84.122 C212.259,83.809 221.161,92.564 225.201,105.229 C225.771,106.657 226.402,108.921 226.920,112.496 C227.104,113.641 227.255,114.806 227.369,115.988 C227.369,115.988 227.353,115.990 227.342,115.992 C228.011,122.702 228.293,132.816 227.565,148.034 L230.223,149.250 C230.464,149.362 253.490,160.328 251.899,188.524 ZM196.122,200.995 C197.338,201.039 198.565,201.065 199.816,201.057 C200.832,201.050 201.838,201.018 202.835,200.977 L216.119,166.843 L204.986,166.991 L199.605,182.274 L194.051,166.992 L182.830,166.843 L196.122,200.995 ZM207.994,152.859 C209.572,150.408 211.148,147.967 212.412,146.010 C211.998,145.397 211.386,144.314 210.874,142.712 C207.697,145.797 203.872,147.647 199.480,147.647 C195.173,147.647 191.468,145.968 188.387,143.160 C187.870,144.751 187.255,145.821 186.849,146.418 C190.759,152.526 195.546,160.003 197.322,162.771 L197.699,162.771 L199.532,167.813 L200.734,164.400 L200.748,164.405 C200.923,163.942 201.218,163.471 201.551,162.938 C201.934,162.323 202.484,161.455 203.149,160.413 C204.466,158.346 206.230,155.600 207.994,152.859 ZM177.741,117.513 C177.023,117.421 176.294,117.291 175.555,117.142 C174.689,120.076 175.030,124.469 180.338,129.897 C179.019,126.026 178.147,121.802 177.741,117.513 ZM181.867,147.691 L175.014,161.857 L191.084,162.070 L181.875,147.690 L181.867,147.691 ZM206.828,105.514 C202.922,109.337 194.606,117.240 182.671,117.733 C184.119,130.651 190.272,142.765 199.480,142.765 C209.258,142.765 215.589,129.107 216.501,115.332 C212.464,114.081 208.467,111.330 206.828,105.514 ZM223.104,116.292 C222.542,116.289 221.946,116.266 221.321,116.219 C220.958,121.019 219.996,125.745 218.488,130.021 C224.458,123.986 224.288,119.216 223.104,116.292 ZM217.100,147.735 C213.921,152.654 210.287,158.292 207.872,162.070 L223.931,161.857 L217.100,147.735 ZM232.035,183.638 C224.380,187.590 214.552,186.433 214.400,186.418 L214.400,189.338 C214.882,189.371 215.742,189.417 216.897,189.417 C220.322,189.417 226.257,189.007 232.035,186.682 L232.035,183.638 ZM226.849,63.867 L226.849,71.026 L225.523,71.026 L225.523,59.708 L226.849,59.708 L226.849,61.294 C227.255,60.287 228.046,59.494 229.266,59.580 L229.266,61.101 L229.223,61.101 C227.876,61.101 226.849,61.980 226.849,63.867 ZM220.175,46.077 L220.175,45.734 C220.175,41.897 221.822,40.075 223.640,40.075 C224.239,40.075 224.688,40.204 225.051,40.440 L225.051,41.854 C224.645,41.554 224.217,41.361 223.704,41.361 C222.656,41.361 221.523,42.669 221.523,45.691 L221.523,46.120 C221.523,49.206 222.613,50.428 223.789,50.428 C224.217,50.428 224.666,50.213 225.051,49.914 L225.051,51.264 C224.645,51.542 224.217,51.714 223.618,51.714 C221.757,51.714 220.175,49.935 220.175,46.077 ZM223.856,65.110 L223.856,65.967 L218.979,65.967 C219.065,68.668 220.156,69.932 221.503,69.932 C222.209,69.932 222.722,69.718 223.471,69.225 L223.599,70.511 C222.786,71.004 222.209,71.197 221.310,71.197 C219.364,71.197 217.653,69.311 217.653,65.602 L217.653,65.303 C217.653,61.466 219.129,59.537 220.840,59.537 C222.594,59.537 223.856,61.530 223.856,65.110 ZM218.979,64.852 L222.572,64.852 C222.572,62.431 221.867,60.758 220.840,60.758 C219.835,60.758 219.044,62.109 218.979,64.852 ZM217.074,51.542 L217.074,40.225 L218.422,40.225 L218.422,51.542 L217.074,51.542 ZM217.053,36.410 L218.443,36.410 L218.443,38.167 L217.053,38.167 L217.053,36.410 ZM214.768,63.159 C214.768,61.573 214.190,60.694 213.185,60.694 C212.180,60.694 211.389,61.723 211.389,63.288 L211.389,71.026 L210.063,71.026 L210.063,59.708 L211.389,59.708 L211.389,61.294 C211.795,60.351 212.458,59.515 213.634,59.515 C215.131,59.515 216.094,60.780 216.094,62.923 L216.094,71.026 L214.768,71.026 L214.768,63.159 ZM213.697,43.676 C213.697,42.090 213.120,41.211 212.114,41.211 C211.109,41.211 210.318,42.240 210.318,43.804 L210.318,51.542 L208.992,51.542 L208.992,36.410 L210.318,36.410 L210.318,41.812 C210.724,40.868 211.387,40.032 212.563,40.032 C214.061,40.032 215.023,41.297 215.023,43.440 L215.023,51.542 L213.697,51.542 L213.697,43.676 ZM204.568,73.855 C203.712,73.855 202.878,73.705 202.108,73.426 L202.108,72.119 C202.878,72.419 203.840,72.633 204.503,72.633 C205.915,72.633 206.685,71.990 206.685,70.489 L206.685,68.260 C206.257,69.375 205.551,70.404 204.418,70.404 C202.963,70.404 201.637,68.668 201.637,65.046 L201.637,64.874 C201.637,61.273 202.963,59.515 204.418,59.515 C205.551,59.515 206.257,60.544 206.685,61.659 L206.685,59.708 L208.032,59.708 L208.032,70.511 C208.032,72.826 206.727,73.855 204.568,73.855 ZM206.727,64.895 C206.727,62.237 205.744,60.758 204.781,60.758 C203.797,60.758 202.963,62.216 202.963,64.895 L202.963,65.024 C202.963,67.724 203.797,69.161 204.781,69.161 C205.744,69.161 206.727,67.703 206.727,65.046 L206.727,64.895 ZM204.502,51.736 C203.368,51.736 202.662,50.707 202.235,49.592 L202.235,54.329 L200.909,54.329 L200.909,40.225 L202.235,40.225 L202.235,42.197 C202.662,41.061 203.368,40.032 204.502,40.032 C205.999,40.032 207.304,41.833 207.304,45.605 L207.304,46.163 C207.304,49.892 205.999,51.736 204.502,51.736 ZM205.956,45.648 C205.956,42.840 205.165,41.275 204.138,41.275 C203.133,41.275 202.192,42.819 202.192,45.584 L202.192,46.184 C202.192,48.949 203.133,50.492 204.138,50.492 C205.165,50.492 205.956,48.927 205.956,46.120 L205.956,45.648 ZM198.494,71.026 L198.494,59.708 L199.841,59.708 L199.841,71.026 L198.494,71.026 ZM198.473,55.893 L199.863,55.893 L199.863,57.650 L198.473,57.650 L198.473,55.893 ZM197.616,50.021 C197.167,51.093 196.483,51.736 195.456,51.736 C194.023,51.736 192.997,50.299 192.997,48.285 L192.997,48.070 C192.997,45.841 194.066,44.447 195.841,44.447 C196.547,44.447 197.125,44.641 197.638,44.877 L197.638,43.654 C197.638,42.197 196.953,41.361 195.627,41.361 C194.879,41.361 194.258,41.533 193.595,41.876 L193.595,40.590 C194.258,40.268 194.943,40.097 195.799,40.097 C197.766,40.097 198.964,41.297 198.964,43.526 L198.964,51.542 L197.616,51.542 L197.616,50.021 ZM197.638,45.991 C197.146,45.755 196.611,45.584 196.076,45.584 C194.921,45.584 194.301,46.548 194.301,47.985 L194.301,48.199 C194.301,49.613 194.857,50.578 195.841,50.578 C196.911,50.578 197.638,49.442 197.638,48.156 L197.638,45.991 ZM193.982,65.860 C192.464,64.403 191.865,63.481 191.865,62.259 L191.865,62.216 C191.865,60.544 193.105,59.558 194.602,59.558 C195.329,59.558 195.864,59.665 196.463,59.923 L196.463,61.273 C195.843,60.952 195.244,60.801 194.602,60.801 C193.790,60.801 193.191,61.316 193.191,62.152 L193.191,62.194 C193.191,62.902 193.554,63.438 194.859,64.724 C196.378,66.246 196.955,67.167 196.955,68.389 L196.955,68.432 C196.955,70.125 195.650,71.175 194.153,71.175 C193.319,71.175 192.613,70.983 191.886,70.640 L191.886,69.289 C192.678,69.697 193.447,69.954 194.132,69.954 C194.966,69.954 195.629,69.396 195.629,68.496 L195.629,68.454 C195.629,67.746 195.244,67.060 193.982,65.860 ZM190.112,44.383 L190.112,51.542 L188.786,51.542 L188.786,40.225 L190.112,40.225 L190.112,41.812 C190.518,40.804 191.310,40.011 192.529,40.097 L192.529,41.618 L192.486,41.618 C191.139,41.618 190.112,42.498 190.112,44.383 ZM190.754,65.110 L190.754,65.967 L185.878,65.967 C185.963,68.668 187.054,69.932 188.401,69.932 C189.107,69.932 189.621,69.718 190.369,69.225 L190.497,70.511 C189.685,71.004 189.107,71.197 188.209,71.197 C186.263,71.197 184.552,69.311 184.552,65.602 L184.552,65.303 C184.552,61.466 186.027,59.537 187.738,59.537 C189.492,59.537 190.754,61.530 190.754,65.110 ZM187.738,60.758 C186.733,60.758 185.942,62.109 185.878,64.852 L189.471,64.852 C189.471,62.431 188.765,60.758 187.738,60.758 ZM179.997,44.255 L179.997,43.826 C179.997,38.918 182.115,36.410 184.660,36.410 C185.451,36.410 186.007,36.581 186.542,36.881 L186.542,38.361 C185.900,37.974 185.323,37.760 184.681,37.760 C182.928,37.760 181.409,39.754 181.409,43.804 L181.409,44.276 C181.409,48.520 182.885,50.407 184.660,50.407 C184.981,50.407 185.173,50.364 185.472,50.256 L185.472,44.898 L183.483,44.898 L183.483,43.633 L186.756,43.633 L186.756,51.136 C185.943,51.542 185.387,51.671 184.574,51.671 C182.072,51.671 179.997,49.270 179.997,44.255 ZM183.227,63.309 L183.227,63.738 C183.227,68.539 181.238,71.026 178.308,71.026 L176.361,71.026 L176.361,56.021 L178.308,56.021 C181.238,56.021 183.227,58.507 183.227,63.309 ZM181.815,63.309 C181.815,59.193 180.318,57.286 178.372,57.286 L177.752,57.286 L177.752,69.761 L178.393,69.761 C180.382,69.761 181.815,67.853 181.815,63.738 L181.815,63.309 ZM160.564,132.859 C160.894,137.587 160.918,142.800 160.832,147.323 C159.323,148.413 157.615,149.783 155.847,151.456 C156.029,146.340 156.132,139.335 155.704,133.199 L160.564,132.859 ZM148.570,152.332 C148.138,151.471 147.680,150.674 147.207,149.938 C148.844,149.504 150.491,148.915 152.048,148.111 L152.048,151.154 C150.887,151.621 149.722,152.007 148.570,152.332 ZM153.492,118.197 L143.603,114.578 L135.857,133.420 L129.307,125.432 L127.649,127.793 L121.749,127.793 L120.086,125.427 L113.532,133.420 L105.790,114.582 L95.978,118.197 C94.734,118.796 82.620,124.990 78.504,139.849 L75.627,138.793 L74.440,137.127 C75.373,135.374 76.222,133.477 76.978,131.448 C79.442,128.693 80.933,126.076 81.785,123.662 C87.579,116.799 93.895,113.782 94.017,113.726 L94.196,113.652 L108.509,108.380 L114.936,124.019 L121.506,116.007 L127.885,116.007 L134.454,124.019 L140.881,108.384 L155.452,113.726 C155.556,113.774 160.173,115.979 165.126,120.888 C164.985,123.019 164.885,125.287 164.820,127.677 C159.944,121.471 154.342,118.608 153.492,118.197 ZM162.269,8.190 C162.269,6.603 161.692,5.724 160.686,5.724 C159.681,5.724 158.890,6.754 158.890,8.318 L158.890,16.056 L157.564,16.056 L157.564,4.739 L158.890,4.739 L158.890,6.325 C159.296,5.382 159.959,4.546 161.135,4.546 C162.633,4.546 163.595,5.810 163.595,7.953 L163.595,16.056 L162.269,16.056 L162.269,8.190 ZM152.624,16.249 C150.849,16.249 149.352,14.148 149.352,10.569 L149.352,10.247 C149.352,6.668 150.849,4.567 152.646,4.567 C154.421,4.567 155.918,6.668 155.918,10.247 L155.918,10.569 C155.918,14.148 154.421,16.249 152.624,16.249 ZM154.571,10.226 C154.571,7.461 153.715,5.789 152.624,5.789 C151.534,5.789 150.678,7.461 150.678,10.226 L150.678,10.569 C150.678,13.334 151.534,15.027 152.624,15.027 C153.715,15.027 154.571,13.334 154.571,10.569 L154.571,10.226 ZM149.935,25.808 C150.341,24.800 151.132,24.007 152.352,24.093 L152.352,25.615 L152.309,25.615 C150.962,25.615 149.935,26.494 149.935,28.380 L149.935,35.539 L148.609,35.539 L148.609,24.222 L149.935,24.222 L149.935,25.808 ZM143.711,94.492 C140.157,104.564 133.585,112.120 124.703,112.120 C115.479,112.120 109.002,104.455 105.562,94.369 C99.536,88.210 99.912,83.387 101.181,80.510 C101.150,80.507 101.122,80.506 101.090,80.503 C101.090,80.503 96.241,49.997 124.024,49.997 C139.521,49.997 151.429,60.538 147.532,79.236 C149.189,81.827 150.881,87.245 143.711,94.492 ZM132.050,69.987 C127.761,74.185 119.786,79.905 107.737,80.617 C108.839,94.111 115.118,107.238 124.703,107.238 C134.995,107.238 141.472,92.102 141.824,77.628 C138.312,76.125 134.090,73.660 132.050,69.987 ZM146.230,0.923 L147.620,0.923 L147.620,2.681 L146.230,2.681 L146.230,0.923 ZM146.252,4.739 L147.599,4.739 L147.599,16.056 L146.252,16.056 L146.252,4.739 ZM146.942,30.480 L142.066,30.480 C142.151,33.181 143.242,34.446 144.589,34.446 C145.295,34.446 145.808,34.231 146.557,33.739 L146.685,35.025 C145.872,35.518 145.295,35.711 144.397,35.711 C142.450,35.711 140.740,33.824 140.740,30.116 L140.740,29.816 C140.740,25.979 142.215,24.050 143.926,24.050 C145.680,24.050 146.942,26.043 146.942,29.623 L146.942,30.480 ZM143.926,25.272 C142.921,25.272 142.130,26.622 142.066,29.366 L145.658,29.366 C145.658,26.944 144.953,25.272 143.926,25.272 ZM141.569,14.148 L141.569,5.896 L140.606,5.896 L140.606,4.739 L141.569,4.739 L141.569,1.631 L142.916,1.631 L142.916,4.739 L144.606,4.739 L144.606,5.896 L142.916,5.896 L142.916,13.826 C142.916,14.684 143.301,14.920 143.964,14.920 C144.157,14.920 144.434,14.877 144.627,14.813 L144.627,15.970 C144.370,16.077 143.964,16.163 143.664,16.163 C142.445,16.163 141.569,15.670 141.569,14.148 ZM138.065,14.534 C137.616,15.606 136.932,16.249 135.905,16.249 C134.472,16.249 133.446,14.813 133.446,12.798 L133.446,12.584 C133.446,10.354 134.515,8.961 136.290,8.961 C136.996,8.961 137.573,9.154 138.086,9.390 L138.086,8.168 C138.086,6.711 137.402,5.874 136.076,5.874 C135.328,5.874 134.707,6.046 134.044,6.389 L134.044,5.103 C134.707,4.781 135.392,4.610 136.247,4.610 C138.215,4.610 139.412,5.810 139.412,8.040 L139.412,16.056 L138.065,16.056 L138.065,14.534 ZM138.086,10.505 C137.595,10.269 137.060,10.097 136.525,10.097 C135.370,10.097 134.750,11.062 134.750,12.498 L134.750,12.712 C134.750,14.127 135.306,15.091 136.290,15.091 C137.359,15.091 138.086,13.956 138.086,12.669 L138.086,10.505 ZM133.148,35.539 L133.148,24.222 L134.474,24.222 L134.474,25.808 C134.880,24.865 135.543,24.028 136.720,24.028 C138.217,24.028 139.179,25.293 139.179,27.437 L139.179,35.539 L137.853,35.539 L137.853,27.672 C137.853,26.086 137.276,25.208 136.271,25.208 C135.265,25.208 134.474,26.236 134.474,27.801 L134.474,35.539 L133.148,35.539 ZM129.362,14.148 L129.362,5.896 L128.399,5.896 L128.399,4.739 L129.362,4.739 L129.362,1.631 L130.709,1.631 L130.709,4.739 L132.399,4.739 L132.399,5.896 L130.709,5.896 L130.709,13.826 C130.709,14.684 131.094,14.920 131.757,14.920 C131.950,14.920 132.227,14.877 132.420,14.813 L132.420,15.970 C132.163,16.077 131.757,16.163 131.457,16.163 C130.238,16.163 129.362,15.670 129.362,14.148 ZM129.771,26.172 L129.771,24.222 L131.118,24.222 L131.118,35.025 C131.118,37.339 129.813,38.368 127.654,38.368 C126.798,38.368 125.964,38.218 125.194,37.940 L125.194,36.632 C125.964,36.932 126.926,37.147 127.589,37.147 C129.000,37.147 129.771,36.504 129.771,35.003 L129.771,32.774 C129.343,33.888 128.637,34.917 127.504,34.917 C126.049,34.917 124.723,33.181 124.723,29.559 L124.723,29.387 C124.723,25.787 126.049,24.028 127.504,24.028 C128.637,24.028 129.343,25.057 129.771,26.172 ZM126.049,29.409 L126.049,29.537 C126.049,32.238 126.883,33.674 127.867,33.674 C128.830,33.674 129.813,32.216 129.813,29.559 L129.813,29.409 C129.813,26.751 128.830,25.272 127.867,25.272 C126.883,25.272 126.049,26.729 126.049,29.409 ZM121.580,35.539 L121.580,24.222 L122.927,24.222 L122.927,35.539 L121.580,35.539 ZM121.559,20.406 L122.949,20.406 L122.949,22.164 L121.559,22.164 L121.559,20.406 ZM125.775,8.190 C125.775,6.603 125.197,5.724 124.192,5.724 C123.186,5.724 122.395,6.754 122.395,8.318 L122.395,16.056 L121.069,16.056 L121.069,4.739 L122.395,4.739 L122.395,6.325 C122.802,5.382 123.465,4.546 124.641,4.546 C126.138,4.546 127.101,5.810 127.101,7.953 L127.101,16.056 L125.775,16.056 L125.775,8.190 ZM117.239,35.689 C116.405,35.689 115.699,35.496 114.972,35.153 L114.972,33.803 C115.763,34.210 116.533,34.467 117.218,34.467 C118.052,34.467 118.715,33.910 118.715,33.010 L118.715,32.967 C118.715,32.259 118.330,31.573 117.068,30.373 C115.549,28.916 114.951,27.994 114.951,26.772 L114.951,26.729 C114.951,25.057 116.191,24.072 117.688,24.072 C118.416,24.072 118.950,24.179 119.549,24.436 L119.549,25.787 C118.929,25.465 118.330,25.315 117.688,25.315 C116.876,25.315 116.277,25.829 116.277,26.665 L116.277,26.708 C116.277,27.415 116.640,27.951 117.945,29.237 C119.464,30.759 120.041,31.681 120.041,32.902 L120.041,32.945 C120.041,34.639 118.736,35.689 117.239,35.689 ZM117.050,14.963 C117.756,14.963 118.269,14.749 119.018,14.255 L119.146,15.542 C118.333,16.035 117.756,16.228 116.857,16.228 C114.911,16.228 113.200,14.341 113.200,10.633 L113.200,10.333 C113.200,6.496 114.676,4.567 116.387,4.567 C118.141,4.567 119.402,6.560 119.402,10.140 L119.402,10.997 L114.526,10.997 C114.612,13.698 115.702,14.963 117.050,14.963 ZM118.119,9.883 C118.119,7.461 117.413,5.789 116.387,5.789 C115.382,5.789 114.590,7.139 114.526,9.883 L118.119,9.883 ZM113.840,30.480 L108.964,30.480 C109.049,33.181 110.140,34.446 111.487,34.446 C112.193,34.446 112.707,34.231 113.455,33.739 L113.583,35.025 C112.771,35.518 112.193,35.711 111.295,35.711 C109.349,35.711 107.638,33.824 107.638,30.116 L107.638,29.816 C107.638,25.979 109.113,24.050 110.824,24.050 C112.578,24.050 113.840,26.043 113.840,29.623 L113.840,30.480 ZM110.824,25.272 C109.819,25.272 109.028,26.622 108.964,29.366 L112.557,29.366 C112.557,26.944 111.851,25.272 110.824,25.272 ZM109.351,16.206 C108.517,16.206 107.812,16.013 107.084,15.670 L107.084,14.320 C107.876,14.727 108.645,14.984 109.330,14.984 C110.164,14.984 110.827,14.427 110.827,13.527 L110.827,13.484 C110.827,12.776 110.442,12.090 109.180,10.890 C107.661,9.433 107.063,8.511 107.063,7.289 L107.063,7.246 C107.063,5.574 108.303,4.589 109.800,4.589 C110.528,4.589 111.062,4.696 111.661,4.953 L111.661,6.303 C111.041,5.982 110.442,5.832 109.800,5.832 C108.988,5.832 108.389,6.346 108.389,7.182 L108.389,7.225 C108.389,7.932 108.752,8.468 110.057,9.754 C111.576,11.276 112.153,12.198 112.153,13.419 L112.153,13.462 C112.153,15.155 110.848,16.206 109.351,16.206 ZM101.394,35.539 L99.447,35.539 L99.447,20.535 L101.394,20.535 C104.324,20.535 106.313,23.021 106.313,27.822 L106.313,28.251 C106.313,33.053 104.324,35.539 101.394,35.539 ZM104.901,27.822 C104.901,23.707 103.404,21.799 101.458,21.799 L100.838,21.799 L100.838,34.274 L101.479,34.274 C103.468,34.274 104.901,32.367 104.901,28.251 L104.901,27.822 ZM103.599,14.963 C104.305,14.963 104.818,14.749 105.567,14.255 L105.695,15.542 C104.882,16.035 104.305,16.228 103.407,16.228 C101.460,16.228 99.749,14.341 99.749,10.633 L99.749,10.333 C99.749,6.496 101.225,4.567 102.936,4.567 C104.690,4.567 105.951,6.560 105.951,10.140 L105.951,10.997 L101.075,10.997 C101.161,13.698 102.251,14.963 103.599,14.963 ZM104.668,9.883 C104.668,7.461 103.962,5.789 102.936,5.789 C101.931,5.789 101.139,7.139 101.075,9.883 L104.668,9.883 ZM96.758,8.897 L96.758,16.056 L95.432,16.056 L95.432,4.739 L96.758,4.739 L96.758,6.325 C97.164,5.318 97.955,4.524 99.175,4.610 L99.175,6.132 L99.132,6.132 C97.784,6.132 96.758,7.011 96.758,8.897 ZM89.573,10.740 L88.974,10.740 L88.974,16.056 L87.584,16.056 L87.584,1.052 L89.573,1.052 C92.268,1.052 94.000,2.788 94.000,5.832 L94.000,5.874 C94.000,8.876 92.353,10.697 89.573,10.740 ZM92.610,5.874 C92.610,3.560 91.455,2.338 89.637,2.338 L88.974,2.338 L88.974,9.476 L89.637,9.476 C91.520,9.454 92.610,8.190 92.610,5.917 L92.610,5.874 ZM78.200,63.867 L78.200,71.026 L76.874,71.026 L76.874,59.708 L78.200,59.708 L78.200,61.294 C78.606,60.287 79.398,59.494 80.616,59.580 L80.616,61.101 L80.574,61.101 C79.227,61.101 78.200,61.980 78.200,63.867 ZM71.895,128.343 C68.364,138.549 61.752,146.236 52.792,146.236 C43.652,146.236 37.205,138.706 33.743,128.749 C27.343,122.362 27.824,117.380 29.161,114.483 C28.856,112.314 25.400,84.114 52.113,84.114 C67.670,84.114 79.615,94.733 75.582,113.563 C77.171,116.198 78.579,121.419 71.895,128.343 ZM60.140,104.103 C55.850,108.301 47.875,114.022 35.828,114.733 C36.930,128.228 43.208,141.354 52.792,141.354 C63.084,141.354 69.562,126.219 69.913,111.745 C66.401,110.242 62.178,107.777 60.140,104.103 ZM72.853,69.932 C73.560,69.932 74.073,69.718 74.821,69.225 L74.949,70.511 C74.137,71.004 73.560,71.197 72.661,71.197 C70.715,71.197 69.004,69.311 69.004,65.602 L69.004,65.303 C69.004,61.466 70.480,59.537 72.191,59.537 C73.944,59.537 75.207,61.530 75.207,65.110 L75.207,65.967 L70.330,65.967 C70.416,68.668 71.507,69.932 72.853,69.932 ZM73.923,64.852 C73.923,62.431 73.217,60.758 72.191,60.758 C71.186,60.758 70.394,62.109 70.330,64.852 L73.923,64.852 ZM66.119,63.159 C66.119,61.573 65.541,60.694 64.535,60.694 C63.530,60.694 62.740,61.723 62.740,63.288 L62.740,71.026 L61.413,71.026 L61.413,59.708 L62.740,59.708 L62.740,61.294 C63.146,60.351 63.808,59.515 64.984,59.515 C66.482,59.515 67.445,60.780 67.445,62.923 L67.445,71.026 L66.119,71.026 L66.119,63.159 ZM62.535,51.736 C61.401,51.736 60.696,50.707 60.268,49.592 L60.268,51.542 L58.942,51.542 L58.942,36.410 L60.268,36.410 L60.268,42.197 C60.696,41.061 61.401,40.032 62.535,40.032 C64.032,40.032 65.337,41.833 65.337,45.605 L65.337,46.163 C65.337,49.892 64.032,51.736 62.535,51.736 ZM63.990,45.648 C63.990,42.840 63.198,41.275 62.171,41.275 C61.166,41.275 60.225,42.819 60.225,45.584 L60.225,46.184 C60.225,48.949 61.166,50.492 62.171,50.492 C63.198,50.492 63.990,48.927 63.990,46.120 L63.990,45.648 ZM59.383,59.708 L59.383,70.511 C59.383,72.826 58.078,73.855 55.919,73.855 C55.062,73.855 54.229,73.705 53.458,73.426 L53.458,72.119 C54.229,72.419 55.190,72.633 55.854,72.633 C57.265,72.633 58.035,71.990 58.035,70.489 L58.035,68.260 C57.607,69.375 56.902,70.404 55.769,70.404 C54.314,70.404 52.988,68.668 52.988,65.046 L52.988,64.874 C52.988,61.273 54.314,59.515 55.769,59.515 C56.902,59.515 57.607,60.544 58.035,61.659 L58.035,59.708 L59.383,59.708 ZM56.132,60.758 C55.148,60.758 54.314,62.216 54.314,64.895 L54.314,65.024 C54.314,67.724 55.148,69.161 56.132,69.161 C57.095,69.161 58.078,67.703 58.078,65.046 L58.078,64.895 C58.078,62.237 57.095,60.758 56.132,60.758 ZM54.922,50.450 C55.628,50.450 56.142,50.235 56.889,49.742 L57.018,51.028 C56.205,51.521 55.628,51.714 54.729,51.714 C52.783,51.714 51.073,49.828 51.073,46.120 L51.073,45.819 C51.073,41.983 52.548,40.053 54.259,40.053 C56.012,40.053 57.275,42.047 57.275,45.627 L57.275,46.484 L52.399,46.484 C52.484,49.185 53.575,50.450 54.922,50.450 ZM55.992,45.370 C55.992,42.947 55.285,41.275 54.259,41.275 C53.254,41.275 52.462,42.626 52.399,45.370 L55.992,45.370 ZM49.844,71.026 L49.844,59.708 L51.192,59.708 L51.192,71.026 L49.844,71.026 ZM49.824,55.893 L51.213,55.893 L51.213,57.650 L49.824,57.650 L49.824,55.893 ZM45.333,65.860 C43.814,64.403 43.215,63.481 43.215,62.259 L43.215,62.216 C43.215,60.544 44.456,59.558 45.953,59.558 C46.680,59.558 47.215,59.665 47.814,59.923 L47.814,61.273 C47.193,60.952 46.594,60.801 45.953,60.801 C45.140,60.801 44.541,61.316 44.541,62.152 L44.541,62.194 C44.541,62.902 44.905,63.438 46.210,64.724 C47.729,66.246 48.306,67.167 48.306,68.389 L48.306,68.432 C48.306,70.125 47.001,71.175 45.504,71.175 C44.670,71.175 43.964,70.983 43.237,70.640 L43.237,69.289 C44.029,69.697 44.798,69.954 45.483,69.954 C46.316,69.954 46.980,69.396 46.980,68.496 L46.980,68.453 C46.980,67.746 46.594,67.060 45.333,65.860 ZM46.649,51.628 L44.553,39.668 L42.437,51.628 L41.068,51.628 L38.565,36.538 L40.020,36.538 L41.795,48.584 L43.934,36.538 L45.217,36.538 L47.334,48.584 L49.131,36.538 L50.542,36.538 L48.040,51.628 L46.649,51.628 ZM42.105,65.110 L42.105,65.967 L37.228,65.967 C37.314,68.668 38.404,69.932 39.752,69.932 C40.458,69.932 40.971,69.718 41.720,69.225 L41.848,70.511 C41.036,71.004 40.458,71.197 39.560,71.197 C37.614,71.197 35.902,69.311 35.902,65.602 L35.902,65.303 C35.902,61.466 37.378,59.537 39.089,59.537 C40.843,59.537 42.105,61.530 42.105,65.110 ZM37.228,64.852 L40.821,64.852 C40.821,62.431 40.116,60.758 39.089,60.758 C38.084,60.758 37.293,62.109 37.228,64.852 ZM29.658,71.026 L27.712,71.026 L27.712,56.021 L29.658,56.021 C32.589,56.021 34.577,58.508 34.577,63.309 L34.577,63.738 C34.577,68.539 32.589,71.026 29.658,71.026 ZM33.166,63.309 C33.166,59.194 31.669,57.286 29.723,57.286 L29.102,57.286 L29.102,69.761 L29.744,69.761 C31.733,69.761 33.166,67.853 33.166,63.738 L33.166,63.309 ZM88.583,144.122 C88.553,140.522 88.612,136.668 88.849,133.032 L93.709,133.350 C93.399,138.097 93.402,143.254 93.511,147.669 C91.626,146.129 89.917,144.955 88.583,144.122 ZM35.568,140.474 L37.311,144.336 C37.346,144.415 41.085,152.565 47.690,159.060 L48.421,159.777 L48.421,199.555 C49.682,199.611 50.963,199.648 52.264,199.648 C52.482,199.648 52.698,199.646 52.917,199.645 C54.232,199.636 55.528,199.589 56.809,199.522 L56.809,159.777 L57.538,159.060 C64.145,152.565 67.881,144.415 67.918,144.334 L69.664,140.482 L71.930,143.661 L83.332,147.843 C83.444,147.894 88.764,150.435 94.113,156.146 C91.916,163.208 92.261,170.175 92.553,173.075 C91.411,177.034 91.362,183.328 97.869,190.518 C98.232,191.500 98.622,192.444 99.029,193.362 C96.517,194.585 92.990,195.526 88.064,195.526 C87.569,195.526 87.055,195.512 86.530,195.492 C78.989,202.005 64.426,204.444 52.952,204.527 C52.719,204.528 52.485,204.529 52.253,204.529 C37.626,204.530 25.301,201.183 18.754,195.490 C18.212,195.511 17.678,195.526 17.165,195.526 C3.353,195.526 0.494,188.146 0.370,187.815 L0.247,187.475 L0.227,187.113 C-1.362,158.917 21.664,147.950 21.897,147.843 L22.076,147.769 L33.321,143.626 L35.568,140.474 ZM70.455,149.989 C69.069,152.418 66.939,155.771 64.110,159.123 L77.414,159.752 L70.455,149.989 ZM61.680,199.126 C63.551,198.916 65.367,198.652 67.104,198.324 L67.104,164.153 L61.680,163.896 L61.680,199.126 ZM38.125,198.421 C39.857,198.742 41.674,198.997 43.549,199.194 L43.549,163.896 L38.125,164.153 L38.125,198.421 ZM41.117,159.123 C38.289,155.771 36.159,152.418 34.774,149.989 L27.814,159.752 L41.117,159.123 ZM126.042,212.674 C126.042,212.674 127.691,216.960 127.712,217.027 L125.040,220.828 L119.140,220.828 L116.468,217.027 C116.457,217.006 118.138,212.674 118.138,212.674 C118.336,212.703 125.844,212.703 126.042,212.674 ZM127.468,129.980 L127.911,137.742 C125.863,137.387 123.728,137.195 121.516,137.190 L121.928,129.980 L127.468,129.980 ZM141.101,187.528 C137.549,197.600 130.975,205.155 122.094,205.155 C112.873,205.155 106.394,197.490 102.953,187.402 C96.929,181.244 97.305,176.421 98.574,173.545 C98.543,173.542 98.513,173.541 98.483,173.538 C98.483,173.538 93.635,143.032 121.415,143.032 C136.914,143.032 148.822,153.573 144.924,172.271 C146.582,174.862 148.274,180.280 141.101,187.528 ZM129.442,163.022 C125.154,167.220 117.179,172.940 105.130,173.651 C106.232,187.146 112.509,200.273 122.094,200.273 C132.386,200.273 138.864,185.138 139.215,170.663 C135.703,169.160 131.481,166.695 129.442,163.022 ZM91.372,206.761 L91.551,206.688 L105.355,201.603 L107.221,206.116 L103.481,207.494 L117.550,254.023 L119.321,223.015 L124.860,223.015 L126.662,254.596 L140.885,207.562 L136.978,206.123 L138.829,201.606 L152.807,206.761 C153.040,206.868 176.068,217.835 174.477,246.032 L174.457,246.393 L174.333,246.733 C174.212,247.065 171.349,254.443 157.539,254.444 C157.044,254.444 156.530,254.430 156.007,254.410 C148.466,260.923 133.902,263.363 122.429,263.445 C122.196,263.446 121.961,263.448 121.728,263.448 C107.102,263.448 94.777,260.101 88.229,254.408 C87.687,254.429 87.152,254.443 86.640,254.444 C72.828,254.444 69.969,247.065 69.848,246.733 L69.724,246.393 L69.703,246.032 C68.113,217.835 91.139,206.868 91.372,206.761 ZM157.689,222.975 C159.470,232.687 158.422,244.687 157.865,249.552 C166.334,249.473 169.041,246.193 169.641,245.246 C170.467,226.881 159.604,216.990 153.999,213.134 C155.795,215.848 156.980,219.115 157.689,222.975 ZM135.864,246.844 C136.346,246.878 137.205,246.924 138.361,246.924 C141.786,246.924 147.720,246.514 153.499,244.189 L153.499,241.146 C145.843,245.096 136.016,243.941 135.864,243.925 L135.864,246.844 ZM74.541,245.263 C75.094,246.140 77.785,249.480 86.368,249.551 C86.317,248.682 86.260,247.622 86.203,246.404 C85.759,241.401 85.358,233.649 86.180,226.482 C86.190,226.345 86.196,226.204 86.204,226.066 L86.233,226.068 C86.360,225.020 86.512,223.984 86.697,222.975 C87.432,218.966 88.681,215.593 90.595,212.820 C85.110,216.409 73.670,226.223 74.541,245.263 ZM101.517,272.234 C102.201,272.234 102.565,272.341 103.057,272.577 L103.057,274.056 C102.501,273.734 102.094,273.585 101.602,273.585 C100.062,273.585 98.822,275.492 98.822,279.608 L98.822,280.037 C98.822,284.216 100.062,286.060 101.602,286.060 C102.116,286.060 102.565,285.910 103.100,285.588 L103.100,286.981 C102.629,287.260 102.116,287.410 101.453,287.410 C99.185,287.410 97.410,285.052 97.410,280.037 L97.410,279.608 C97.410,274.571 99.314,272.234 101.517,272.234 ZM105.484,299.091 L105.484,299.519 C105.484,304.321 103.495,306.807 100.565,306.807 L98.619,306.807 L98.619,291.803 L100.565,291.803 C103.495,291.803 105.484,294.290 105.484,299.091 ZM100.009,305.542 L100.651,305.542 C102.640,305.542 104.072,303.635 104.072,299.519 L104.072,299.091 C104.072,294.976 102.576,293.068 100.629,293.068 L100.009,293.068 L100.009,305.542 ZM104.809,287.324 L104.809,276.007 L106.135,276.007 L106.135,277.593 C106.541,276.586 107.333,275.792 108.552,275.878 L108.552,277.400 L108.509,277.400 C107.162,277.400 106.135,278.279 106.135,280.165 L106.135,287.324 L104.809,287.324 ZM108.670,293.432 L107.279,293.432 L107.279,291.675 L108.670,291.675 L108.670,293.432 ZM108.648,306.807 L107.301,306.807 L107.301,295.490 L108.648,295.490 L108.648,306.807 ZM112.313,275.835 C114.067,275.835 115.329,277.828 115.329,281.408 L115.329,282.266 L110.453,282.266 C110.538,284.966 111.629,286.231 112.976,286.231 C113.682,286.231 114.195,286.017 114.944,285.524 L115.072,286.810 C114.260,287.303 113.682,287.496 112.784,287.496 C110.838,287.496 109.127,285.609 109.127,281.901 L109.127,281.601 C109.127,277.764 110.602,275.835 112.313,275.835 ZM114.045,281.151 C114.045,278.729 113.340,277.057 112.313,277.057 C111.308,277.057 110.517,278.407 110.453,281.151 L114.045,281.151 ZM112.112,297.076 C112.519,296.069 113.310,295.275 114.529,295.361 L114.529,296.883 L114.486,296.883 C113.139,296.883 112.112,297.762 112.112,299.648 L112.112,306.807 L110.786,306.807 L110.786,295.490 L112.112,295.490 L112.112,297.076 ZM118.290,295.318 C120.044,295.318 121.306,297.311 121.306,300.891 L121.306,301.748 L116.430,301.748 C116.515,304.449 117.606,305.714 118.953,305.714 C119.659,305.714 120.173,305.499 120.921,305.007 L121.049,306.292 C120.237,306.786 119.659,306.978 118.761,306.978 C116.815,306.978 115.104,305.093 115.104,301.384 L115.104,301.084 C115.104,297.247 116.579,295.318 118.290,295.318 ZM120.023,300.634 C120.023,298.212 119.317,296.540 118.290,296.540 C117.285,296.540 116.494,297.891 116.430,300.634 L120.023,300.634 ZM119.113,277.143 C118.365,277.143 117.745,277.314 117.082,277.657 L117.082,276.371 C117.745,276.050 118.429,275.878 119.285,275.878 C121.252,275.878 122.450,277.078 122.450,279.308 L122.450,287.324 L121.102,287.324 L121.102,285.802 C120.653,286.874 119.969,287.517 118.942,287.517 C117.509,287.517 116.483,286.081 116.483,284.066 L116.483,283.852 C116.483,281.623 117.552,280.229 119.327,280.229 C120.033,280.229 120.611,280.422 121.124,280.658 L121.124,279.436 C121.124,277.979 120.439,277.143 119.113,277.143 ZM119.562,281.365 C118.408,281.365 117.787,282.330 117.787,283.766 L117.787,283.980 C117.787,285.395 118.343,286.359 119.327,286.359 C120.397,286.359 121.124,285.224 121.124,283.937 L121.124,281.773 C120.632,281.537 120.097,281.365 119.562,281.365 ZM126.053,295.340 C126.652,295.340 127.101,295.468 127.464,295.704 L127.464,297.119 C127.058,296.819 126.630,296.626 126.117,296.626 C125.069,296.626 123.935,297.933 123.935,300.956 L123.935,301.384 C123.935,304.471 125.026,305.693 126.202,305.693 C126.630,305.693 127.079,305.478 127.464,305.178 L127.464,306.529 C127.058,306.807 126.630,306.978 126.031,306.978 C124.171,306.978 122.588,305.200 122.588,301.341 L122.588,300.998 C122.588,297.162 124.235,295.340 126.053,295.340 ZM127.001,286.188 C127.194,286.188 127.472,286.145 127.664,286.081 L127.664,287.238 C127.408,287.346 127.001,287.431 126.702,287.431 C125.483,287.431 124.606,286.938 124.606,285.416 L124.606,277.164 L123.644,277.164 L123.644,276.007 L124.606,276.007 L124.606,272.899 L125.953,272.899 L125.953,276.007 L127.643,276.007 L127.643,277.164 L125.953,277.164 L125.953,285.095 C125.953,285.952 126.338,286.188 127.001,286.188 ZM129.289,287.324 L129.289,276.007 L130.636,276.007 L130.636,287.324 L129.289,287.324 ZM129.267,272.191 L130.657,272.191 L130.657,273.949 L129.267,273.949 L129.267,272.191 ZM129.214,292.382 L130.562,292.382 L130.562,295.490 L132.252,295.490 L132.252,296.647 L130.562,296.647 L130.562,304.578 C130.562,305.435 130.947,305.671 131.610,305.671 C131.803,305.671 132.080,305.628 132.273,305.564 L132.273,306.721 C132.016,306.829 131.610,306.914 131.310,306.914 C130.091,306.914 129.214,306.421 129.214,304.899 L129.214,296.647 L128.252,296.647 L128.252,295.490 L129.214,295.490 L129.214,292.382 ZM134.891,287.388 L132.218,276.007 L133.565,276.007 L135.512,285.117 L137.479,276.007 L138.784,276.007 L136.132,287.388 L134.891,287.388 ZM136.506,295.318 C138.281,295.318 139.778,297.419 139.778,300.998 L139.778,301.320 C139.778,304.899 138.281,307.000 136.485,307.000 C134.710,307.000 133.213,304.899 133.213,301.320 L133.213,300.998 C133.213,297.419 134.710,295.318 136.506,295.318 ZM134.539,301.320 C134.539,304.085 135.394,305.778 136.485,305.778 C137.576,305.778 138.431,304.085 138.431,301.320 L138.431,300.977 C138.431,298.212 137.576,296.540 136.485,296.540 C135.394,296.540 134.539,298.212 134.539,300.977 L134.539,301.320 ZM139.467,281.601 C139.467,277.764 140.943,275.835 142.654,275.835 C144.407,275.835 145.669,277.828 145.669,281.408 L145.669,282.266 L140.793,282.266 C140.878,284.966 141.969,286.231 143.317,286.231 C144.022,286.231 144.536,286.017 145.284,285.524 L145.413,286.810 C144.600,287.303 144.022,287.496 143.124,287.496 C141.178,287.496 139.467,285.609 139.467,281.901 L139.467,281.601 ZM144.386,281.151 C144.386,278.729 143.680,277.057 142.654,277.057 C141.648,277.057 140.857,278.407 140.793,281.151 L144.386,281.151 ZM142.750,297.076 C143.157,296.069 143.948,295.275 145.167,295.361 L145.167,296.883 L145.124,296.883 C143.777,296.883 142.750,297.762 142.750,299.648 L142.750,306.807 L141.424,306.807 L141.424,295.490 L142.750,295.490 L142.750,297.076 Z"/>
</svg>
