<svg
 xmlns="http://www.w3.org/2000/svg"
 xmlns:xlink="http://www.w3.org/1999/xlink"
 width="223px" height="298px">
<defs>
<filter id="Filter_0">
    <feOffset in="SourceAlpha" dx="0" dy="1" />
    <feGaussianBlur result="blurOut" stdDeviation="3" />
    <feFlood flood-color="rgb(0, 0, 0)" result="floodOut" />
    <feComposite operator="out" in="floodOut" in2="blurOut" result="compOut" />
    <feComposite operator="in" in="compOut" in2="SourceAlpha" />
    <feComponentTransfer><feFuncA type="linear" slope="0.29"/></feComponentTransfer>
    <feBlend mode="multiply" in2="SourceGraphic" />
</filter>
<filter filterUnits="userSpaceOnUse" id="Filter_1" x="0px" y="73px" width="223px" height="224px"  >
    <feOffset in="SourceAlpha" dx="0" dy="3" />
    <feGaussianBlur result="blurOut" stdDeviation="1.414" />
    <feFlood flood-color="rgb(0, 0, 0)" result="floodOut" />
    <feComposite operator="atop" in="floodOut" in2="blurOut" />
    <feComponentTransfer><feFuncA type="linear" slope="0.18"/></feComponentTransfer>
    <feMerge>
    <feMergeNode/>
    <feMergeNode in="SourceGraphic"/>
  </feMerge>
</filter>

</defs>
<g filter="url(#Filter_0)">
<path fill-rule="evenodd"  fill="rgb(236, 236, 236)"
 d="M213.785,258.326 L213.745,259.038 L213.501,259.709 C213.264,260.358 207.629,274.872 180.454,274.872 C179.477,274.872 178.467,274.846 177.437,274.806 C162.597,287.615 133.937,292.414 111.359,292.576 C110.901,292.579 110.439,292.581 109.983,292.581 C82.834,292.581 59.720,286.725 46.370,276.662 C45.442,276.694 44.526,276.717 43.640,276.717 C14.014,276.717 7.871,260.894 7.612,260.186 L7.346,259.455 L7.303,258.679 C3.891,198.222 53.876,179.419 54.393,179.181 C53.047,148.338 53.930,127.941 55.506,114.543 C56.037,106.060 61.300,54.212 110.928,52.990 C135.778,52.375 153.296,69.595 161.246,94.504 C162.366,97.312 163.608,101.764 164.628,108.796 C164.991,111.048 165.287,113.338 165.512,115.663 C165.512,115.663 165.480,115.668 165.459,115.672 C166.775,128.868 167.331,148.760 165.898,178.691 L171.128,181.083 C171.602,181.302 216.915,202.871 213.785,258.326 ZM104.021,282.856 C106.413,282.941 108.828,282.993 111.291,282.975 C113.290,282.961 115.269,282.899 117.231,282.819 L143.373,215.685 L121.465,215.975 L110.876,246.034 L99.945,215.977 L77.863,215.685 L104.021,282.856 ZM127.384,188.182 C130.489,183.361 133.591,178.559 136.078,174.711 C135.263,173.506 134.059,171.376 133.051,168.224 C126.798,174.291 119.272,177.930 110.628,177.930 C102.154,177.930 94.863,174.628 88.800,169.104 C87.782,172.235 86.571,174.338 85.773,175.513 C93.467,187.527 102.888,202.232 106.382,207.675 L107.125,207.675 L110.732,217.592 L113.097,210.879 L113.125,210.889 C113.468,209.979 114.049,209.052 114.704,208.004 C115.459,206.795 116.542,205.087 117.849,203.038 C120.442,198.973 123.912,193.571 127.384,188.182 ZM67.850,118.664 C66.437,118.481 65.001,118.228 63.547,117.933 C61.843,123.704 62.514,132.344 72.961,143.019 C70.365,135.407 68.649,127.099 67.850,118.664 ZM75.969,178.017 L62.483,205.878 L94.107,206.297 L75.985,178.015 L75.969,178.017 ZM125.088,95.063 C117.403,102.583 101.037,118.127 77.551,119.096 C80.400,144.502 92.509,168.328 110.628,168.328 C129.872,168.328 142.331,141.465 144.125,114.373 C136.181,111.913 128.314,106.502 125.088,95.063 ZM157.118,116.262 C156.013,116.255 154.840,116.210 153.610,116.118 C152.896,125.559 151.002,134.853 148.035,143.263 C159.782,131.393 159.449,122.013 157.118,116.262 ZM145.304,178.104 C139.048,187.779 131.897,198.867 127.144,206.297 L158.747,205.878 L145.304,178.104 ZM174.695,248.717 C159.630,256.489 140.290,254.215 139.990,254.183 L139.990,259.927 C140.939,259.991 142.630,260.084 144.905,260.084 C151.645,260.084 163.324,259.276 174.695,254.704 L174.695,248.717 ZM142.830,15.661 L142.830,15.318 C142.820,11.481 144.462,9.655 146.281,9.650 C146.880,9.649 147.330,9.776 147.694,10.011 L147.698,11.425 C147.291,11.126 146.863,10.934 146.349,10.936 C145.300,10.938 144.169,12.249 144.178,15.271 L144.179,15.700 C144.187,18.786 145.282,20.005 146.458,20.003 C146.887,20.001 147.335,19.786 147.720,19.484 L147.723,20.834 C147.317,21.114 146.890,21.287 146.291,21.289 C144.429,21.294 142.841,19.519 142.830,15.661 ZM139.713,9.817 L141.061,9.814 L141.091,21.131 L139.743,21.134 L139.713,9.817 ZM139.681,6.002 L141.072,5.999 L141.077,7.756 L139.686,7.760 L139.681,6.002 ZM133.528,40.633 L133.498,29.316 L134.825,29.312 L134.829,30.899 C135.233,29.891 136.022,29.095 137.242,29.177 L137.246,30.699 L137.203,30.700 C135.855,30.703 134.830,31.585 134.836,33.471 L134.855,40.630 L133.528,40.633 ZM136.343,13.277 C136.339,11.691 135.758,10.814 134.753,10.817 C133.747,10.820 132.958,11.850 132.962,13.415 L132.983,21.153 L131.656,21.156 L131.616,6.024 L132.942,6.020 L132.957,11.422 C133.361,10.478 134.022,9.640 135.199,9.636 C136.697,9.632 137.663,10.895 137.669,13.038 L137.691,21.140 L136.364,21.144 L136.343,13.277 ZM131.846,35.579 L126.968,35.592 C127.061,38.292 128.155,39.554 129.503,39.551 C130.209,39.549 130.722,39.333 131.470,38.838 L131.601,40.124 C130.790,40.619 130.212,40.814 129.314,40.816 C127.367,40.821 125.650,38.939 125.641,35.231 L125.639,34.931 C125.630,31.094 127.101,29.162 128.812,29.157 C130.567,29.153 131.835,31.142 131.844,34.722 L131.846,35.579 ZM128.816,30.379 C127.810,30.381 127.022,31.734 126.965,34.478 L130.559,34.468 C130.553,32.046 129.842,30.376 128.816,30.379 ZM127.164,21.361 C126.030,21.364 125.321,20.337 124.891,19.223 L124.903,23.960 L123.577,23.964 L123.539,9.861 L124.866,9.857 L124.871,11.829 C125.296,10.692 125.999,9.661 127.133,9.658 C128.632,9.654 129.941,11.451 129.951,15.224 L129.953,15.780 C129.963,19.510 128.662,21.357 127.164,21.361 ZM128.604,15.270 C128.596,12.463 127.800,10.900 126.773,10.902 C125.767,10.905 124.830,12.451 124.838,15.216 L124.839,15.816 C124.846,18.581 125.791,20.121 126.797,20.119 C127.824,20.116 128.612,18.549 128.605,15.742 L128.604,15.270 ZM124.094,40.658 L122.768,40.662 L122.747,32.796 C122.742,31.210 122.162,30.332 121.156,30.335 C120.151,30.338 119.362,31.369 119.366,32.933 L119.387,40.671 L118.060,40.674 L118.030,29.357 L119.357,29.354 L119.361,30.940 C119.765,29.995 120.426,29.158 121.603,29.155 C123.101,29.151 124.067,30.413 124.073,32.556 L124.094,40.658 ZM120.271,19.665 C119.825,20.738 119.142,21.383 118.114,21.385 C116.680,21.389 115.650,19.955 115.645,17.941 L115.644,17.727 C115.638,15.497 116.704,14.101 118.480,14.096 C119.186,14.094 119.765,14.286 120.279,14.521 L120.276,13.299 C120.272,11.841 119.585,11.007 118.258,11.010 C117.509,11.013 116.889,11.186 116.226,11.531 L116.223,10.244 C116.886,9.921 117.570,9.748 118.426,9.746 C120.394,9.740 121.596,10.938 121.602,13.167 L121.623,21.183 L120.275,21.186 L120.271,19.665 ZM120.282,15.635 C119.789,15.401 119.254,15.231 118.718,15.232 C117.563,15.235 116.945,16.201 116.949,17.638 L116.949,17.851 C116.953,19.266 117.512,20.229 118.497,20.226 C119.567,20.224 120.291,19.086 120.287,17.800 L120.282,15.635 ZM112.748,14.047 L112.767,21.206 L111.440,21.210 L111.410,9.893 L112.737,9.889 L112.741,11.475 C113.145,10.467 113.935,9.672 115.155,9.755 L115.159,11.276 L115.116,11.276 C113.768,11.280 112.743,12.161 112.748,14.047 ZM114.656,31.317 L114.650,29.366 L115.998,29.362 L116.027,40.165 C116.033,42.480 114.730,43.512 112.569,43.518 C111.713,43.521 110.878,43.372 110.107,43.096 L110.103,41.789 C110.875,42.086 111.838,42.299 112.502,42.297 C113.914,42.293 114.683,41.648 114.679,40.147 L114.673,37.918 C114.248,39.034 113.544,40.064 112.410,40.068 C110.955,40.072 109.624,38.339 109.614,34.717 L109.614,34.545 C109.604,30.944 110.926,29.183 112.381,29.179 C113.515,29.176 114.224,30.203 114.656,31.317 ZM110.941,34.563 L110.941,34.692 C110.948,37.392 111.786,38.826 112.771,38.824 C113.734,38.821 114.714,37.361 114.707,34.704 L114.707,34.553 C114.700,31.895 113.711,30.419 112.749,30.422 C111.764,30.424 110.934,31.884 110.941,34.563 ZM106.485,40.705 L106.455,29.388 L107.803,29.384 L107.833,40.701 L106.485,40.705 ZM106.423,25.574 L107.814,25.570 L107.819,27.327 L106.428,27.330 L106.423,25.574 ZM102.627,13.946 L102.626,13.517 C102.613,8.609 104.725,6.095 107.271,6.089 C108.063,6.087 108.620,6.256 109.156,6.555 L109.159,8.034 C108.517,7.650 107.939,7.437 107.297,7.439 C105.542,7.444 104.028,9.441 104.039,13.492 L104.040,13.963 C104.051,18.207 105.533,20.090 107.309,20.085 C107.630,20.084 107.822,20.041 108.122,19.932 L108.107,14.574 L106.117,14.580 L106.114,13.315 L109.388,13.306 L109.408,20.808 C108.595,21.218 108.040,21.348 107.226,21.349 C104.723,21.356 102.641,18.961 102.627,13.946 ZM104.427,30.958 C103.806,30.639 103.206,30.490 102.564,30.492 C101.751,30.494 101.153,31.010 101.155,31.846 L101.156,31.889 C101.158,32.596 101.523,33.130 102.831,34.414 C104.355,35.931 104.935,36.851 104.938,38.072 L104.938,38.115 C104.943,39.809 103.640,40.863 102.142,40.867 C101.308,40.869 100.601,40.678 99.873,40.337 L99.869,38.987 C100.662,39.391 101.433,39.647 102.118,39.645 C102.952,39.643 103.614,39.084 103.612,38.184 L103.612,38.141 C103.610,37.433 103.223,36.748 101.957,35.552 C100.434,34.098 99.832,33.178 99.829,31.956 L99.829,31.913 C99.824,30.242 101.063,29.253 102.561,29.249 C103.288,29.247 103.823,29.352 104.424,29.608 L104.427,30.958 ZM96.384,39.639 C97.090,39.637 97.604,39.421 98.351,38.926 L98.483,40.212 C97.671,40.707 97.094,40.902 96.195,40.904 C94.248,40.909 92.531,39.027 92.521,35.319 L92.520,35.019 C92.510,31.183 93.982,29.250 95.693,29.245 C97.448,29.241 98.716,31.230 98.725,34.810 L98.728,35.667 L93.849,35.680 C93.942,38.381 95.036,39.643 96.384,39.639 ZM97.440,34.556 C97.434,32.134 96.724,30.464 95.697,30.467 C94.691,30.470 93.903,31.822 93.846,34.566 L97.440,34.556 ZM95.456,20.159 C96.162,20.157 96.675,19.941 97.423,19.447 L97.554,20.733 C96.743,21.228 96.165,21.422 95.267,21.425 C93.320,21.430 91.602,19.548 91.593,15.840 L91.592,15.540 C91.582,11.703 93.053,9.771 94.765,9.766 C96.520,9.761 97.788,11.751 97.797,15.331 L97.799,16.188 L92.921,16.201 C93.013,18.901 94.108,20.163 95.456,20.159 ZM96.512,15.077 C96.506,12.655 95.795,10.985 94.768,10.987 C93.763,10.990 92.974,12.343 92.918,15.086 L96.512,15.077 ZM86.288,40.759 L84.341,40.764 L84.301,25.760 L86.248,25.755 C89.180,25.747 91.176,28.228 91.189,33.029 L91.190,33.458 C91.203,38.259 89.220,40.751 86.288,40.759 ZM89.777,33.033 C89.766,28.918 88.263,27.015 86.316,27.020 L85.695,27.022 L85.728,39.496 L86.370,39.494 C88.361,39.488 89.789,37.577 89.778,33.462 L89.777,33.033 ZM88.486,6.139 L89.834,6.135 L89.874,21.268 L88.526,21.271 L88.486,6.139 ZM83.499,21.477 C81.723,21.482 80.220,19.385 80.211,15.806 L80.210,15.485 C80.201,11.905 81.693,9.801 83.490,9.796 C85.266,9.791 86.769,11.888 86.779,15.467 L86.779,15.789 C86.789,19.368 85.297,21.473 83.499,21.477 ZM85.430,15.449 C85.423,12.684 84.563,11.015 83.471,11.017 C82.380,11.020 81.529,12.694 81.536,15.459 L81.537,15.803 C81.545,18.567 82.404,20.258 83.496,20.255 C84.587,20.252 85.439,18.557 85.431,15.792 L85.430,15.449 ZM75.754,21.498 C74.835,21.501 74.021,21.224 73.142,20.754 L73.138,19.233 C74.146,19.852 74.981,20.150 75.687,20.148 C76.821,20.145 77.590,19.435 77.587,18.214 L77.587,18.171 C77.583,17.078 77.196,16.350 75.650,14.339 C73.696,11.837 73.138,10.960 73.134,9.459 L73.134,9.416 C73.128,7.466 74.516,6.112 76.249,6.107 C77.169,6.105 77.833,6.317 78.541,6.722 L78.544,8.244 C77.729,7.710 77.044,7.455 76.338,7.457 C75.290,7.460 74.521,8.212 74.524,9.327 L74.524,9.370 C74.527,10.377 74.935,11.083 76.482,13.008 C78.371,15.318 78.973,16.453 78.977,18.103 L78.977,18.146 C78.983,20.161 77.574,21.493 75.754,21.498 Z"/>
</g>
<g filter="url(#Filter_1)">
<path fill-rule="evenodd"  fill="rgb(32, 86, 133)"
 d="M218.858,85.206 L206.936,73.259 L109.429,170.972 L11.923,73.259 L0.001,85.206 L97.507,182.919 L0.001,280.631 L11.923,292.579 L109.429,194.866 L206.936,292.579 L218.858,280.631 L121.351,182.919 L218.858,85.206 Z"/>
</g>
</svg>
