<?xml version="1.0" encoding="utf-8"?>
<!-- Generator: Adobe Illustrator 21.1.0, SVG Export Plug-In . SVG Version: 6.00 Build 0)  -->
<svg version="1.1" id="Layer_1" xmlns="http://www.w3.org/2000/svg" xmlns:xlink="http://www.w3.org/1999/xlink" x="0px" y="0px"
	 viewBox="0 0 222 298" style="enable-background:new 0 0 222 298;" xml:space="preserve">
<style type="text/css">
	.st0{filter:url(#Filter_0);}
	.st1{fill:#ECECEC;}
	.st2{filter:url(#Filter_1);}
	.st3{fill:#205685;}
</style>
<filter  filterUnits="userSpaceOnUse" height="186px" id="Filter_1" width="191px" x="16px" y="89px">
	<feOffset  dx="0" dy="3" in="SourceAlpha"></feOffset>
	<feGaussianBlur  result="blurOut" stdDeviation="1.414"></feGaussianBlur>
	<feFlood  flood-color="rgb(0, 0, 0)" result="floodOut"></feFlood>
	<feComposite  in="floodOut" in2="blurOut" operator="atop"></feComposite>
	<feComponentTransfer>
		<feFuncA  slope="0.18" type="linear"></feFuncA>
	</feComponentTransfer>
	<feMerge>
		<feMergeNode></feMergeNode>
		<feMergeNode  in="SourceGraphic"></feMergeNode>
	</feMerge>
</filter>
<filter  id="Filter_0">
	<feOffset  dx="0" dy="1" in="SourceAlpha"></feOffset>
	<feGaussianBlur  result="blurOut" stdDeviation="3"></feGaussianBlur>
	<feFlood  flood-color="rgb(0, 0, 0)" result="floodOut"></feFlood>
	<feComposite  in="floodOut" in2="blurOut" operator="out" result="compOut"></feComposite>
	<feComposite  in="compOut" in2="SourceAlpha" operator="in"></feComposite>
	<feComponentTransfer>
		<feFuncA  slope="0.29" type="linear"></feFuncA>
	</feComponentTransfer>
	<feBlend  in2="SourceGraphic" mode="multiply"></feBlend>
</filter>
<g class="st0">
	<path class="st1" d="M213.8,258.3l0,0.7l-0.2,0.7c-0.2,0.6-5.9,15.2-33,15.2c-1,0-2,0-3-0.1c-14.8,12.8-43.5,17.6-66.1,17.8
		c-0.5,0-0.9,0-1.4,0c-27.1,0-50.3-5.9-63.6-15.9c-0.9,0-1.8,0.1-2.7,0.1c-29.6,0-35.8-15.8-36-16.5l-0.3-0.7l0-0.8
		c-3.4-60.5,46.6-79.3,47.1-79.5c-1.3-30.8-0.5-51.2,1.1-64.6c0.5-8.5,5.8-60.3,55.4-61.6c24.8-0.6,42.4,16.6,50.3,41.5
		c1.1,2.8,2.4,7.3,3.4,14.3c0.4,2.3,0.7,4.5,0.9,6.9c0,0,0,0-0.1,0c1.3,13.2,1.9,33.1,0.4,63l5.2,2.4
		C171.6,181.3,216.9,202.9,213.8,258.3z M104,282.9c2.4,0.1,4.8,0.1,7.3,0.1c2,0,4-0.1,5.9-0.2l26.1-67.1l-21.9,0.3L110.9,246
		L99.9,216l-22.1-0.3L104,282.9z M127.4,188.2c3.1-4.8,6.2-9.6,8.7-13.5c-0.8-1.2-2-3.3-3-6.5c-6.3,6.1-13.8,9.7-22.4,9.7
		c-8.5,0-15.8-3.3-21.8-8.8c-1,3.1-2.2,5.2-3,6.4c7.7,12,17.1,26.7,20.6,32.2h0.7l3.6,9.9l2.4-6.7l0,0c0.3-0.9,0.9-1.8,1.6-2.9
		c0.8-1.2,1.8-2.9,3.1-5C120.4,199,123.9,193.6,127.4,188.2z M67.8,118.7c-1.4-0.2-2.8-0.4-4.3-0.7c-1.7,5.8-1,14.4,9.4,25.1
		C70.4,135.4,68.6,127.1,67.8,118.7z M76,178l-13.5,27.9l31.6,0.4L76,178L76,178z M125.1,95.1c-7.7,7.5-24.1,23.1-47.5,24
		c2.8,25.4,15,49.2,33.1,49.2c19.2,0,31.7-26.9,33.5-54C136.2,111.9,128.3,106.5,125.1,95.1z M157.1,116.3c-1.1,0-2.3-0.1-3.5-0.1
		c-0.7,9.4-2.6,18.7-5.6,27.1C159.8,131.4,159.4,122,157.1,116.3z M145.3,178.1c-6.3,9.7-13.4,20.8-18.2,28.2l31.6-0.4L145.3,178.1z
		 M174.7,248.7c-15.1,7.8-34.4,5.5-34.7,5.5v5.7c0.9,0.1,2.6,0.2,4.9,0.2c6.7,0,18.4-0.8,29.8-5.4V248.7z M142.8,15.7v-0.3
		c0-3.8,1.6-5.7,3.5-5.7c0.6,0,1,0.1,1.4,0.4l0,1.4c-0.4-0.3-0.8-0.5-1.3-0.5c-1,0-2.2,1.3-2.2,4.3l0,0.4c0,3.1,1.1,4.3,2.3,4.3
		c0.4,0,0.9-0.2,1.3-0.5l0,1.4c-0.4,0.3-0.8,0.5-1.4,0.5C144.4,21.3,142.8,19.5,142.8,15.7z M139.7,9.8l1.3,0l0,11.3l-1.3,0
		L139.7,9.8z M139.7,6l1.4,0l0,1.8l-1.4,0L139.7,6z M133.5,40.6l0-11.3l1.3,0l0,1.6c0.4-1,1.2-1.8,2.4-1.7l0,1.5l0,0
		c-1.3,0-2.4,0.9-2.4,2.8l0,7.2L133.5,40.6z M136.3,13.3c0-1.6-0.6-2.5-1.6-2.5c-1,0-1.8,1-1.8,2.6l0,7.7l-1.3,0l0-15.1l1.3,0l0,5.4
		c0.4-0.9,1.1-1.8,2.2-1.8c1.5,0,2.5,1.3,2.5,3.4l0,8.1l-1.3,0L136.3,13.3z M131.8,35.6l-4.9,0c0.1,2.7,1.2,4,2.5,4
		c0.7,0,1.2-0.2,2-0.7l0.1,1.3c-0.8,0.5-1.4,0.7-2.3,0.7c-1.9,0-3.7-1.9-3.7-5.6l0-0.3c0-3.8,1.5-5.8,3.2-5.8c1.8,0,3,2,3,5.6
		L131.8,35.6z M128.8,30.4c-1,0-1.8,1.4-1.9,4.1l3.6,0C130.6,32,129.8,30.4,128.8,30.4z M127.2,21.4c-1.1,0-1.8-1-2.3-2.1l0,4.7
		l-1.3,0l0-14.1l1.3,0l0,2c0.4-1.1,1.1-2.2,2.3-2.2c1.5,0,2.8,1.8,2.8,5.6l0,0.6C130,19.5,128.7,21.4,127.2,21.4z M128.6,15.3
		c0-2.8-0.8-4.4-1.8-4.4c-1,0-1.9,1.5-1.9,4.3l0,0.6c0,2.8,1,4.3,2,4.3c1,0,1.8-1.6,1.8-4.4L128.6,15.3z M124.1,40.7l-1.3,0l0-7.9
		c0-1.6-0.6-2.5-1.6-2.5c-1,0-1.8,1-1.8,2.6l0,7.7l-1.3,0l0-11.3l1.3,0l0,1.6c0.4-0.9,1.1-1.8,2.2-1.8c1.5,0,2.5,1.3,2.5,3.4
		L124.1,40.7z M120.3,19.7c-0.4,1.1-1.1,1.7-2.2,1.7c-1.4,0-2.5-1.4-2.5-3.4l0-0.2c0-2.2,1.1-3.6,2.8-3.6c0.7,0,1.3,0.2,1.8,0.4
		l0-1.2c0-1.5-0.7-2.3-2-2.3c-0.7,0-1.4,0.2-2,0.5l0-1.3c0.7-0.3,1.3-0.5,2.2-0.5c2,0,3.2,1.2,3.2,3.4l0,8l-1.3,0L120.3,19.7z
		 M120.3,15.6c-0.5-0.2-1-0.4-1.6-0.4c-1.2,0-1.8,1-1.8,2.4v0.2c0,1.4,0.6,2.4,1.5,2.4c1.1,0,1.8-1.1,1.8-2.4L120.3,15.6z M112.7,14
		l0,7.2l-1.3,0l0-11.3l1.3,0l0,1.6c0.4-1,1.2-1.8,2.4-1.7l0,1.5h0C113.8,11.3,112.7,12.2,112.7,14z M114.7,31.3l0-2l1.3,0l0,10.8
		c0,2.3-1.3,3.3-3.5,3.4c-0.9,0-1.7-0.1-2.5-0.4l0-1.3c0.8,0.3,1.7,0.5,2.4,0.5c1.4,0,2.2-0.6,2.2-2.2l0-2.2
		c-0.4,1.1-1.1,2.1-2.3,2.2c-1.5,0-2.8-1.7-2.8-5.4v-0.2c0-3.6,1.3-5.4,2.8-5.4C113.5,29.2,114.2,30.2,114.7,31.3z M110.9,34.6v0.1
		c0,2.7,0.8,4.1,1.8,4.1c1,0,1.9-1.5,1.9-4.1v-0.2c0-2.7-1-4.1-2-4.1C111.8,30.4,110.9,31.9,110.9,34.6z M106.5,40.7l0-11.3l1.3,0
		l0,11.3L106.5,40.7z M106.4,25.6l1.4,0l0,1.8l-1.4,0L106.4,25.6z M102.6,13.9l0-0.4c0-4.9,2.1-7.4,4.6-7.4c0.8,0,1.3,0.2,1.9,0.5
		l0,1.5c-0.6-0.4-1.2-0.6-1.9-0.6c-1.8,0-3.3,2-3.3,6.1l0,0.5c0,4.2,1.5,6.1,3.3,6.1c0.3,0,0.5,0,0.8-0.2l0-5.4l-2,0l0-1.3l3.3,0
		l0,7.5c-0.8,0.4-1.4,0.5-2.2,0.5C104.7,21.4,102.6,19,102.6,13.9z M104.4,31c-0.6-0.3-1.2-0.5-1.9-0.5c-0.8,0-1.4,0.5-1.4,1.4l0,0
		c0,0.7,0.4,1.2,1.7,2.5c1.5,1.5,2.1,2.4,2.1,3.7v0c0,1.7-1.3,2.7-2.8,2.8c-0.8,0-1.5-0.2-2.3-0.5l0-1.4c0.8,0.4,1.6,0.7,2.2,0.7
		c0.8,0,1.5-0.6,1.5-1.5v0c0-0.7-0.4-1.4-1.7-2.6c-1.5-1.5-2.1-2.4-2.1-3.6v0c0-1.7,1.2-2.7,2.7-2.7c0.7,0,1.3,0.1,1.9,0.4L104.4,31
		z M96.4,39.6c0.7,0,1.2-0.2,2-0.7l0.1,1.3c-0.8,0.5-1.4,0.7-2.3,0.7c-1.9,0-3.7-1.9-3.7-5.6l0-0.3c0-3.8,1.5-5.8,3.2-5.8
		c1.8,0,3,2,3,5.6l0,0.9l-4.9,0C93.9,38.4,95,39.6,96.4,39.6z M97.4,34.6c0-2.4-0.7-4.1-1.7-4.1c-1,0-1.8,1.4-1.9,4.1L97.4,34.6z
		 M95.5,20.2c0.7,0,1.2-0.2,2-0.7l0.1,1.3c-0.8,0.5-1.4,0.7-2.3,0.7c-1.9,0-3.7-1.9-3.7-5.6l0-0.3c0-3.8,1.5-5.8,3.2-5.8
		c1.8,0,3,2,3,5.6l0,0.9l-4.9,0C93,18.9,94.1,20.2,95.5,20.2z M96.5,15.1c0-2.4-0.7-4.1-1.7-4.1c-1,0-1.8,1.4-1.8,4.1L96.5,15.1z
		 M86.3,40.8l-1.9,0l0-15l1.9,0c2.9,0,4.9,2.5,4.9,7.3l0,0.4C91.2,38.3,89.2,40.8,86.3,40.8z M89.8,33c0-4.1-1.5-6-3.5-6l-0.6,0
		l0,12.5l0.6,0c2,0,3.4-1.9,3.4-6L89.8,33z M88.5,6.1l1.3,0l0,15.1l-1.3,0L88.5,6.1z M83.5,21.5c-1.8,0-3.3-2.1-3.3-5.7l0-0.3
		c0-3.6,1.5-5.7,3.3-5.7c1.8,0,3.3,2.1,3.3,5.7v0.3C86.8,19.4,85.3,21.5,83.5,21.5z M85.4,15.4c0-2.8-0.9-4.4-2-4.4
		c-1.1,0-1.9,1.7-1.9,4.4l0,0.3c0,2.8,0.9,4.5,2,4.5c1.1,0,1.9-1.7,1.9-4.5L85.4,15.4z M75.8,21.5c-0.9,0-1.7-0.3-2.6-0.7l0-1.5
		c1,0.6,1.8,0.9,2.5,0.9c1.1,0,1.9-0.7,1.9-1.9v0c0-1.1-0.4-1.8-1.9-3.8c-2-2.5-2.5-3.4-2.5-4.9v0c0-2,1.4-3.3,3.1-3.3
		c0.9,0,1.6,0.2,2.3,0.6l0,1.5c-0.8-0.5-1.5-0.8-2.2-0.8c-1,0-1.8,0.8-1.8,1.9v0c0,1,0.4,1.7,2,3.6c1.9,2.3,2.5,3.4,2.5,5.1v0
		C79,20.2,77.6,21.5,75.8,21.5z"/>
</g>
<g class="st2">
	<path class="st3" d="M197.9,94.1l-5.1-5.1l-83.3,83.4L26.2,89l-5.1,5.1l83.3,83.4L16,265.9l5.1,5.1l88.4-88.5L198,271l5.1-5.1
		l-88.4-88.5L197.9,94.1z"/>
</g>
</svg>
