<svg
 xmlns="http://www.w3.org/2000/svg"
 xmlns:xlink="http://www.w3.org/1999/xlink"
 width="48px" height="40px">
<path fill-rule="evenodd"  fill="rgb(245, 130, 32)"
 d="M47.000,40.000 L23.000,40.000 L1.000,40.000 C0.447,40.000 0.000,39.553 0.000,39.000 L0.000,11.000 C0.000,10.866 0.027,10.736 0.078,10.615 C0.129,10.493 0.202,10.383 0.295,10.291 L10.291,0.295 C10.383,0.202 10.493,0.129 10.615,0.078 C10.736,0.027 10.866,-0.000 11.000,-0.000 L23.000,-0.000 L37.000,-0.000 C37.134,-0.000 37.264,0.027 37.385,0.078 C37.507,0.129 37.617,0.202 37.709,0.295 L47.705,10.291 C47.798,10.383 47.871,10.493 47.922,10.615 C47.973,10.736 48.000,10.866 48.000,11.000 L48.000,39.000 C48.000,39.553 47.553,40.000 47.000,40.000 ZM10.000,3.414 L3.414,10.000 L10.000,10.000 L10.000,3.414 ZM22.000,2.000 L12.000,2.000 L12.000,11.000 C12.000,11.553 11.553,12.000 11.000,12.000 L2.000,12.000 L2.000,38.000 L22.000,38.000 L22.000,2.000 ZM38.000,3.414 L38.000,10.000 L44.586,10.000 L38.000,3.414 ZM46.000,12.000 L37.000,12.000 C36.447,12.000 36.000,11.553 36.000,11.000 L36.000,2.000 L24.000,2.000 L24.000,38.000 L46.000,38.000 L46.000,12.000 Z"/>
</svg>
