<svg
 xmlns="http://www.w3.org/2000/svg"
 xmlns:xlink="http://www.w3.org/1999/xlink"
 width="96px" height="80px">
<path fill-rule="evenodd"  fill="rgb(245, 130, 32)"
 d="M94.000,80.000 L93.594,80.000 L46.000,80.000 L45.666,80.000 L2.000,80.000 C0.895,80.000 0.000,79.106 0.000,78.000 L0.000,22.000 C0.000,21.733 0.054,21.472 0.155,21.231 C0.257,20.986 0.404,20.767 0.588,20.584 L20.583,0.588 C20.767,0.404 20.986,0.257 21.230,0.155 C21.472,0.054 21.733,-0.000 22.000,-0.000 L46.000,-0.000 L74.000,-0.000 C74.267,-0.000 74.528,0.054 74.770,0.155 C75.014,0.257 75.233,0.404 75.416,0.588 L95.412,20.584 C95.596,20.767 95.743,20.986 95.845,21.231 C95.946,21.472 96.000,21.733 96.000,22.000 L96.000,78.000 C96.000,79.106 95.106,80.000 94.000,80.000 ZM20.000,6.828 L6.828,20.000 L20.000,20.000 L20.000,6.828 ZM43.666,4.000 L24.000,4.000 L24.000,22.000 C24.000,23.106 23.106,24.000 22.000,24.000 L4.000,24.000 L4.000,76.000 L43.666,76.000 L43.666,4.000 ZM76.000,7.307 L76.000,20.000 L88.693,20.000 L76.000,7.307 ZM91.594,24.072 L73.856,24.072 C72.750,24.072 71.856,23.177 71.856,22.072 L71.856,4.334 L48.000,4.334 L48.000,76.000 L91.594,76.000 L91.594,24.072 ZM51.762,43.102 L57.180,43.102 C58.285,43.102 59.180,43.996 59.180,45.102 C59.180,46.207 58.285,47.102 57.180,47.102 L51.762,47.102 C50.656,47.102 49.762,46.207 49.762,45.102 C49.762,43.996 50.656,43.102 51.762,43.102 ZM51.762,52.973 L57.180,52.973 C58.285,52.973 59.180,53.867 59.180,54.973 C59.180,56.078 58.285,56.973 57.180,56.973 L51.762,56.973 C50.656,56.973 49.762,56.078 49.762,54.973 C49.762,53.867 50.656,52.973 51.762,52.973 ZM51.762,62.840 L57.180,62.840 C58.285,62.840 59.180,63.734 59.180,64.840 C59.180,65.945 58.285,66.840 57.180,66.840 L51.762,66.840 C50.656,66.840 49.762,65.945 49.762,64.840 C49.762,63.734 50.656,62.840 51.762,62.840 ZM73.856,43.102 C80.402,43.102 85.726,48.426 85.726,54.973 C85.726,61.516 80.402,66.840 73.856,66.840 C67.308,66.840 61.984,61.516 61.984,54.973 C61.984,48.426 67.308,43.102 73.856,43.102 ZM73.856,62.840 C78.195,62.840 81.726,59.313 81.726,54.973 C81.726,51.328 79.224,48.282 75.856,47.391 L75.856,54.973 C75.856,55.539 75.613,56.082 75.192,56.461 L69.540,61.540 C70.781,62.357 72.262,62.840 73.856,62.840 ZM66.885,58.549 L71.856,54.082 L71.856,47.391 C68.487,48.282 65.984,51.328 65.984,54.973 C65.984,56.267 66.329,57.471 66.885,58.549 ZM78.789,37.232 L53.180,37.232 C52.074,37.232 51.180,36.338 51.180,35.232 C51.180,34.127 52.074,33.232 53.180,33.232 L78.789,33.232 C79.894,33.232 80.789,34.127 80.789,35.232 C80.789,36.338 79.894,37.232 78.789,37.232 ZM65.629,27.363 L53.180,27.363 C52.074,27.363 51.180,26.469 51.180,25.363 C51.180,24.258 52.074,23.363 53.180,23.363 L65.629,23.363 C66.734,23.363 67.629,24.258 67.629,25.363 C67.629,26.469 66.734,27.363 65.629,27.363 ZM11.182,33.232 L36.789,33.232 C37.895,33.232 38.789,34.127 38.789,35.232 C38.789,36.338 37.895,37.232 36.789,37.232 L11.182,37.232 C10.076,37.232 9.182,36.338 9.182,35.232 C9.182,34.127 10.076,33.232 11.182,33.232 ZM11.182,42.898 L36.789,42.898 C37.895,42.898 38.789,43.793 38.789,44.898 C38.789,46.004 37.895,46.898 36.789,46.898 L11.182,46.898 C10.076,46.898 9.182,46.004 9.182,44.898 C9.182,43.793 10.076,42.898 11.182,42.898 ZM11.182,52.566 L36.789,52.566 C37.895,52.566 38.789,53.461 38.789,54.566 C38.789,55.672 37.895,56.567 36.789,56.567 L11.182,56.567 C10.076,56.567 9.182,55.672 9.182,54.566 C9.182,53.461 10.076,52.566 11.182,52.566 ZM11.182,62.231 L36.789,62.231 C37.895,62.231 38.789,63.125 38.789,64.230 C38.789,65.336 37.895,66.230 36.789,66.230 L11.182,66.230 C10.076,66.230 9.182,65.336 9.182,64.230 C9.182,63.125 10.076,62.231 11.182,62.231 Z"/>
</svg>
