<svg
 xmlns="http://www.w3.org/2000/svg"
 xmlns:xlink="http://www.w3.org/1999/xlink"
 width="48px" height="48px">
<path fill-rule="evenodd"  fill="rgb(245, 130, 32)"
 d="M47.000,44.000 L46.000,44.000 L46.000,47.000 C46.000,47.553 45.553,48.000 45.000,48.000 L3.000,48.000 C2.447,48.000 2.000,47.553 2.000,47.000 L2.000,44.000 L1.000,44.000 C0.447,44.000 -0.000,43.553 -0.000,43.000 L-0.000,37.000 C-0.000,34.242 2.243,32.000 5.000,32.000 L14.692,32.000 C21.279,27.414 18.254,20.734 15.816,15.354 C14.802,13.112 14.000,11.342 14.000,9.933 C14.000,3.411 19.029,0.000 23.997,0.000 C28.969,0.000 34.000,3.411 34.000,9.933 C34.000,11.335 33.201,13.102 32.191,15.338 C29.758,20.730 26.734,27.424 33.309,32.000 L43.000,32.000 C45.758,32.000 48.000,34.242 48.000,37.000 L48.000,43.000 C48.000,43.553 47.553,44.000 47.000,44.000 ZM4.000,46.000 L44.000,46.000 L44.000,44.000 L4.000,44.000 L4.000,46.000 ZM46.000,37.000 C46.000,35.345 44.654,34.000 43.000,34.000 L33.000,34.000 C32.803,34.000 32.611,33.941 32.447,33.832 C24.139,28.312 27.889,20.010 30.369,14.516 C31.207,12.658 32.000,10.904 32.000,9.933 C32.000,4.483 27.852,2.000 23.997,2.000 C20.146,2.000 16.000,4.483 16.000,9.933 C16.000,10.910 16.796,12.668 17.639,14.529 C20.123,20.013 23.877,28.302 15.554,33.832 C15.390,33.941 15.197,34.000 15.000,34.000 L5.000,34.000 C3.346,34.000 2.000,35.345 2.000,37.000 L2.000,42.000 L46.000,42.000 L46.000,37.000 Z"/>
</svg>
