<svg
 xmlns="http://www.w3.org/2000/svg"
 xmlns:xlink="http://www.w3.org/1999/xlink"
 width="96px" height="96px">
<path fill-rule="evenodd"  fill="rgb(245, 130, 32)"
 d="M95.295,61.406 L65.345,91.414 C65.117,91.643 64.844,91.784 64.557,91.878 C64.530,91.888 64.511,91.914 64.484,91.922 L50.509,95.922 C50.330,95.976 50.144,96.000 49.961,96.000 C49.439,96.000 48.930,95.793 48.550,95.414 C48.037,94.902 47.842,94.148 48.041,93.449 L52.035,79.449 C52.043,79.421 52.069,79.403 52.079,79.375 C52.173,79.088 52.314,78.814 52.542,78.586 L82.491,48.578 C83.271,47.797 84.534,47.797 85.314,48.578 L95.295,58.578 C96.074,59.359 96.074,60.625 95.295,61.406 ZM52.865,91.090 L60.124,89.011 L54.941,83.817 L52.865,91.090 ZM56.776,80.000 L63.934,87.172 L83.076,67.992 L75.918,60.820 L56.776,80.000 ZM83.903,52.820 L78.741,57.992 L85.899,65.164 L91.060,59.992 L83.903,52.820 ZM65.930,56.000 C64.826,56.000 63.934,55.106 63.934,54.000 L63.934,24.000 L45.969,24.000 C44.865,24.000 43.973,23.106 43.973,22.000 L43.973,4.000 L4.051,4.000 L4.051,84.000 L43.973,84.000 C45.076,84.000 45.969,84.895 45.969,86.000 C45.969,87.106 45.076,88.000 43.973,88.000 L2.055,88.000 C0.951,88.000 0.059,87.106 0.059,86.000 L0.059,2.000 C0.059,0.894 0.951,0.000 2.055,0.000 L45.969,0.000 C46.236,0.000 46.496,0.054 46.737,0.155 C46.980,0.257 47.199,0.404 47.382,0.588 L67.339,20.584 C67.522,20.767 67.670,20.986 67.771,21.230 C67.872,21.471 67.926,21.733 67.926,22.000 L67.926,54.000 C67.926,55.106 67.033,56.000 65.930,56.000 ZM47.965,6.828 L47.965,20.000 L61.111,20.000 L47.965,6.828 ZM13.955,60.000 L33.916,60.000 C35.020,60.000 35.912,60.894 35.912,62.000 C35.912,63.105 35.020,64.000 33.916,64.000 L13.955,64.000 C12.852,64.000 11.959,63.105 11.959,62.000 C11.959,60.894 12.852,60.000 13.955,60.000 ZM13.955,48.000 L37.908,48.000 C39.012,48.000 39.905,48.894 39.905,50.000 C39.905,51.106 39.012,52.000 37.908,52.000 L13.955,52.000 C12.852,52.000 11.959,51.106 11.959,50.000 C11.959,48.894 12.852,48.000 13.955,48.000 ZM13.955,28.000 C12.852,28.000 11.959,27.106 11.959,26.000 C11.959,24.894 12.852,24.000 13.955,24.000 L31.920,24.000 C33.023,24.000 33.916,24.894 33.916,26.000 C33.916,27.106 33.023,28.000 31.920,28.000 L13.955,28.000 ZM13.955,40.000 C12.852,40.000 11.959,39.106 11.959,38.000 C11.959,36.894 12.852,36.000 13.955,36.000 L45.893,36.000 C46.996,36.000 47.889,36.894 47.889,38.000 C47.889,39.106 46.996,40.000 45.893,40.000 L13.955,40.000 Z"/>
</svg>
