<svg
 xmlns="http://www.w3.org/2000/svg"
 xmlns:xlink="http://www.w3.org/1999/xlink"
 width="35px" height="48px">
<path fill-rule="evenodd"  fill="rgb(255,255,255)"
 d="M33.883,47.794 C33.760,47.845 33.629,47.870 33.500,47.870 C33.240,47.870 32.984,47.769 32.793,47.578 L29.500,44.298 L26.207,47.578 C25.816,47.967 25.184,47.967 24.793,47.578 L21.500,44.298 L18.207,47.578 C17.816,47.967 17.184,47.967 16.793,47.578 L13.500,44.298 L10.207,47.578 C9.816,47.967 9.184,47.967 8.793,47.578 L5.500,44.298 L2.207,47.578 C1.920,47.864 1.489,47.948 1.117,47.794 C0.743,47.640 0.500,47.277 0.500,46.874 L0.500,1.046 C0.500,0.643 0.743,0.279 1.117,0.126 C1.491,-0.028 1.922,0.056 2.207,0.341 L5.500,3.622 L8.793,0.341 C9.184,-0.048 9.816,-0.048 10.207,0.341 L13.500,3.622 L16.793,0.341 C17.184,-0.048 17.816,-0.048 18.207,0.341 L21.500,3.622 L24.793,0.341 C25.184,-0.048 25.816,-0.048 26.207,0.341 L29.500,3.622 L32.793,0.341 C33.080,0.056 33.512,-0.029 33.883,0.126 C34.256,0.279 34.500,0.643 34.500,1.046 L34.500,46.874 C34.500,47.277 34.256,47.640 33.883,47.794 ZM32.500,3.451 L30.207,5.735 C29.816,6.124 29.184,6.124 28.793,5.735 L25.500,2.455 L22.207,5.735 C21.816,6.124 21.184,6.124 20.793,5.735 L17.500,2.455 L14.207,5.735 C13.816,6.124 13.184,6.124 12.793,5.735 L9.500,2.455 L6.207,5.735 C5.816,6.124 5.184,6.124 4.793,5.735 L2.500,3.451 L2.500,44.469 L4.793,42.185 C5.184,41.795 5.816,41.795 6.207,42.185 L9.500,45.465 L12.793,42.185 C13.184,41.795 13.816,41.795 14.207,42.185 L17.500,45.465 L20.793,42.185 C20.988,41.990 21.244,41.893 21.500,41.893 C21.756,41.893 22.012,41.990 22.207,42.185 L25.500,45.465 L28.793,42.185 C29.184,41.795 29.816,41.795 30.207,42.185 L32.500,44.469 L32.500,3.451 ZM24.500,27.945 C26.705,27.945 28.500,29.733 28.500,31.930 C28.500,34.127 26.705,35.915 24.500,35.915 L24.500,36.911 C24.500,37.462 24.053,37.908 23.500,37.908 C22.947,37.908 22.500,37.462 22.500,36.911 L22.500,35.360 C21.310,34.669 20.500,33.398 20.500,31.930 C20.500,31.379 20.947,30.934 21.500,30.934 C22.053,30.934 22.500,31.379 22.500,31.930 C22.500,33.029 23.396,33.923 24.500,33.923 C25.604,33.923 26.500,33.029 26.500,31.930 C26.500,30.830 25.604,29.937 24.500,29.937 C22.295,29.937 20.500,28.149 20.500,25.953 C20.500,23.755 22.295,21.967 24.500,21.967 L24.500,20.971 C24.500,20.420 24.947,19.975 25.500,19.975 C26.053,19.975 26.500,20.420 26.500,20.971 L26.500,22.522 C27.690,23.213 28.500,24.484 28.500,25.953 C28.500,26.503 28.053,26.948 27.500,26.948 C26.947,26.948 26.500,26.503 26.500,25.953 C26.500,24.854 25.604,23.960 24.500,23.960 C23.396,23.960 22.500,24.854 22.500,25.953 C22.500,27.052 23.396,27.945 24.500,27.945 ZM23.500,13.997 L7.500,13.997 C6.947,13.997 6.500,13.552 6.500,13.001 C6.500,12.450 6.947,12.005 7.500,12.005 L23.500,12.005 C24.053,12.005 24.500,12.450 24.500,13.001 C24.500,13.552 24.053,13.997 23.500,13.997 ZM7.500,17.982 L15.500,17.982 C16.053,17.982 16.500,18.428 16.500,18.978 C16.500,19.529 16.053,19.975 15.500,19.975 L7.500,19.975 C6.947,19.975 6.500,19.529 6.500,18.978 C6.500,18.428 6.947,17.982 7.500,17.982 ZM7.500,23.960 L15.500,23.960 C16.053,23.960 16.500,24.405 16.500,24.956 C16.500,25.507 16.053,25.953 15.500,25.953 L7.500,25.953 C6.947,25.953 6.500,25.507 6.500,24.956 C6.500,24.405 6.947,23.960 7.500,23.960 ZM7.500,29.937 L13.500,29.937 C14.053,29.937 14.500,30.383 14.500,30.934 C14.500,31.485 14.053,31.930 13.500,31.930 L7.500,31.930 C6.947,31.930 6.500,31.485 6.500,30.934 C6.500,30.383 6.947,29.937 7.500,29.937 Z"/>
</svg>
