<svg
 xmlns="http://www.w3.org/2000/svg"
 xmlns:xlink="http://www.w3.org/1999/xlink"
 width="43px" height="47px">
<path fill-rule="evenodd"  fill="rgb(255,255,255)"
 d="M38.500,34.377 L38.500,45.490 C38.500,46.044 38.053,46.491 37.500,46.491 L31.500,46.491 C30.947,46.491 30.500,46.044 30.500,45.490 L30.500,34.377 C28.221,33.911 26.500,31.887 26.500,29.471 L26.500,19.458 C26.500,18.905 26.947,18.457 27.500,18.457 L41.500,18.457 C42.053,18.457 42.500,18.905 42.500,19.458 L42.500,29.471 C42.500,31.887 40.779,33.911 38.500,34.377 ZM40.500,20.459 L28.500,20.459 L28.500,29.471 C28.500,31.127 29.846,32.474 31.500,32.474 C32.053,32.474 32.500,32.922 32.500,33.475 L32.500,44.489 L36.500,44.489 L36.500,33.475 C36.500,32.922 36.947,32.474 37.500,32.474 C39.154,32.474 40.500,31.127 40.500,29.471 L40.500,20.459 ZM34.500,16.454 C31.191,16.454 28.500,13.760 28.500,10.447 C28.500,7.134 31.191,4.440 34.500,4.440 C37.809,4.440 40.500,7.134 40.500,10.447 C40.500,13.760 37.809,16.454 34.500,16.454 ZM34.500,6.442 C32.295,6.442 30.500,8.238 30.500,10.447 C30.500,12.656 32.295,14.452 34.500,14.452 C36.705,14.452 38.500,12.656 38.500,10.447 C38.500,8.238 36.705,6.442 34.500,6.442 ZM22.424,17.839 C22.270,18.213 21.904,18.457 21.500,18.457 L2.500,18.457 L2.500,45.490 C2.500,46.044 2.053,46.491 1.500,46.491 C0.947,46.491 0.500,46.044 0.500,45.490 L0.500,17.456 L0.500,5.441 L0.500,1.497 C0.500,0.944 0.947,0.496 1.500,0.496 C2.053,0.496 2.500,0.944 2.500,1.497 L2.500,4.440 L21.500,4.440 C21.904,4.440 22.270,4.683 22.424,5.058 C22.579,5.432 22.493,5.862 22.207,6.149 L16.914,11.448 L22.207,16.748 C22.493,17.034 22.579,17.464 22.424,17.839 ZM14.793,12.156 C14.402,11.765 14.402,11.131 14.793,10.740 L19.086,6.442 L2.500,6.442 L2.500,16.454 L19.086,16.454 L14.793,12.156 Z"/>
</svg>
