<svg
 xmlns="http://www.w3.org/2000/svg"
 xmlns:xlink="http://www.w3.org/1999/xlink"
 width="40px" height="48px">
<path fill-rule="evenodd"  fill="rgb(255,255,255)"
 d="M20.466,47.885 C20.320,47.961 20.160,48.000 20.000,48.000 C19.840,48.000 19.680,47.961 19.534,47.885 C7.485,41.545 -0.000,29.147 -0.000,15.529 L-0.000,1.000 C-0.000,0.447 0.447,0.000 1.000,0.000 L39.000,0.000 C39.553,0.000 40.000,0.447 40.000,1.000 L40.000,15.529 C40.000,29.143 32.516,41.541 20.466,47.885 ZM38.000,2.000 L2.000,2.000 L2.000,15.529 C2.000,28.224 8.884,39.801 20.000,45.865 C31.117,39.797 38.000,28.223 38.000,15.529 L38.000,2.000 ZM16.002,29.000 C15.746,29.000 15.490,28.902 15.295,28.707 L10.295,23.707 C9.904,23.316 9.904,22.684 10.295,22.293 C10.685,21.902 11.318,21.902 11.709,22.293 L16.026,26.610 L30.320,13.269 C30.723,12.892 31.355,12.914 31.732,13.317 C32.109,13.722 32.088,14.354 31.684,14.732 L16.685,28.730 C16.492,28.910 16.247,29.000 16.002,29.000 Z"/>
</svg>
