<svg
 xmlns="http://www.w3.org/2000/svg"
 xmlns:xlink="http://www.w3.org/1999/xlink"
 width="51px" height="47px">
<path fill-rule="evenodd"  fill="rgb(255, 255, 255)"
 d="M49.169,8.500 L46.124,8.500 C46.172,17.285 45.770,36.943 41.332,41.416 C40.620,42.135 39.812,42.500 38.931,42.500 L31.331,42.500 C31.132,43.585 30.752,44.575 30.010,45.309 C29.210,46.100 28.099,46.500 26.705,46.500 L1.282,46.500 C0.719,46.500 0.263,46.053 0.263,45.500 C0.263,44.947 0.719,44.500 1.282,44.500 C2.125,44.500 2.733,44.303 3.142,43.900 C4.110,42.941 4.094,40.717 4.080,38.754 C4.065,36.559 4.050,34.486 5.235,33.314 C5.783,32.773 6.510,32.500 7.395,32.500 L16.742,32.500 C18.794,21.580 18.605,4.687 18.603,4.512 C18.627,3.105 19.305,0.500 21.710,0.500 L47.131,0.500 C49.889,0.500 50.188,5.396 50.188,7.500 C50.188,8.053 49.732,8.500 49.169,8.500 ZM34.659,40.500 C34.078,39.431 34.082,38.149 34.095,36.986 C34.105,36.053 34.115,35.086 33.769,34.744 C33.566,34.543 33.140,34.500 32.817,34.500 C32.381,34.500 32.200,34.629 32.103,34.725 C31.516,35.305 31.530,37.129 31.540,38.740 C31.544,39.315 31.548,39.909 31.529,40.500 L34.659,40.500 ZM7.395,34.500 C6.959,34.500 6.778,34.629 6.681,34.725 C6.094,35.305 6.107,37.129 6.118,38.740 C6.133,40.722 6.148,42.928 5.215,44.500 L26.705,44.500 C27.547,44.500 28.155,44.303 28.565,43.900 C29.532,42.941 29.516,40.717 29.502,38.754 C29.492,37.174 29.488,35.663 29.925,34.500 L17.584,34.500 L7.395,34.500 ZM20.641,4.516 C20.649,5.198 20.829,21.410 18.813,32.500 L32.817,32.500 C33.850,32.500 34.658,32.781 35.217,33.336 C36.160,34.273 36.147,35.664 36.133,37.008 C36.121,38.141 36.107,39.310 36.696,39.895 C37.102,40.297 37.852,40.500 38.931,40.500 C39.046,40.500 39.398,40.500 39.872,40.021 C43.967,35.895 44.258,13.000 44.025,4.527 C44.034,3.959 44.157,3.205 44.444,2.500 L21.710,2.500 C20.735,2.500 20.641,4.496 20.641,4.516 ZM47.117,2.500 L47.093,2.500 C46.155,2.532 46.063,4.499 46.063,4.520 C46.073,4.879 46.089,5.563 46.102,6.500 L48.120,6.500 C47.997,4.424 47.520,2.702 47.117,2.500 ZM38.980,22.500 L24.716,22.500 C24.153,22.500 23.697,22.053 23.697,21.500 C23.697,20.947 24.153,20.500 24.716,20.500 L38.980,20.500 C39.543,20.500 39.999,20.947 39.999,21.500 C39.999,22.053 39.543,22.500 38.980,22.500 ZM38.980,14.500 L27.773,14.500 C27.210,14.500 26.754,14.053 26.754,13.500 C26.754,12.947 27.210,12.500 27.773,12.500 L38.980,12.500 C39.543,12.500 39.999,12.947 39.999,13.500 C39.999,14.053 39.543,14.500 38.980,14.500 ZM29.810,10.500 L25.735,10.500 C25.172,10.500 24.716,10.053 24.716,9.500 C24.716,8.947 25.172,8.500 25.735,8.500 L29.810,8.500 C30.374,8.500 30.829,8.947 30.829,9.500 C30.829,10.053 30.374,10.500 29.810,10.500 ZM37.961,16.500 C38.525,16.500 38.980,16.947 38.980,17.500 C38.980,18.053 38.525,18.500 37.961,18.500 L24.716,18.500 C24.153,18.500 23.697,18.053 23.697,17.500 C23.697,16.947 24.153,16.500 24.716,16.500 L37.961,16.500 ZM24.716,26.500 C24.153,26.500 23.697,26.053 23.697,25.500 C23.697,24.947 24.153,24.500 24.716,24.500 L36.943,24.500 C37.506,24.500 37.961,24.947 37.961,25.500 C37.961,26.053 37.506,26.500 36.943,26.500 L24.716,26.500 ZM37.961,28.500 C38.525,28.500 38.980,28.947 38.980,29.500 C38.980,30.053 38.525,30.500 37.961,30.500 L23.697,30.500 C23.134,30.500 22.678,30.053 22.678,29.500 C22.678,28.947 23.134,28.500 23.697,28.500 L37.961,28.500 Z"/>
</svg>
