<svg
 xmlns="http://www.w3.org/2000/svg"
 xmlns:xlink="http://www.w3.org/1999/xlink"
 width="32px" height="32px">
<path fill-rule="evenodd"  fill="rgb(32, 86, 133)"
 d="M16.000,-0.000 C7.164,-0.000 -0.000,6.269 -0.000,14.000 C-0.000,18.419 2.345,22.354 6.000,24.919 L6.000,32.000 L13.009,27.747 C13.979,27.907 14.977,28.000 16.000,28.000 C24.836,28.000 32.000,21.732 32.000,14.000 C32.000,6.269 24.836,-0.000 16.000,-0.000 "/>
<path fill-rule="evenodd"  fill="rgb(176, 216, 242)"
 d="M16.011,6.000 C11.593,6.000 8.000,9.589 8.000,14.000 C8.000,18.411 11.593,22.000 16.011,22.000 C18.231,22.000 20.314,21.109 21.824,19.486 C22.076,19.211 22.076,18.777 21.801,18.526 C21.527,18.274 21.092,18.274 20.840,18.548 C19.581,19.897 17.865,20.629 16.011,20.629 C12.349,20.629 9.373,17.657 9.373,14.000 C9.373,10.343 12.349,7.372 16.011,7.372 C19.673,7.372 22.648,10.343 22.648,14.000 C22.648,14.686 22.053,15.303 21.366,15.303 C20.680,15.303 20.062,14.709 20.062,14.000 C20.062,11.760 18.231,9.931 15.988,9.931 C13.745,9.931 11.914,11.760 11.914,14.000 C11.914,16.240 13.745,18.069 15.988,18.069 C17.521,18.069 18.849,17.223 19.558,15.966 C20.039,16.400 20.680,16.674 21.343,16.674 C22.785,16.674 23.999,15.463 23.999,14.000 C24.021,9.589 20.428,6.000 16.011,6.000 ZM16.011,16.674 C14.523,16.674 13.310,15.463 13.310,13.977 C13.310,12.492 14.523,11.280 16.011,11.280 C17.498,11.280 18.711,12.492 18.711,13.977 C18.711,15.486 17.498,16.674 16.011,16.674 Z"/>
</svg>
