<?xml version="1.0" encoding="utf-8"?>
<!-- Generator: Adobe Illustrator 21.1.0, SVG Export Plug-In . SVG Version: 6.00 Build 0)  -->
<svg version="1.1" id="Layer_1" xmlns="http://www.w3.org/2000/svg" xmlns:xlink="http://www.w3.org/1999/xlink" x="0px" y="0px"
	 viewBox="0 0 32 31" style="enable-background:new 0 0 32 31;" xml:space="preserve">
<style type="text/css">
	.st0{fill:#FFFFFF;}
</style>
<path class="st0" d="M19.3,16.9c-1.8-1.5-3.4-4-4.4-7.2c0.4-2.1,0.4-3.9,0.4-5.8c0-0.3,0-0.6,0-0.9c0-0.1,0-0.2,0-0.2
	c0.1-0.1,0.1-0.2,0.1-0.2c0.2-1,0.1-1.6-0.3-2.1C14.9,0.2,14.6,0,14.1,0h0h-0.6c-0.6,0-1.1,0.5-1.3,1.2c-0.5,2-0.2,5.4,0.7,8.7
	c-0.7,2.5-1.8,5.2-3.1,7.9c-1.2,2.5-2.3,4.4-3.2,6c0,0,0-0.1-0.1-0.1c-0.2-0.2-0.5-0.3-0.7-0.2c-3.8,2-5.4,4.3-5.7,5.7
	c-0.1,0.6,0,0.9,0.2,1.1c0.1,0.1,0.1,0.1,0.2,0.2l0.7,0.4C1.4,30.9,1.7,31,2,31c1.8,0,4.2-2.6,7.3-7.9C12.6,22,17,21,21.2,20.6
	c2.5,1.3,5.5,2.2,7.4,2.2c1.6,0,2.1-0.6,2.2-1.1v0c0,0,0.1-0.1,0.1-0.1c0.3-0.7,0.2-1.3-0.1-1.6c-0.8-1.2-3.3-1.5-5.4-1.5
	c-1.1,0-2.3,0.1-3.5,0.2C20.9,18.1,20.1,17.5,19.3,16.9z M1.9,29.4c0.5-1,1.9-3,4.1-4.8C4.1,27.6,2.8,28.9,1.9,29.4z M13.9,1.5
	c0,0,0-0.1,0-0.1c0.2,0.2,0.4,0.5,0.4,1.1c0,0.1,0,0.1,0.1,0.2c-0.1,0.1-0.1,0.2-0.1,0.2c-0.1,0.4-0.2,0.8-0.2,1.3
	C14,4.6,14,5,13.9,5.5C13.6,3.8,13.6,2.4,13.9,1.5z M10.2,21.5c0.5-0.8,0.9-1.7,1.4-2.5c1.1-2.1,1.9-4.1,2.5-6c1,2.2,2.4,4,3.8,5.3
	c0.3,0.2,0.6,0.5,0.9,0.7C15.8,19.6,12.9,20.5,10.2,21.5z M29.8,21C29.8,21.1,29.8,21.1,29.8,21c-0.1,0.1-0.2,0.1-0.5,0.1
	c-0.9,0-2.3-0.3-3.8-0.8C28.8,20.3,29.6,20.9,29.8,21z"/>
</svg>
