<svg
 xmlns="http://www.w3.org/2000/svg"
 xmlns:xlink="http://www.w3.org/1999/xlink"
 width="228px" height="41px">
<path fill-rule="evenodd"  fill="rgb(32, 86, 133)"
 d="M225.187,38.269 L224.816,40.781 L223.958,40.781 L224.324,38.303 L222.656,34.662 L223.618,34.662 L224.880,37.419 L227.037,34.662 L227.998,34.662 L225.187,38.269 ZM219.461,35.282 C218.232,35.282 217.254,36.275 217.035,37.752 C216.696,40.051 218.198,40.246 218.674,40.246 C219.176,40.246 219.672,40.059 220.087,39.711 C220.304,39.533 220.419,39.397 220.644,39.049 L221.144,39.653 C220.829,40.076 220.149,40.992 218.582,40.992 C215.837,40.992 216.018,38.430 216.095,37.903 C216.394,35.885 217.783,34.517 219.522,34.517 C221.280,34.517 221.616,35.757 221.651,36.045 L220.912,36.597 C220.812,36.156 220.622,35.282 219.461,35.282 ZM213.355,40.781 L211.201,35.791 L210.463,40.781 L209.615,40.781 L210.520,34.662 L211.672,34.662 L213.718,39.431 L214.424,34.662 L215.282,34.662 L214.377,40.781 L213.355,40.781 ZM206.038,35.383 L205.760,37.259 L208.332,37.259 L208.224,37.989 L205.652,37.989 L205.347,40.051 L208.161,40.051 L208.305,40.781 L204.391,40.781 L205.297,34.662 L209.184,34.662 L208.843,35.383 L206.038,35.383 ZM201.254,35.274 C199.912,35.274 198.963,36.249 198.720,37.886 C198.501,39.372 199.168,40.246 200.510,40.246 C201.401,40.246 201.899,39.806 202.213,39.500 L202.360,38.507 L199.928,38.507 L200.040,37.752 L203.329,37.752 L203.032,39.763 C202.743,40.076 202.620,40.195 202.362,40.365 C201.775,40.763 201.057,40.992 200.382,40.992 C198.547,40.992 197.530,39.788 197.804,37.938 C198.117,35.825 199.488,34.509 201.411,34.509 C202.372,34.509 203.067,35.018 203.405,35.604 L202.802,36.283 C202.495,35.664 201.955,35.274 201.254,35.274 ZM195.536,39.305 L192.384,39.305 L191.500,40.781 L190.626,40.781 L194.267,34.662 L195.029,34.662 L196.851,40.781 L195.985,40.781 L195.536,39.305 ZM194.484,35.757 L192.825,38.549 L195.310,38.549 L194.484,35.757 ZM188.580,25.784 L180.095,9.041 L177.618,25.784 L176.389,25.784 L179.066,7.686 L180.808,7.686 L189.127,24.154 L191.564,7.686 L192.819,7.686 L190.142,25.784 L188.580,25.784 ZM173.911,39.305 L170.760,39.305 L169.876,40.781 L169.001,40.781 L172.642,34.662 L173.405,34.662 L175.226,40.781 L174.360,40.781 L173.911,39.305 ZM172.860,35.757 L171.201,38.549 L173.686,38.549 L172.860,35.757 ZM169.935,25.784 L172.613,7.686 L173.868,7.686 L171.190,25.784 L169.935,25.784 ZM167.199,37.903 L168.332,40.781 L167.414,40.781 L166.314,38.031 L164.755,38.031 L164.349,40.781 L163.492,40.781 L164.397,34.662 L167.046,34.662 C168.181,34.662 168.889,35.366 168.747,36.334 C168.616,37.216 168.099,37.666 167.199,37.903 ZM166.715,35.375 L165.148,35.375 L164.862,37.310 L166.499,37.310 C167.278,37.310 167.753,36.971 167.847,36.334 C167.941,35.697 167.564,35.375 166.715,35.375 ZM157.569,8.816 L156.517,15.919 L164.610,15.919 L164.443,17.049 L156.350,17.049 L155.225,24.654 L164.649,24.654 L164.918,25.784 L153.828,25.784 L156.506,7.686 L167.441,7.686 L166.736,8.816 L157.569,8.816 ZM146.988,8.841 L144.482,25.784 L143.252,25.784 L145.758,8.841 L139.791,8.841 L139.962,7.686 L153.126,7.686 L152.955,8.841 L146.988,8.841 ZM140.821,39.813 C141.088,39.583 141.234,39.244 141.317,38.684 L141.912,34.662 L142.770,34.662 L142.155,38.813 C142.051,39.516 141.816,39.992 141.398,40.357 C140.932,40.763 140.240,40.985 139.444,40.985 C137.964,40.985 137.187,40.212 137.375,38.939 L138.008,34.662 L138.865,34.662 L138.243,38.863 C138.114,39.737 138.597,40.212 139.610,40.212 C140.061,40.212 140.543,40.059 140.821,39.813 ZM131.902,8.339 C129.188,8.339 127.283,9.619 126.985,11.627 C126.755,13.183 127.797,14.113 131.367,15.417 C134.742,16.672 137.215,17.952 136.763,21.015 C136.291,24.203 133.283,26.362 129.364,26.362 C124.934,26.362 123.328,23.023 123.059,21.718 L124.229,20.915 C124.537,22.295 125.411,25.207 129.611,25.207 C132.659,25.207 135.055,23.550 135.408,21.166 C135.764,18.756 133.349,17.601 130.626,16.622 C128.268,15.768 125.229,14.664 125.686,11.577 C126.080,8.916 128.447,7.285 131.930,7.285 C135.439,7.285 136.602,9.117 137.470,10.523 L136.424,11.702 C136.053,10.748 135.053,8.339 131.902,8.339 ZM124.376,39.492 L126.866,34.662 L127.749,34.662 L124.593,40.781 L123.805,40.781 L122.347,34.662 L123.246,34.662 L124.376,39.492 ZM112.148,26.412 C107.820,26.412 105.604,23.902 106.225,19.710 L108.004,7.686 L109.258,7.686 L107.479,19.710 C106.932,23.399 108.674,25.308 112.617,25.308 C116.152,25.308 118.362,23.349 118.890,19.785 L120.680,7.686 L121.910,7.686 L120.142,19.634 C119.488,24.053 116.706,26.412 112.148,26.412 ZM103.326,35.274 C101.984,35.274 101.034,36.249 100.792,37.886 C100.572,39.372 101.239,40.246 102.581,40.246 C103.473,40.246 103.971,39.806 104.285,39.500 L104.432,38.507 L102.000,38.507 L102.112,37.752 L105.400,37.752 L105.103,39.763 C104.814,40.076 104.692,40.195 104.434,40.365 C103.847,40.763 103.129,40.992 102.453,40.992 C100.619,40.992 99.601,39.788 99.875,37.938 C100.188,35.825 101.560,34.509 103.482,34.509 C104.443,34.509 105.138,35.018 105.476,35.604 L104.874,36.283 C104.567,35.664 104.027,35.274 103.326,35.274 ZM100.760,20.814 L90.696,20.814 L87.835,25.784 L86.607,25.784 L96.941,7.686 L98.400,7.686 L103.355,25.784 L102.151,25.784 L100.760,20.814 ZM97.501,8.916 L91.316,19.735 L100.484,19.735 L97.501,8.916 ZM90.665,34.662 L90.324,35.383 L87.519,35.383 L87.241,37.259 L89.813,37.259 L89.705,37.989 L87.133,37.989 L86.829,40.051 L89.643,40.051 L89.786,40.781 L85.873,40.781 L86.778,34.662 L90.665,34.662 ZM80.873,16.070 C82.219,16.321 82.881,16.522 83.520,16.873 C84.890,17.652 85.571,19.108 85.326,20.764 C85.081,22.421 83.585,25.784 78.463,25.784 L71.139,25.784 L73.816,7.686 L80.501,7.686 C84.214,7.686 86.211,9.242 85.825,11.853 C85.383,14.840 82.476,15.618 80.873,16.070 ZM73.731,16.572 L72.521,24.755 L78.488,24.755 C81.458,24.755 83.689,23.174 84.042,20.789 C84.436,18.128 82.208,16.572 78.059,16.572 L73.731,16.572 ZM80.325,8.690 L74.897,8.690 L73.884,15.543 L78.518,15.543 C81.771,15.543 84.265,14.087 84.577,11.978 C84.882,9.920 83.270,8.690 80.325,8.690 ZM73.826,34.662 L75.648,40.781 L74.782,40.781 L74.333,39.305 L71.182,39.305 L70.298,40.781 L69.423,40.781 L73.064,34.662 L73.826,34.662 ZM74.108,38.549 L73.282,35.757 L71.623,38.549 L74.108,38.549 ZM47.507,25.553 L36.935,25.553 L37.167,24.191 L47.867,24.191 C55.279,24.151 59.346,20.933 59.250,16.856 C59.149,12.530 54.681,9.911 47.737,9.934 C41.412,9.953 36.269,11.110 35.174,17.311 L33.728,25.553 L32.358,25.553 C31.131,25.563 31.332,24.562 31.332,24.562 L33.820,8.797 C33.820,8.797 33.950,7.827 35.076,7.827 L48.276,7.827 C58.429,7.827 61.600,12.744 61.600,16.789 C61.600,20.391 59.346,22.461 58.016,23.330 C55.186,25.165 51.291,25.553 47.507,25.553 ZM16.173,25.553 L1.025,25.553 C-0.237,25.549 0.024,24.386 0.024,24.386 L3.573,0.982 C3.573,0.982 3.702,0.008 4.717,0.012 L5.967,0.012 L3.972,15.855 C3.301,21.891 10.349,23.410 16.670,23.179 C23.874,22.915 27.630,20.737 27.787,16.582 C27.948,12.471 23.995,9.274 16.534,9.187 L8.010,9.187 L8.010,9.151 L8.164,7.827 L16.943,7.827 C26.925,7.827 30.264,12.670 30.264,16.789 C30.264,20.391 27.913,22.427 26.584,23.294 C23.755,25.130 19.956,25.553 16.173,25.553 ZM82.576,34.662 C83.441,34.662 84.033,34.874 84.440,35.341 C84.960,35.918 85.164,36.768 85.024,37.717 C84.742,39.618 83.515,40.781 81.774,40.781 L79.341,40.781 L80.246,34.662 L82.576,34.662 ZM81.859,40.025 C83.054,40.025 83.899,39.177 84.108,37.760 C84.231,36.936 84.097,36.258 83.715,35.850 C83.440,35.545 83.044,35.409 82.473,35.409 L80.993,35.409 L80.310,40.025 L81.859,40.025 ZM92.058,39.831 C92.347,40.102 92.776,40.246 93.313,40.246 C94.092,40.246 94.783,39.737 94.875,39.109 C94.963,38.515 94.601,38.209 93.455,37.938 C92.518,37.717 92.348,37.641 91.882,37.216 C91.604,36.877 91.506,36.545 91.566,36.139 C91.711,35.163 92.734,34.501 94.093,34.501 C95.730,34.501 95.996,35.460 96.101,35.800 L95.374,36.385 C95.306,36.020 95.166,35.265 93.911,35.265 C93.089,35.265 92.529,35.596 92.449,36.139 C92.363,36.715 93.242,36.928 93.817,37.072 C94.738,37.284 96.010,37.641 95.804,39.032 C95.630,40.212 94.536,40.992 93.046,40.992 C92.173,40.992 91.504,40.712 91.123,40.187 C90.964,39.966 90.895,39.797 90.819,39.372 L91.625,38.786 C91.661,39.295 91.775,39.575 92.058,39.831 ZM98.836,34.662 L97.931,40.781 L97.073,40.781 L97.978,34.662 L98.836,34.662 ZM108.598,34.662 L110.644,39.431 L111.350,34.662 L112.208,34.662 L111.303,40.781 L110.281,40.781 L108.128,35.791 L107.389,40.781 L106.541,40.781 L107.446,34.662 L108.598,34.662 ZM115.279,37.692 L117.253,37.692 L117.541,35.748 L118.208,35.748 L117.920,37.692 L119.911,37.692 L119.814,38.345 L117.823,38.345 L117.537,40.280 L116.870,40.280 L117.156,38.345 L115.182,38.345 L115.279,37.692 ZM130.125,34.662 L129.220,40.781 L128.362,40.781 L129.268,34.662 L130.125,34.662 ZM132.191,39.831 C132.481,40.102 132.909,40.246 133.447,40.246 C134.226,40.246 134.916,39.737 135.008,39.109 C135.097,38.515 134.734,38.209 133.589,37.938 C132.651,37.717 132.482,37.641 132.016,37.216 C131.738,36.877 131.639,36.545 131.700,36.139 C131.844,35.163 132.868,34.501 134.227,34.501 C135.864,34.501 136.129,35.460 136.235,35.800 L135.507,36.385 C135.440,36.020 135.300,35.265 134.045,35.265 C133.222,35.265 132.663,35.596 132.582,36.139 C132.497,36.715 133.376,36.928 133.951,37.072 C134.872,37.284 136.144,37.641 135.938,39.032 C135.763,40.212 134.670,40.992 133.180,40.992 C132.307,40.992 131.637,40.712 131.256,40.187 C131.098,39.966 131.028,39.797 130.953,39.372 L131.759,38.786 C131.795,39.295 131.909,39.575 132.191,39.831 ZM147.208,34.662 L149.030,40.781 L148.164,40.781 L147.714,39.305 L144.563,39.305 L143.679,40.781 L142.805,40.781 L146.445,34.662 L147.208,34.662 ZM147.489,38.549 L146.663,35.757 L145.004,38.549 L147.489,38.549 ZM152.070,34.662 L151.273,40.051 L154.260,40.051 L154.152,40.781 L150.308,40.781 L151.213,34.662 L152.070,34.662 ZM160.931,34.662 C162.091,34.662 162.793,35.239 162.667,36.088 C162.524,37.064 161.541,37.386 161.186,37.497 C161.762,37.641 162.042,37.802 162.263,38.125 C162.441,38.379 162.499,38.693 162.446,39.049 C162.294,40.076 161.420,40.781 160.277,40.781 L157.541,40.781 L158.446,34.662 L160.931,34.662 ZM161.739,36.214 C161.823,35.655 161.458,35.366 160.679,35.366 L159.198,35.366 L158.936,37.141 L160.287,37.141 C161.162,37.141 161.649,36.827 161.739,36.214 ZM159.940,40.068 C160.875,40.068 161.460,39.686 161.560,39.007 C161.670,38.261 161.245,37.861 160.336,37.861 L158.829,37.861 L158.502,40.068 L159.940,40.068 ZM178.475,34.662 L180.521,39.431 L181.227,34.662 L182.085,34.662 L181.180,40.781 L180.158,40.781 L178.004,35.791 L177.266,40.781 L176.418,40.781 L177.323,34.662 L178.475,34.662 ZM186.140,34.662 C187.005,34.662 187.597,34.874 188.004,35.341 C188.525,35.918 188.729,36.768 188.588,37.717 C188.307,39.618 187.079,40.781 185.339,40.781 L182.906,40.781 L183.811,34.662 L186.140,34.662 ZM185.423,40.025 C186.618,40.025 187.463,39.177 187.673,37.760 C187.795,36.936 187.662,36.258 187.279,35.850 C187.004,35.545 186.609,35.409 186.038,35.409 L184.557,35.409 L183.874,40.025 L185.423,40.025 Z"/>
</svg>
