<svg 
 xmlns="http://www.w3.org/2000/svg"
 xmlns:xlink="http://www.w3.org/1999/xlink"
 width="32px" height="32px">
<path fill-rule="evenodd"  fill="rgb(255, 255, 255)"
 d="M16.000,30.000 C8.268,30.000 2.000,23.730 2.000,16.000 C2.000,8.270 8.268,2.000 16.000,2.000 C23.732,2.000 30.000,8.270 30.000,16.000 C30.000,23.730 23.732,30.000 16.000,30.000 L16.000,30.000 ZM16.000,-0.000 C7.163,-0.000 0.000,7.160 0.000,16.000 C0.000,24.840 7.163,32.000 16.000,32.000 C24.837,32.000 32.000,24.840 32.000,16.000 C32.000,7.160 24.837,-0.000 16.000,-0.000 L16.000,-0.000 ZM21.121,15.460 L17.000,19.590 L17.000,9.000 C17.000,8.450 16.553,8.000 16.000,8.000 C15.448,8.000 15.000,8.450 15.000,9.000 L15.000,19.590 L10.879,15.460 C10.488,15.070 9.855,15.070 9.465,15.460 C9.074,15.860 9.074,16.490 9.465,16.880 L15.121,22.540 C15.361,22.780 15.689,22.850 16.000,22.790 C16.311,22.850 16.639,22.780 16.879,22.540 L22.535,16.880 C22.926,16.490 22.926,15.860 22.535,15.460 C22.146,15.070 21.512,15.070 21.121,15.460 L21.121,15.460 Z"/>
</svg>