<svg
 xmlns="http://www.w3.org/2000/svg"
 xmlns:xlink="http://www.w3.org/1999/xlink"
 width="254px" height="44px">
<path fill-rule="evenodd"  fill="rgb(255, 255, 255)"
 d="M250.866,41.069 L250.453,43.765 L249.497,43.765 L249.905,41.106 L248.047,37.198 L249.118,37.198 L250.524,40.157 L252.928,37.198 L253.997,37.198 L250.866,41.069 ZM244.487,37.864 C243.118,37.864 242.029,38.930 241.785,40.514 C241.407,42.981 243.081,43.190 243.611,43.190 C244.170,43.190 244.723,42.990 245.184,42.617 C245.426,42.426 245.554,42.280 245.805,41.906 L246.363,42.554 C246.012,43.008 245.254,43.992 243.508,43.992 C240.450,43.992 240.652,41.242 240.738,40.677 C241.071,38.510 242.618,37.043 244.555,37.043 C246.513,37.043 246.888,38.373 246.927,38.682 L246.103,39.275 C245.993,38.802 245.781,37.864 244.487,37.864 ZM237.685,43.765 L235.286,38.410 L234.463,43.765 L233.519,43.765 L234.527,37.198 L235.810,37.198 L238.089,42.316 L238.876,37.198 L239.832,37.198 L238.823,43.765 L237.685,43.765 ZM229.533,37.972 L229.224,39.985 L232.089,39.985 L231.968,40.769 L229.104,40.769 L228.764,42.981 L231.899,42.981 L232.059,43.765 L227.699,43.765 L228.708,37.198 L233.038,37.198 L232.659,37.972 L229.533,37.972 ZM224.204,37.855 C222.709,37.855 221.651,38.901 221.382,40.659 C221.137,42.253 221.880,43.190 223.375,43.190 C224.368,43.190 224.923,42.718 225.273,42.390 L225.436,41.324 L222.727,41.324 L222.852,40.514 L226.515,40.514 L226.184,42.672 C225.863,43.008 225.726,43.136 225.439,43.318 C224.785,43.746 223.985,43.992 223.232,43.992 C221.188,43.992 220.055,42.699 220.360,40.714 C220.709,38.446 222.237,37.034 224.378,37.034 C225.449,37.034 226.223,37.581 226.600,38.209 L225.929,38.937 C225.587,38.273 224.985,37.855 224.204,37.855 ZM217.833,42.181 L214.323,42.181 L213.338,43.765 L212.364,43.765 L216.420,37.198 L217.269,37.198 L219.299,43.765 L218.334,43.765 L217.833,42.181 ZM216.662,38.373 L214.814,41.369 L217.583,41.369 L216.662,38.373 ZM210.084,27.671 L200.632,9.703 L197.873,27.671 L196.503,27.671 L199.486,8.249 L201.426,8.249 L210.695,25.921 L213.409,8.249 L214.807,8.249 L211.824,27.671 L210.084,27.671 ZM193.743,42.181 L190.233,42.181 L189.248,43.765 L188.273,43.765 L192.329,37.198 L193.179,37.198 L195.208,43.765 L194.244,43.765 L193.743,42.181 ZM192.572,38.373 L190.724,41.369 L193.492,41.369 L192.572,38.373 ZM189.314,27.671 L192.296,8.249 L193.695,8.249 L190.712,27.671 L189.314,27.671 ZM186.265,40.677 L187.528,43.765 L186.505,43.765 L185.279,40.814 L183.543,40.814 L183.090,43.765 L182.136,43.765 L183.144,37.198 L186.095,37.198 C187.359,37.198 188.149,37.954 187.990,38.993 C187.844,39.939 187.269,40.423 186.265,40.677 ZM185.727,37.963 L183.981,37.963 L183.662,40.040 L185.485,40.040 C186.353,40.040 186.882,39.676 186.987,38.993 C187.092,38.309 186.673,37.963 185.727,37.963 ZM175.537,9.460 L174.366,17.084 L183.381,17.084 L183.195,18.296 L174.180,18.296 L172.926,26.458 L183.425,26.458 L183.724,27.671 L171.370,27.671 L174.353,8.249 L186.535,8.249 L185.750,9.460 L175.537,9.460 ZM163.750,9.488 L160.958,27.671 L159.588,27.671 L162.380,9.488 L155.732,9.488 L155.923,8.249 L170.588,8.249 L170.397,9.488 L163.750,9.488 ZM156.880,42.726 C157.178,42.480 157.340,42.115 157.432,41.515 L158.095,37.198 L159.051,37.198 L158.366,41.652 C158.250,42.408 157.988,42.918 157.523,43.310 C157.003,43.746 156.233,43.984 155.346,43.984 C153.696,43.984 152.831,43.154 153.040,41.789 L153.746,37.198 L154.700,37.198 L154.008,41.706 C153.864,42.644 154.402,43.154 155.531,43.154 C156.033,43.154 156.570,42.990 156.880,42.726 ZM146.943,8.949 C143.920,8.949 141.797,10.322 141.465,12.477 C141.210,14.148 142.370,15.145 146.348,16.545 C150.107,17.893 152.862,19.266 152.358,22.553 C151.833,25.974 148.481,28.290 144.116,28.290 C139.181,28.290 137.392,24.708 137.092,23.307 L138.395,22.445 C138.738,23.926 139.712,27.052 144.391,27.052 C147.786,27.052 150.456,25.273 150.849,22.715 C151.246,20.128 148.556,18.889 145.522,17.838 C142.895,16.922 139.510,15.737 140.019,12.424 C140.458,9.568 143.094,7.818 146.975,7.818 C150.883,7.818 152.179,9.784 153.146,11.292 L151.981,12.559 C151.568,11.535 150.454,8.949 146.943,8.949 ZM138.559,42.381 L141.333,37.198 L142.317,37.198 L138.801,43.765 L137.923,43.765 L136.298,37.198 L137.301,37.198 L138.559,42.381 ZM124.936,28.345 C120.115,28.345 117.647,25.651 118.338,21.152 L120.320,8.249 L121.717,8.249 L119.736,21.152 C119.127,25.111 121.067,27.159 125.460,27.159 C129.398,27.159 131.860,25.057 132.447,21.233 L134.442,8.249 L135.812,8.249 L133.842,21.071 C133.114,25.813 130.015,28.345 124.936,28.345 ZM115.108,37.855 C113.613,37.855 112.556,38.901 112.286,40.659 C112.041,42.253 112.784,43.190 114.279,43.190 C115.272,43.190 115.827,42.718 116.177,42.390 L116.341,41.324 L113.631,41.324 L113.756,40.514 L117.420,40.514 L117.089,42.672 C116.767,43.008 116.630,43.136 116.343,43.318 C115.689,43.746 114.889,43.992 114.136,43.992 C112.093,43.992 110.959,42.699 111.265,40.714 C111.613,38.446 113.141,37.034 115.283,37.034 C116.354,37.034 117.127,37.581 117.504,38.209 L116.833,38.937 C116.491,38.273 115.889,37.855 115.108,37.855 ZM112.250,22.337 L101.038,22.337 L97.852,27.671 L96.483,27.671 L107.995,8.249 L109.621,8.249 L115.141,27.671 L113.800,27.671 L112.250,22.337 ZM108.620,9.568 L101.730,21.179 L111.943,21.179 L108.620,9.568 ZM101.004,37.198 L100.625,37.972 L97.499,37.972 L97.190,39.985 L100.055,39.985 L99.934,40.769 L97.069,40.769 L96.730,42.981 L99.865,42.981 L100.025,43.765 L95.665,43.765 L96.674,37.198 L101.004,37.198 ZM90.096,17.246 C91.595,17.515 92.333,17.731 93.044,18.108 C94.571,18.943 95.330,20.506 95.056,22.283 C94.783,24.061 93.117,27.671 87.411,27.671 L79.251,27.671 L82.234,8.249 L89.681,8.249 C93.817,8.249 96.042,9.919 95.612,12.720 C95.120,15.926 91.881,16.761 90.096,17.246 ZM82.139,17.784 L80.790,26.566 L87.438,26.566 C90.747,26.566 93.233,24.870 93.626,22.310 C94.064,19.454 91.582,17.784 86.961,17.784 L82.139,17.784 ZM89.485,9.326 L83.437,9.326 L82.309,16.680 L87.472,16.680 C91.096,16.680 93.875,15.117 94.222,12.854 C94.562,10.645 92.766,9.326 89.485,9.326 ZM82.245,37.198 L84.275,43.765 L83.310,43.765 L82.810,42.181 L79.299,42.181 L78.314,43.765 L77.340,43.765 L81.396,37.198 L82.245,37.198 ZM82.559,41.369 L81.639,38.373 L79.790,41.369 L82.559,41.369 ZM52.925,27.423 L41.147,27.423 L41.405,25.961 L53.325,25.961 C61.583,25.919 66.114,22.465 66.006,18.090 C65.894,13.447 60.916,10.637 53.180,10.661 C46.135,10.681 40.405,11.922 39.185,18.578 L37.574,27.423 L36.048,27.423 C34.681,27.434 34.905,26.359 34.905,26.359 L37.676,9.440 C37.676,9.440 37.821,8.399 39.076,8.399 L53.781,8.399 C65.092,8.399 68.624,13.677 68.624,18.018 C68.624,21.883 66.114,24.104 64.632,25.037 C61.479,27.007 57.140,27.423 52.925,27.423 ZM18.018,27.423 L1.141,27.423 C-0.264,27.418 0.027,26.170 0.027,26.170 L3.981,1.054 C3.981,1.054 4.124,0.009 5.255,0.013 L6.648,0.013 L4.425,17.015 C3.678,23.492 11.529,25.123 18.571,24.875 C26.596,24.592 30.780,22.254 30.956,17.795 C31.135,13.384 26.731,9.953 18.419,9.858 L8.923,9.858 L8.923,9.820 L9.095,8.399 L18.875,8.399 C29.996,8.399 33.715,13.597 33.715,18.018 C33.715,21.883 31.096,24.068 29.615,24.999 C26.464,26.968 22.231,27.423 18.018,27.423 ZM91.992,37.198 C92.956,37.198 93.616,37.426 94.069,37.927 C94.649,38.546 94.876,39.458 94.719,40.477 C94.406,42.517 93.038,43.765 91.099,43.765 L88.389,43.765 L89.397,37.198 L91.992,37.198 ZM91.193,42.954 C92.525,42.954 93.466,42.044 93.699,40.523 C93.836,39.639 93.687,38.911 93.261,38.473 C92.955,38.146 92.514,38.000 91.878,38.000 L90.229,38.000 L89.468,42.954 L91.193,42.954 ZM102.555,42.745 C102.878,43.036 103.355,43.190 103.954,43.190 C104.822,43.190 105.591,42.644 105.694,41.971 C105.793,41.333 105.389,41.005 104.113,40.714 C103.068,40.477 102.879,40.396 102.360,39.939 C102.050,39.575 101.941,39.220 102.008,38.783 C102.169,37.736 103.309,37.025 104.823,37.025 C106.647,37.025 106.942,38.055 107.060,38.419 L106.250,39.047 C106.174,38.655 106.019,37.845 104.620,37.845 C103.704,37.845 103.081,38.200 102.991,38.783 C102.896,39.402 103.875,39.630 104.516,39.784 C105.542,40.012 106.959,40.396 106.729,41.888 C106.535,43.154 105.317,43.992 103.657,43.992 C102.684,43.992 101.938,43.691 101.514,43.127 C101.337,42.890 101.260,42.709 101.176,42.253 L102.074,41.624 C102.114,42.171 102.241,42.471 102.555,42.745 ZM110.107,37.198 L109.098,43.765 L108.143,43.765 L109.151,37.198 L110.107,37.198 ZM120.982,37.198 L123.261,42.316 L124.048,37.198 L125.004,37.198 L123.995,43.765 L122.857,43.765 L120.458,38.410 L119.635,43.765 L118.691,43.765 L119.699,37.198 L120.982,37.198 ZM128.425,40.449 L130.624,40.449 L130.944,38.364 L131.688,38.364 L131.367,40.449 L133.585,40.449 L133.477,41.151 L131.259,41.151 L130.941,43.227 L130.198,43.227 L130.516,41.151 L128.316,41.151 L128.425,40.449 ZM144.964,37.198 L143.955,43.765 L143.000,43.765 L144.009,37.198 L144.964,37.198 ZM147.266,42.745 C147.589,43.036 148.066,43.190 148.664,43.190 C149.532,43.190 150.301,42.644 150.404,41.971 C150.503,41.333 150.099,41.005 148.823,40.714 C147.778,40.477 147.590,40.396 147.070,39.939 C146.760,39.575 146.651,39.220 146.718,38.783 C146.879,37.736 148.020,37.025 149.533,37.025 C151.357,37.025 151.653,38.055 151.770,38.419 L150.960,39.047 C150.885,38.655 150.729,37.845 149.331,37.845 C148.414,37.845 147.791,38.200 147.702,38.783 C147.606,39.402 148.585,39.630 149.226,39.784 C150.252,40.012 151.669,40.396 151.439,41.888 C151.245,43.154 150.027,43.992 148.367,43.992 C147.394,43.992 146.648,43.691 146.224,43.127 C146.048,42.890 145.970,42.709 145.886,42.253 L146.784,41.624 C146.824,42.171 146.951,42.471 147.266,42.745 ZM163.995,37.198 L166.024,43.765 L165.060,43.765 L164.559,42.181 L161.049,42.181 L160.064,43.765 L159.089,43.765 L163.145,37.198 L163.995,37.198 ZM164.308,41.369 L163.388,38.373 L161.540,41.369 L164.308,41.369 ZM169.411,37.198 L168.523,42.981 L171.851,42.981 L171.731,43.765 L167.449,43.765 L168.457,37.198 L169.411,37.198 ZM179.283,37.198 C180.575,37.198 181.357,37.818 181.217,38.729 C181.057,39.776 179.963,40.121 179.567,40.240 C180.209,40.396 180.520,40.567 180.766,40.915 C180.965,41.187 181.030,41.524 180.971,41.906 C180.801,43.008 179.827,43.765 178.554,43.765 L175.506,43.765 L176.515,37.198 L179.283,37.198 ZM180.183,38.864 C180.276,38.264 179.870,37.954 179.003,37.954 L177.352,37.954 L177.060,39.858 L178.566,39.858 C179.540,39.858 180.083,39.521 180.183,38.864 ZM178.179,42.999 C179.220,42.999 179.872,42.590 179.984,41.862 C180.106,41.060 179.633,40.632 178.620,40.632 L176.941,40.632 L176.577,42.999 L178.179,42.999 ZM198.827,37.198 L201.107,42.316 L201.894,37.198 L202.849,37.198 L201.841,43.765 L200.703,43.765 L198.303,38.410 L197.481,43.765 L196.536,43.765 L197.544,37.198 L198.827,37.198 ZM207.367,37.198 C208.330,37.198 208.990,37.426 209.444,37.927 C210.023,38.546 210.251,39.458 210.094,40.477 C209.781,42.517 208.413,43.765 206.474,43.765 L203.763,43.765 L204.772,37.198 L207.367,37.198 ZM206.568,42.954 C207.899,42.954 208.840,42.044 209.074,40.523 C209.210,39.639 209.062,38.911 208.636,38.473 C208.329,38.146 207.889,38.000 207.252,38.000 L205.603,38.000 L204.842,42.954 L206.568,42.954 Z"/>
</svg>
