<svg
 xmlns="http://www.w3.org/2000/svg"
 xmlns:xlink="http://www.w3.org/1999/xlink"
 width="48px" height="48px">
<path fill-rule="evenodd"  fill="rgb(245, 130, 32)"
 d="M44.000,48.000 C41.795,48.000 40.000,46.205 40.000,44.000 L40.000,15.000 C38.896,15.000 38.000,15.897 38.000,17.000 L38.000,32.000 C38.000,32.553 37.553,33.000 37.000,33.000 C36.447,33.000 36.000,32.553 36.000,32.000 L36.000,17.000 C36.000,14.794 37.795,13.000 40.000,13.000 L40.556,13.000 C41.250,11.810 42.526,11.000 44.000,11.000 C46.205,11.000 48.000,12.794 48.000,15.000 L48.000,44.000 C48.000,46.205 46.205,48.000 44.000,48.000 ZM46.000,15.000 C46.000,13.897 45.104,13.000 44.000,13.000 C42.896,13.000 42.000,13.897 42.000,15.000 L42.000,28.000 L46.000,28.000 L46.000,15.000 ZM46.000,30.000 L42.000,30.000 L42.000,42.000 L46.000,42.000 L46.000,30.000 ZM42.000,44.000 C42.000,45.103 42.896,46.000 44.000,46.000 C45.104,46.000 46.000,45.103 46.000,44.000 L42.000,44.000 ZM32.000,13.899 L32.000,47.000 C32.000,47.553 31.553,48.000 31.000,48.000 L7.000,48.000 C6.447,48.000 6.000,47.553 6.000,47.000 L6.000,34.000 L1.000,34.000 C0.447,34.000 0.000,33.553 0.000,33.000 L0.000,7.000 C0.000,3.140 3.141,0.000 7.000,0.000 L31.000,0.000 C34.859,0.000 38.000,3.140 38.000,7.000 C38.000,10.517 35.383,13.408 32.000,13.899 ZM8.000,46.000 L30.000,46.000 L30.000,14.000 L8.000,14.000 L8.000,46.000 ZM8.000,11.899 C9.218,11.651 10.276,10.959 10.998,10.000 L8.000,10.000 L8.000,11.899 ZM7.000,2.000 C4.243,2.000 2.000,4.243 2.000,7.000 L2.000,32.000 L6.000,32.000 L6.000,13.000 L6.000,9.000 C6.000,8.447 6.447,8.000 7.000,8.000 L11.899,8.000 C11.966,7.677 12.000,7.343 12.000,7.000 C12.000,4.243 9.757,2.000 7.000,2.000 ZM31.000,2.000 L11.883,2.000 C13.185,3.272 14.000,5.040 14.000,7.000 C14.000,8.959 13.186,10.728 11.884,12.000 L31.000,12.000 C33.758,12.000 36.000,9.757 36.000,7.000 C36.000,4.243 33.758,2.000 31.000,2.000 ZM27.000,38.000 L19.000,38.000 C18.447,38.000 18.000,37.553 18.000,37.000 C18.000,36.447 18.447,36.000 19.000,36.000 L27.000,36.000 C27.553,36.000 28.000,36.447 28.000,37.000 C28.000,37.553 27.553,38.000 27.000,38.000 ZM27.000,30.000 L19.000,30.000 C18.447,30.000 18.000,29.553 18.000,29.000 C18.000,28.447 18.447,28.000 19.000,28.000 L27.000,28.000 C27.553,28.000 28.000,28.447 28.000,29.000 C28.000,29.553 27.553,30.000 27.000,30.000 ZM27.000,22.000 L19.000,22.000 C18.447,22.000 18.000,21.553 18.000,21.000 C18.000,20.447 18.447,20.000 19.000,20.000 L27.000,20.000 C27.553,20.000 28.000,20.447 28.000,21.000 C28.000,21.553 27.553,22.000 27.000,22.000 ZM12.707,29.707 C12.512,29.902 12.256,30.000 12.000,30.000 C11.744,30.000 11.488,29.902 11.293,29.707 L10.293,28.707 C9.902,28.316 9.902,27.683 10.293,27.293 C10.684,26.902 11.316,26.902 11.707,27.293 L12.000,27.586 L15.293,24.293 C15.684,23.903 16.316,23.903 16.707,24.293 C17.098,24.684 17.098,25.316 16.707,25.707 L12.707,29.707 ZM12.707,21.707 C12.512,21.902 12.256,22.000 12.000,22.000 C11.744,22.000 11.488,21.902 11.293,21.707 L10.293,20.707 C9.902,20.316 9.902,19.684 10.293,19.293 C10.684,18.902 11.316,18.902 11.707,19.293 L12.000,19.586 L15.293,16.293 C15.684,15.902 16.316,15.902 16.707,16.293 C17.098,16.684 17.098,17.316 16.707,17.707 L12.707,21.707 Z"/>
</svg>
