<svg
 xmlns="http://www.w3.org/2000/svg"
 xmlns:xlink="http://www.w3.org/1999/xlink"
 width="548px" height="313px">
<defs>
<filter id="Filter_0">
    <feOffset in="SourceAlpha" dx="0" dy="1" />
    <feGaussianBlur result="blurOut" stdDeviation="2.236" />
    <feFlood flood-color="rgb(0, 0, 0)" result="floodOut" />
    <feComposite operator="out" in="floodOut" in2="blurOut" result="compOut" />
    <feComposite operator="in" in="compOut" in2="SourceAlpha" />
    <feComponentTransfer><feFuncA type="linear" slope="0.29"/></feComponentTransfer>
    <feBlend mode="multiply" in2="SourceGraphic" />
</filter>
<filter id="Filter_1">
    <feOffset in="SourceAlpha" dx="0" dy="1" />
    <feGaussianBlur result="blurOut" stdDeviation="3" />
    <feFlood flood-color="rgb(0, 0, 0)" result="floodOut" />
    <feComposite operator="out" in="floodOut" in2="blurOut" result="compOut" />
    <feComposite operator="in" in="compOut" in2="SourceAlpha" />
    <feComponentTransfer><feFuncA type="linear" slope="0.29"/></feComponentTransfer>
    <feBlend mode="multiply" in2="SourceGraphic" />
</filter>
<filter filterUnits="userSpaceOnUse" id="Filter_2" x="0px" y="73px" width="223px" height="224px"  >
    <feOffset in="SourceAlpha" dx="0" dy="3" />
    <feGaussianBlur result="blurOut" stdDeviation="1.414" />
    <feFlood flood-color="rgb(0, 0, 0)" result="floodOut" />
    <feComposite operator="atop" in="floodOut" in2="blurOut" />
    <feComponentTransfer><feFuncA type="linear" slope="0.18"/></feComponentTransfer>
    <feMerge>
    <feMergeNode/>
    <feMergeNode in="SourceGraphic"/>
  </feMerge>
</filter>

</defs>
<path fill-rule="evenodd"  fill="rgb(32, 86, 133)"
 d="M547.899,194.524 L547.879,194.886 L547.755,195.227 C547.635,195.557 544.771,202.937 530.962,202.937 C530.466,202.937 529.952,202.923 529.429,202.903 C521.888,209.416 507.324,211.856 495.851,211.938 C495.618,211.940 495.383,211.940 495.151,211.940 C480.524,211.940 468.200,208.595 461.653,202.900 C461.109,202.921 460.576,202.935 460.064,202.937 C446.990,202.937 443.730,196.328 443.316,195.342 C446.137,191.895 447.755,188.344 448.125,184.754 C448.389,182.193 448.009,179.677 447.020,177.358 C447.273,175.764 447.414,174.252 447.473,172.807 C453.785,160.499 464.636,155.328 464.795,155.254 L466.903,154.283 C466.219,138.601 466.668,128.230 467.469,121.418 C467.738,117.105 470.413,90.744 495.632,90.122 C508.259,89.809 517.161,98.564 521.201,111.229 C521.771,112.657 522.402,114.921 522.920,118.496 C523.104,119.641 523.255,120.806 523.369,121.988 C523.369,121.988 523.353,121.990 523.342,121.992 C524.011,128.702 524.293,138.816 523.565,154.034 L526.223,155.250 C526.464,155.362 549.490,166.328 547.899,194.524 ZM492.122,206.995 C493.338,207.039 494.565,207.065 495.816,207.057 C496.832,207.050 497.838,207.018 498.835,206.977 L512.119,172.843 L500.986,172.991 L495.605,188.274 L490.051,172.992 L478.830,172.843 L492.122,206.995 ZM503.994,158.859 C505.572,156.408 507.148,153.967 508.412,152.010 C507.998,151.397 507.386,150.314 506.874,148.712 C503.697,151.797 499.872,153.647 495.480,153.647 C491.173,153.647 487.468,151.968 484.387,149.160 C483.870,150.751 483.255,151.821 482.849,152.418 C486.759,158.526 491.546,166.003 493.322,168.771 L493.699,168.771 L495.532,173.813 L496.734,170.400 L496.748,170.405 C496.923,169.942 497.218,169.471 497.551,168.938 C497.934,168.323 498.484,167.455 499.149,166.413 C500.466,164.346 502.230,161.600 503.994,158.859 ZM473.741,123.513 C473.023,123.421 472.294,123.291 471.555,123.142 C470.689,126.076 471.030,130.469 476.338,135.897 C475.019,132.026 474.147,127.802 473.741,123.513 ZM477.867,153.691 L471.014,167.857 L487.084,168.070 L477.875,153.690 L477.867,153.691 ZM502.828,111.514 C498.922,115.337 490.606,123.240 478.671,123.733 C480.119,136.651 486.272,148.765 495.480,148.765 C505.258,148.765 511.589,135.107 512.501,121.332 C508.464,120.081 504.467,117.330 502.828,111.514 ZM519.104,122.292 C518.542,122.289 517.946,122.266 517.321,122.219 C516.958,127.019 515.996,131.745 514.488,136.021 C520.458,129.986 520.288,125.216 519.104,122.292 ZM513.100,153.735 C509.921,158.654 506.287,164.292 503.872,168.070 L519.931,167.857 L513.100,153.735 ZM528.035,189.638 C520.380,193.590 510.552,192.433 510.400,192.418 L510.400,195.338 C510.882,195.371 511.742,195.417 512.897,195.417 C516.322,195.417 522.257,195.007 528.035,192.682 L528.035,189.638 ZM522.849,69.867 L522.849,77.026 L521.523,77.026 L521.523,65.708 L522.849,65.708 L522.849,67.294 C523.255,66.287 524.046,65.494 525.266,65.580 L525.266,67.101 L525.223,67.101 C523.876,67.101 522.849,67.980 522.849,69.867 ZM516.175,52.077 L516.175,51.734 C516.175,47.897 517.822,46.075 519.640,46.075 C520.239,46.075 520.688,46.204 521.051,46.440 L521.051,47.854 C520.645,47.554 520.217,47.361 519.704,47.361 C518.656,47.361 517.523,48.669 517.523,51.691 L517.523,52.120 C517.523,55.206 518.613,56.428 519.789,56.428 C520.217,56.428 520.666,56.213 521.051,55.914 L521.051,57.264 C520.645,57.542 520.217,57.714 519.618,57.714 C517.757,57.714 516.175,55.935 516.175,52.077 ZM519.856,71.110 L519.856,71.967 L514.979,71.967 C515.065,74.668 516.156,75.932 517.503,75.932 C518.209,75.932 518.722,75.718 519.471,75.225 L519.599,76.511 C518.786,77.004 518.209,77.197 517.310,77.197 C515.364,77.197 513.653,75.311 513.653,71.602 L513.653,71.303 C513.653,67.466 515.129,65.537 516.840,65.537 C518.594,65.537 519.856,67.530 519.856,71.110 ZM514.979,70.852 L518.572,70.852 C518.572,68.431 517.867,66.758 516.840,66.758 C515.835,66.758 515.044,68.109 514.979,70.852 ZM513.074,57.542 L513.074,46.225 L514.422,46.225 L514.422,57.542 L513.074,57.542 ZM513.053,42.410 L514.443,42.410 L514.443,44.167 L513.053,44.167 L513.053,42.410 ZM510.768,69.159 C510.768,67.573 510.190,66.694 509.185,66.694 C508.180,66.694 507.389,67.723 507.389,69.288 L507.389,77.026 L506.063,77.026 L506.063,65.708 L507.389,65.708 L507.389,67.294 C507.795,66.351 508.458,65.515 509.634,65.515 C511.131,65.515 512.094,66.780 512.094,68.923 L512.094,77.026 L510.768,77.026 L510.768,69.159 ZM509.697,49.676 C509.697,48.090 509.120,47.211 508.114,47.211 C507.109,47.211 506.318,48.240 506.318,49.804 L506.318,57.542 L504.992,57.542 L504.992,42.410 L506.318,42.410 L506.318,47.812 C506.724,46.868 507.387,46.032 508.563,46.032 C510.061,46.032 511.023,47.297 511.023,49.440 L511.023,57.542 L509.697,57.542 L509.697,49.676 ZM500.568,79.855 C499.712,79.855 498.878,79.705 498.108,79.426 L498.108,78.119 C498.878,78.419 499.840,78.633 500.503,78.633 C501.915,78.633 502.685,77.990 502.685,76.489 L502.685,74.260 C502.257,75.375 501.551,76.404 500.418,76.404 C498.963,76.404 497.637,74.668 497.637,71.046 L497.637,70.874 C497.637,67.273 498.963,65.515 500.418,65.515 C501.551,65.515 502.257,66.544 502.685,67.659 L502.685,65.708 L504.032,65.708 L504.032,76.511 C504.032,78.826 502.727,79.855 500.568,79.855 ZM502.727,70.895 C502.727,68.237 501.744,66.758 500.781,66.758 C499.797,66.758 498.963,68.216 498.963,70.895 L498.963,71.024 C498.963,73.724 499.797,75.161 500.781,75.161 C501.744,75.161 502.727,73.703 502.727,71.046 L502.727,70.895 ZM500.502,57.736 C499.368,57.736 498.662,56.707 498.235,55.592 L498.235,60.329 L496.909,60.329 L496.909,46.225 L498.235,46.225 L498.235,48.197 C498.662,47.061 499.368,46.032 500.502,46.032 C501.999,46.032 503.304,47.833 503.304,51.605 L503.304,52.163 C503.304,55.892 501.999,57.736 500.502,57.736 ZM501.956,51.648 C501.956,48.840 501.165,47.275 500.138,47.275 C499.133,47.275 498.192,48.819 498.192,51.584 L498.192,52.184 C498.192,54.949 499.133,56.492 500.138,56.492 C501.165,56.492 501.956,54.927 501.956,52.120 L501.956,51.648 ZM494.494,77.026 L494.494,65.708 L495.841,65.708 L495.841,77.026 L494.494,77.026 ZM494.473,61.893 L495.863,61.893 L495.863,63.650 L494.473,63.650 L494.473,61.893 ZM493.616,56.021 C493.167,57.093 492.483,57.736 491.456,57.736 C490.023,57.736 488.997,56.299 488.997,54.285 L488.997,54.070 C488.997,51.841 490.066,50.447 491.841,50.447 C492.547,50.447 493.125,50.641 493.638,50.877 L493.638,49.654 C493.638,48.197 492.953,47.361 491.627,47.361 C490.879,47.361 490.258,47.533 489.595,47.876 L489.595,46.590 C490.258,46.268 490.943,46.097 491.799,46.097 C493.766,46.097 494.964,47.297 494.964,49.526 L494.964,57.542 L493.616,57.542 L493.616,56.021 ZM493.638,51.991 C493.146,51.755 492.611,51.584 492.076,51.584 C490.921,51.584 490.301,52.548 490.301,53.985 L490.301,54.199 C490.301,55.613 490.857,56.578 491.841,56.578 C492.911,56.578 493.638,55.442 493.638,54.156 L493.638,51.991 ZM489.982,71.860 C488.464,70.403 487.865,69.481 487.865,68.259 L487.865,68.216 C487.865,66.544 489.105,65.558 490.602,65.558 C491.329,65.558 491.864,65.665 492.463,65.923 L492.463,67.273 C491.843,66.952 491.244,66.801 490.602,66.801 C489.790,66.801 489.191,67.316 489.191,68.152 L489.191,68.194 C489.191,68.902 489.554,69.438 490.859,70.724 C492.378,72.246 492.955,73.167 492.955,74.389 L492.955,74.432 C492.955,76.125 491.650,77.175 490.153,77.175 C489.319,77.175 488.613,76.983 487.886,76.640 L487.886,75.289 C488.678,75.697 489.447,75.954 490.132,75.954 C490.966,75.954 491.629,75.396 491.629,74.496 L491.629,74.454 C491.629,73.746 491.244,73.060 489.982,71.860 ZM486.112,50.383 L486.112,57.542 L484.786,57.542 L484.786,46.225 L486.112,46.225 L486.112,47.812 C486.518,46.804 487.310,46.011 488.529,46.097 L488.529,47.618 L488.486,47.618 C487.139,47.618 486.112,48.498 486.112,50.383 ZM486.754,71.110 L486.754,71.967 L481.878,71.967 C481.963,74.668 483.054,75.932 484.401,75.932 C485.107,75.932 485.621,75.718 486.369,75.225 L486.497,76.511 C485.685,77.004 485.107,77.197 484.209,77.197 C482.263,77.197 480.552,75.311 480.552,71.602 L480.552,71.303 C480.552,67.466 482.027,65.537 483.738,65.537 C485.492,65.537 486.754,67.530 486.754,71.110 ZM483.738,66.758 C482.733,66.758 481.942,68.109 481.878,70.852 L485.471,70.852 C485.471,68.431 484.765,66.758 483.738,66.758 ZM475.997,50.255 L475.997,49.826 C475.997,44.918 478.115,42.410 480.660,42.410 C481.451,42.410 482.007,42.581 482.542,42.881 L482.542,44.361 C481.900,43.974 481.323,43.760 480.681,43.760 C478.928,43.760 477.409,45.754 477.409,49.804 L477.409,50.276 C477.409,54.520 478.885,56.407 480.660,56.407 C480.981,56.407 481.173,56.364 481.472,56.256 L481.472,50.898 L479.483,50.898 L479.483,49.633 L482.756,49.633 L482.756,57.136 C481.943,57.542 481.387,57.671 480.574,57.671 C478.072,57.671 475.997,55.270 475.997,50.255 ZM479.227,69.309 L479.227,69.738 C479.227,74.539 477.238,77.026 474.308,77.026 L472.361,77.026 L472.361,62.021 L474.308,62.021 C477.238,62.021 479.227,64.507 479.227,69.309 ZM477.815,69.309 C477.815,65.193 476.318,63.286 474.372,63.286 L473.752,63.286 L473.752,75.761 L474.393,75.761 C476.382,75.761 477.815,73.853 477.815,69.738 L477.815,69.309 ZM456.564,138.859 C456.894,143.587 456.918,148.800 456.832,153.323 C455.323,154.413 453.615,155.783 451.847,157.456 C452.029,152.340 452.132,145.335 451.704,139.199 L456.564,138.859 ZM444.570,158.332 C444.138,157.471 443.680,156.674 443.207,155.938 C444.844,155.504 446.491,154.915 448.048,154.111 L448.048,157.154 C446.887,157.621 445.722,158.007 444.570,158.332 ZM449.492,124.197 L439.603,120.578 L431.857,139.420 L425.307,131.432 L423.649,133.793 L417.749,133.793 L416.086,131.427 L409.532,139.420 L401.790,120.582 L391.978,124.197 C390.734,124.796 378.620,130.990 374.504,145.849 L371.627,144.793 L370.440,143.127 C371.373,141.374 372.222,139.477 372.978,137.448 C375.442,134.693 376.933,132.076 377.785,129.662 C383.579,122.799 389.895,119.782 390.017,119.726 L390.196,119.652 L404.509,114.380 L410.936,130.019 L417.506,122.007 L423.885,122.007 L430.454,130.019 L436.881,114.384 L451.452,119.726 C451.556,119.774 456.173,121.979 461.126,126.888 C460.985,129.019 460.885,131.287 460.820,133.677 C455.944,127.471 450.342,124.608 449.492,124.197 ZM458.269,14.190 C458.269,12.603 457.692,11.724 456.686,11.724 C455.681,11.724 454.890,12.754 454.890,14.318 L454.890,22.056 L453.564,22.056 L453.564,10.739 L454.890,10.739 L454.890,12.325 C455.296,11.382 455.959,10.546 457.135,10.546 C458.633,10.546 459.595,11.810 459.595,13.953 L459.595,22.056 L458.269,22.056 L458.269,14.190 ZM448.624,22.249 C446.849,22.249 445.352,20.148 445.352,16.569 L445.352,16.247 C445.352,12.668 446.849,10.567 448.646,10.567 C450.421,10.567 451.918,12.668 451.918,16.247 L451.918,16.569 C451.918,20.148 450.421,22.249 448.624,22.249 ZM450.571,16.226 C450.571,13.461 449.715,11.789 448.624,11.789 C447.534,11.789 446.678,13.461 446.678,16.226 L446.678,16.569 C446.678,19.334 447.534,21.027 448.624,21.027 C449.715,21.027 450.571,19.334 450.571,16.569 L450.571,16.226 ZM445.935,31.808 C446.341,30.800 447.132,30.007 448.352,30.093 L448.352,31.615 L448.309,31.615 C446.962,31.615 445.935,32.494 445.935,34.380 L445.935,41.539 L444.609,41.539 L444.609,30.222 L445.935,30.222 L445.935,31.808 ZM439.711,100.492 C436.157,110.564 429.585,118.120 420.703,118.120 C411.479,118.120 405.002,110.455 401.562,100.369 C395.536,94.210 395.912,89.387 397.181,86.510 C397.150,86.507 397.122,86.506 397.090,86.503 C397.090,86.503 392.241,55.997 420.024,55.997 C435.521,55.997 447.429,66.538 443.532,85.236 C445.189,87.827 446.881,93.245 439.711,100.492 ZM428.050,75.987 C423.761,80.185 415.786,85.905 403.737,86.617 C404.839,100.111 411.118,113.238 420.703,113.238 C430.995,113.238 437.472,98.102 437.824,83.628 C434.312,82.125 430.090,79.660 428.050,75.987 ZM442.230,6.923 L443.620,6.923 L443.620,8.681 L442.230,8.681 L442.230,6.923 ZM442.252,10.739 L443.599,10.739 L443.599,22.056 L442.252,22.056 L442.252,10.739 ZM442.942,36.480 L438.066,36.480 C438.151,39.181 439.242,40.446 440.589,40.446 C441.295,40.446 441.808,40.231 442.557,39.739 L442.685,41.025 C441.872,41.518 441.295,41.711 440.397,41.711 C438.450,41.711 436.740,39.824 436.740,36.116 L436.740,35.816 C436.740,31.979 438.215,30.050 439.926,30.050 C441.680,30.050 442.942,32.043 442.942,35.623 L442.942,36.480 ZM439.926,31.272 C438.921,31.272 438.130,32.622 438.066,35.366 L441.658,35.366 C441.658,32.944 440.953,31.272 439.926,31.272 ZM437.569,20.148 L437.569,11.896 L436.606,11.896 L436.606,10.739 L437.569,10.739 L437.569,7.631 L438.916,7.631 L438.916,10.739 L440.606,10.739 L440.606,11.896 L438.916,11.896 L438.916,19.826 C438.916,20.684 439.301,20.920 439.964,20.920 C440.157,20.920 440.434,20.877 440.627,20.813 L440.627,21.970 C440.370,22.077 439.964,22.163 439.664,22.163 C438.445,22.163 437.569,21.670 437.569,20.148 ZM434.065,20.534 C433.616,21.606 432.932,22.249 431.905,22.249 C430.472,22.249 429.446,20.813 429.446,18.798 L429.446,18.584 C429.446,16.354 430.515,14.961 432.290,14.961 C432.996,14.961 433.573,15.154 434.086,15.390 L434.086,14.168 C434.086,12.711 433.402,11.874 432.076,11.874 C431.328,11.874 430.707,12.046 430.044,12.389 L430.044,11.103 C430.707,10.781 431.392,10.610 432.247,10.610 C434.215,10.610 435.412,11.810 435.412,14.040 L435.412,22.056 L434.065,22.056 L434.065,20.534 ZM434.086,16.505 C433.595,16.269 433.060,16.097 432.525,16.097 C431.370,16.097 430.750,17.062 430.750,18.498 L430.750,18.712 C430.750,20.127 431.306,21.091 432.290,21.091 C433.359,21.091 434.086,19.956 434.086,18.669 L434.086,16.505 ZM429.148,41.539 L429.148,30.222 L430.474,30.222 L430.474,31.808 C430.880,30.865 431.543,30.028 432.720,30.028 C434.217,30.028 435.179,31.293 435.179,33.437 L435.179,41.539 L433.853,41.539 L433.853,33.672 C433.853,32.086 433.276,31.208 432.271,31.208 C431.265,31.208 430.474,32.236 430.474,33.801 L430.474,41.539 L429.148,41.539 ZM425.362,20.148 L425.362,11.896 L424.399,11.896 L424.399,10.739 L425.362,10.739 L425.362,7.631 L426.709,7.631 L426.709,10.739 L428.399,10.739 L428.399,11.896 L426.709,11.896 L426.709,19.826 C426.709,20.684 427.094,20.920 427.757,20.920 C427.950,20.920 428.227,20.877 428.420,20.813 L428.420,21.970 C428.163,22.077 427.757,22.163 427.457,22.163 C426.238,22.163 425.362,21.670 425.362,20.148 ZM425.771,32.172 L425.771,30.222 L427.118,30.222 L427.118,41.025 C427.118,43.339 425.813,44.368 423.654,44.368 C422.798,44.368 421.964,44.218 421.194,43.940 L421.194,42.632 C421.964,42.932 422.926,43.147 423.589,43.147 C425.000,43.147 425.771,42.504 425.771,41.003 L425.771,38.774 C425.343,39.888 424.637,40.917 423.504,40.917 C422.049,40.917 420.723,39.181 420.723,35.559 L420.723,35.387 C420.723,31.787 422.049,30.028 423.504,30.028 C424.637,30.028 425.343,31.057 425.771,32.172 ZM422.049,35.409 L422.049,35.537 C422.049,38.238 422.883,39.674 423.867,39.674 C424.830,39.674 425.813,38.216 425.813,35.559 L425.813,35.409 C425.813,32.751 424.830,31.272 423.867,31.272 C422.883,31.272 422.049,32.729 422.049,35.409 ZM417.580,41.539 L417.580,30.222 L418.927,30.222 L418.927,41.539 L417.580,41.539 ZM417.559,26.406 L418.949,26.406 L418.949,28.164 L417.559,28.164 L417.559,26.406 ZM421.775,14.190 C421.775,12.603 421.197,11.724 420.192,11.724 C419.186,11.724 418.395,12.754 418.395,14.318 L418.395,22.056 L417.069,22.056 L417.069,10.739 L418.395,10.739 L418.395,12.325 C418.802,11.382 419.465,10.546 420.641,10.546 C422.138,10.546 423.101,11.810 423.101,13.953 L423.101,22.056 L421.775,22.056 L421.775,14.190 ZM413.239,41.689 C412.405,41.689 411.699,41.496 410.972,41.153 L410.972,39.803 C411.763,40.210 412.533,40.467 413.218,40.467 C414.052,40.467 414.715,39.910 414.715,39.010 L414.715,38.967 C414.715,38.259 414.330,37.573 413.068,36.373 C411.549,34.916 410.951,33.994 410.951,32.772 L410.951,32.729 C410.951,31.057 412.191,30.072 413.688,30.072 C414.416,30.072 414.950,30.179 415.549,30.436 L415.549,31.787 C414.929,31.465 414.330,31.315 413.688,31.315 C412.876,31.315 412.277,31.829 412.277,32.665 L412.277,32.708 C412.277,33.415 412.640,33.951 413.945,35.237 C415.464,36.759 416.041,37.681 416.041,38.902 L416.041,38.945 C416.041,40.639 414.736,41.689 413.239,41.689 ZM413.050,20.963 C413.756,20.963 414.269,20.749 415.018,20.255 L415.146,21.542 C414.333,22.035 413.756,22.228 412.857,22.228 C410.911,22.228 409.200,20.341 409.200,16.633 L409.200,16.333 C409.200,12.496 410.676,10.567 412.387,10.567 C414.141,10.567 415.402,12.560 415.402,16.140 L415.402,16.997 L410.526,16.997 C410.612,19.698 411.702,20.963 413.050,20.963 ZM414.119,15.883 C414.119,13.461 413.413,11.789 412.387,11.789 C411.382,11.789 410.590,13.139 410.526,15.883 L414.119,15.883 ZM409.840,36.480 L404.964,36.480 C405.049,39.181 406.140,40.446 407.487,40.446 C408.193,40.446 408.707,40.231 409.455,39.739 L409.583,41.025 C408.771,41.518 408.193,41.711 407.295,41.711 C405.349,41.711 403.638,39.824 403.638,36.116 L403.638,35.816 C403.638,31.979 405.113,30.050 406.824,30.050 C408.578,30.050 409.840,32.043 409.840,35.623 L409.840,36.480 ZM406.824,31.272 C405.819,31.272 405.028,32.622 404.964,35.366 L408.557,35.366 C408.557,32.944 407.851,31.272 406.824,31.272 ZM405.351,22.206 C404.517,22.206 403.812,22.013 403.084,21.670 L403.084,20.320 C403.876,20.727 404.645,20.984 405.330,20.984 C406.164,20.984 406.827,20.427 406.827,19.527 L406.827,19.484 C406.827,18.776 406.442,18.090 405.180,16.890 C403.661,15.433 403.063,14.511 403.063,13.289 L403.063,13.246 C403.063,11.574 404.303,10.589 405.800,10.589 C406.528,10.589 407.062,10.696 407.661,10.953 L407.661,12.303 C407.041,11.982 406.442,11.832 405.800,11.832 C404.988,11.832 404.389,12.346 404.389,13.182 L404.389,13.225 C404.389,13.932 404.752,14.468 406.057,15.754 C407.576,17.276 408.153,18.198 408.153,19.419 L408.153,19.462 C408.153,21.155 406.848,22.206 405.351,22.206 ZM397.394,41.539 L395.447,41.539 L395.447,26.535 L397.394,26.535 C400.324,26.535 402.313,29.021 402.313,33.822 L402.313,34.251 C402.313,39.053 400.324,41.539 397.394,41.539 ZM400.901,33.822 C400.901,29.707 399.404,27.799 397.458,27.799 L396.838,27.799 L396.838,40.274 L397.479,40.274 C399.468,40.274 400.901,38.367 400.901,34.251 L400.901,33.822 ZM399.599,20.963 C400.305,20.963 400.818,20.749 401.567,20.255 L401.695,21.542 C400.882,22.035 400.305,22.228 399.407,22.228 C397.460,22.228 395.749,20.341 395.749,16.633 L395.749,16.333 C395.749,12.496 397.225,10.567 398.936,10.567 C400.690,10.567 401.951,12.560 401.951,16.140 L401.951,16.997 L397.075,16.997 C397.161,19.698 398.251,20.963 399.599,20.963 ZM400.668,15.883 C400.668,13.461 399.962,11.789 398.936,11.789 C397.931,11.789 397.139,13.139 397.075,15.883 L400.668,15.883 ZM392.758,14.897 L392.758,22.056 L391.432,22.056 L391.432,10.739 L392.758,10.739 L392.758,12.325 C393.164,11.318 393.955,10.524 395.175,10.610 L395.175,12.132 L395.132,12.132 C393.784,12.132 392.758,13.011 392.758,14.897 ZM385.573,16.740 L384.974,16.740 L384.974,22.056 L383.584,22.056 L383.584,7.052 L385.573,7.052 C388.268,7.052 390.000,8.788 390.000,11.832 L390.000,11.874 C390.000,14.876 388.353,16.697 385.573,16.740 ZM388.610,11.874 C388.610,9.560 387.455,8.338 385.637,8.338 L384.974,8.338 L384.974,15.476 L385.637,15.476 C387.520,15.454 388.610,14.190 388.610,11.917 L388.610,11.874 ZM374.200,69.867 L374.200,77.026 L372.874,77.026 L372.874,65.708 L374.200,65.708 L374.200,67.294 C374.606,66.287 375.398,65.494 376.616,65.580 L376.616,67.101 L376.574,67.101 C375.227,67.101 374.200,67.980 374.200,69.867 ZM367.895,134.343 C364.364,144.549 357.752,152.236 348.792,152.236 C339.652,152.236 333.205,144.706 329.743,134.749 C323.343,128.362 323.824,123.380 325.161,120.483 C324.856,118.314 321.400,90.114 348.113,90.114 C363.670,90.114 375.615,100.733 371.582,119.563 C373.171,122.198 374.579,127.419 367.895,134.343 ZM356.140,110.103 C351.850,114.301 343.875,120.022 331.828,120.733 C332.930,134.228 339.208,147.354 348.792,147.354 C359.084,147.354 365.562,132.219 365.913,117.745 C362.401,116.242 358.178,113.777 356.140,110.103 ZM368.853,75.932 C369.560,75.932 370.073,75.718 370.821,75.225 L370.949,76.511 C370.137,77.004 369.560,77.197 368.661,77.197 C366.715,77.197 365.004,75.311 365.004,71.602 L365.004,71.303 C365.004,67.466 366.480,65.537 368.191,65.537 C369.944,65.537 371.207,67.530 371.207,71.110 L371.207,71.967 L366.330,71.967 C366.416,74.668 367.507,75.932 368.853,75.932 ZM369.923,70.852 C369.923,68.431 369.217,66.758 368.191,66.758 C367.186,66.758 366.394,68.109 366.330,70.852 L369.923,70.852 ZM362.119,69.159 C362.119,67.573 361.541,66.694 360.535,66.694 C359.530,66.694 358.740,67.723 358.740,69.288 L358.740,77.026 L357.413,77.026 L357.413,65.708 L358.740,65.708 L358.740,67.294 C359.146,66.351 359.808,65.515 360.984,65.515 C362.482,65.515 363.445,66.780 363.445,68.923 L363.445,77.026 L362.119,77.026 L362.119,69.159 ZM358.535,57.736 C357.401,57.736 356.696,56.707 356.268,55.592 L356.268,57.542 L354.942,57.542 L354.942,42.410 L356.268,42.410 L356.268,48.197 C356.696,47.061 357.401,46.032 358.535,46.032 C360.032,46.032 361.337,47.833 361.337,51.605 L361.337,52.163 C361.337,55.892 360.032,57.736 358.535,57.736 ZM359.990,51.648 C359.990,48.840 359.198,47.275 358.171,47.275 C357.166,47.275 356.225,48.819 356.225,51.584 L356.225,52.184 C356.225,54.949 357.166,56.492 358.171,56.492 C359.198,56.492 359.990,54.927 359.990,52.120 L359.990,51.648 ZM355.383,65.708 L355.383,76.511 C355.383,78.826 354.078,79.855 351.919,79.855 C351.062,79.855 350.229,79.705 349.458,79.426 L349.458,78.119 C350.229,78.419 351.190,78.633 351.854,78.633 C353.265,78.633 354.035,77.990 354.035,76.489 L354.035,74.260 C353.607,75.375 352.902,76.404 351.769,76.404 C350.314,76.404 348.988,74.668 348.988,71.046 L348.988,70.874 C348.988,67.273 350.314,65.515 351.769,65.515 C352.902,65.515 353.607,66.544 354.035,67.659 L354.035,65.708 L355.383,65.708 ZM352.132,66.758 C351.148,66.758 350.314,68.216 350.314,70.895 L350.314,71.024 C350.314,73.724 351.148,75.161 352.132,75.161 C353.095,75.161 354.078,73.703 354.078,71.046 L354.078,70.895 C354.078,68.237 353.095,66.758 352.132,66.758 ZM350.922,56.450 C351.628,56.450 352.142,56.235 352.889,55.742 L353.018,57.028 C352.205,57.521 351.628,57.714 350.729,57.714 C348.783,57.714 347.073,55.828 347.073,52.120 L347.073,51.819 C347.073,47.983 348.548,46.053 350.259,46.053 C352.012,46.053 353.275,48.047 353.275,51.627 L353.275,52.484 L348.399,52.484 C348.484,55.185 349.575,56.450 350.922,56.450 ZM351.992,51.370 C351.992,48.947 351.285,47.275 350.259,47.275 C349.254,47.275 348.462,48.626 348.399,51.370 L351.992,51.370 ZM345.844,77.026 L345.844,65.708 L347.192,65.708 L347.192,77.026 L345.844,77.026 ZM345.824,61.893 L347.213,61.893 L347.213,63.650 L345.824,63.650 L345.824,61.893 ZM341.333,71.860 C339.814,70.403 339.215,69.481 339.215,68.259 L339.215,68.216 C339.215,66.544 340.456,65.558 341.953,65.558 C342.680,65.558 343.215,65.665 343.814,65.923 L343.814,67.273 C343.193,66.952 342.594,66.801 341.953,66.801 C341.140,66.801 340.541,67.316 340.541,68.152 L340.541,68.194 C340.541,68.902 340.905,69.438 342.210,70.724 C343.729,72.246 344.306,73.167 344.306,74.389 L344.306,74.432 C344.306,76.125 343.001,77.175 341.504,77.175 C340.670,77.175 339.964,76.983 339.237,76.640 L339.237,75.289 C340.029,75.697 340.798,75.954 341.483,75.954 C342.316,75.954 342.980,75.396 342.980,74.496 L342.980,74.453 C342.980,73.746 342.594,73.060 341.333,71.860 ZM342.649,57.628 L340.553,45.668 L338.437,57.628 L337.068,57.628 L334.565,42.538 L336.020,42.538 L337.795,54.584 L339.934,42.538 L341.217,42.538 L343.334,54.584 L345.131,42.538 L346.542,42.538 L344.040,57.628 L342.649,57.628 ZM338.105,71.110 L338.105,71.967 L333.228,71.967 C333.314,74.668 334.404,75.932 335.752,75.932 C336.458,75.932 336.971,75.718 337.720,75.225 L337.848,76.511 C337.036,77.004 336.458,77.197 335.560,77.197 C333.614,77.197 331.902,75.311 331.902,71.602 L331.902,71.303 C331.902,67.466 333.378,65.537 335.089,65.537 C336.843,65.537 338.105,67.530 338.105,71.110 ZM333.228,70.852 L336.821,70.852 C336.821,68.431 336.116,66.758 335.089,66.758 C334.084,66.758 333.293,68.109 333.228,70.852 ZM325.658,77.026 L323.712,77.026 L323.712,62.021 L325.658,62.021 C328.589,62.021 330.577,64.508 330.577,69.309 L330.577,69.738 C330.577,74.539 328.589,77.026 325.658,77.026 ZM329.166,69.309 C329.166,65.194 327.669,63.286 325.723,63.286 L325.102,63.286 L325.102,75.761 L325.744,75.761 C327.733,75.761 329.166,73.853 329.166,69.738 L329.166,69.309 ZM384.583,150.122 C384.553,146.522 384.612,142.668 384.849,139.032 L389.709,139.350 C389.399,144.097 389.402,149.254 389.511,153.669 C387.626,152.129 385.917,150.955 384.583,150.122 ZM331.568,146.474 L333.311,150.336 C333.346,150.415 337.085,158.565 343.690,165.060 L344.421,165.777 L344.421,205.555 C345.682,205.611 346.963,205.648 348.264,205.648 C348.482,205.648 348.698,205.646 348.917,205.645 C350.232,205.636 351.528,205.589 352.809,205.522 L352.809,165.777 L353.538,165.060 C360.145,158.565 363.881,150.415 363.918,150.334 L365.664,146.482 L367.930,149.661 L379.332,153.843 C379.444,153.894 384.764,156.435 390.113,162.146 C387.916,169.208 388.261,176.175 388.553,179.075 C387.411,183.034 387.362,189.328 393.869,196.518 C394.232,197.500 394.622,198.444 395.029,199.362 C392.517,200.585 388.990,201.526 384.064,201.526 C383.569,201.526 383.055,201.512 382.530,201.492 C374.989,208.005 360.426,210.444 348.952,210.527 C348.719,210.528 348.485,210.529 348.253,210.529 C333.626,210.530 321.301,207.183 314.754,201.490 C314.212,201.511 313.678,201.526 313.165,201.526 C299.353,201.526 296.494,194.146 296.370,193.815 L296.247,193.475 L296.227,193.113 C294.638,164.917 317.664,153.950 317.897,153.843 L318.076,153.769 L329.321,149.626 L331.568,146.474 ZM366.455,155.989 C365.069,158.418 362.939,161.771 360.110,165.123 L373.414,165.752 L366.455,155.989 ZM357.680,205.126 C359.551,204.916 361.367,204.652 363.104,204.324 L363.104,170.153 L357.680,169.896 L357.680,205.126 ZM334.125,204.421 C335.857,204.742 337.674,204.997 339.549,205.194 L339.549,169.896 L334.125,170.153 L334.125,204.421 ZM337.117,165.123 C334.289,161.771 332.159,158.418 330.774,155.989 L323.814,165.752 L337.117,165.123 ZM422.042,218.674 C422.042,218.674 423.691,222.960 423.712,223.027 L421.040,226.828 L415.140,226.828 L412.468,223.027 C412.457,223.006 414.138,218.674 414.138,218.674 C414.336,218.703 421.844,218.703 422.042,218.674 ZM423.468,135.980 L423.911,143.742 C421.863,143.387 419.728,143.195 417.516,143.190 L417.928,135.980 L423.468,135.980 ZM437.101,193.528 C433.549,203.600 426.975,211.155 418.094,211.155 C408.873,211.155 402.394,203.490 398.953,193.402 C392.929,187.244 393.305,182.421 394.574,179.545 C394.543,179.542 394.513,179.541 394.483,179.538 C394.483,179.538 389.635,149.032 417.415,149.032 C432.914,149.032 444.822,159.573 440.924,178.271 C442.582,180.862 444.274,186.280 437.101,193.528 ZM425.442,169.022 C421.154,173.220 413.179,178.940 401.130,179.651 C402.232,193.146 408.509,206.273 418.094,206.273 C428.386,206.273 434.864,191.138 435.215,176.663 C431.703,175.160 427.481,172.695 425.442,169.022 ZM387.372,212.761 L387.551,212.688 L401.355,207.603 L403.221,212.116 L399.481,213.494 L413.550,260.023 L415.321,229.015 L420.860,229.015 L422.662,260.596 L436.885,213.562 L432.978,212.123 L434.829,207.606 L448.807,212.761 C449.040,212.868 472.068,223.835 470.477,252.032 L470.457,252.393 L470.333,252.733 C470.212,253.065 467.349,260.443 453.539,260.444 C453.044,260.444 452.530,260.430 452.007,260.410 C444.466,266.923 429.902,269.363 418.429,269.445 C418.196,269.446 417.961,269.448 417.728,269.448 C403.102,269.448 390.777,266.101 384.229,260.408 C383.687,260.429 383.152,260.443 382.640,260.444 C368.828,260.444 365.969,253.065 365.848,252.733 L365.724,252.393 L365.703,252.032 C364.113,223.835 387.139,212.868 387.372,212.761 ZM453.689,228.975 C455.470,238.687 454.422,250.687 453.865,255.552 C462.334,255.473 465.041,252.193 465.641,251.246 C466.467,232.881 455.604,222.990 449.999,219.134 C451.795,221.848 452.980,225.115 453.689,228.975 ZM431.864,252.844 C432.346,252.878 433.205,252.924 434.361,252.924 C437.786,252.924 443.720,252.514 449.499,250.189 L449.499,247.146 C441.843,251.096 432.016,249.941 431.864,249.925 L431.864,252.844 ZM370.541,251.263 C371.094,252.140 373.785,255.480 382.368,255.551 C382.317,254.682 382.260,253.622 382.203,252.404 C381.759,247.401 381.358,239.649 382.180,232.482 C382.190,232.345 382.196,232.204 382.204,232.066 L382.233,232.068 C382.360,231.020 382.512,229.984 382.697,228.975 C383.432,224.966 384.681,221.593 386.595,218.820 C381.110,222.409 369.670,232.223 370.541,251.263 ZM397.517,278.234 C398.201,278.234 398.565,278.341 399.057,278.577 L399.057,280.056 C398.501,279.734 398.094,279.585 397.602,279.585 C396.062,279.585 394.822,281.492 394.822,285.608 L394.822,286.037 C394.822,290.216 396.062,292.060 397.602,292.060 C398.116,292.060 398.565,291.910 399.100,291.588 L399.100,292.981 C398.629,293.260 398.116,293.410 397.453,293.410 C395.185,293.410 393.410,291.052 393.410,286.037 L393.410,285.608 C393.410,280.571 395.314,278.234 397.517,278.234 ZM401.484,305.091 L401.484,305.519 C401.484,310.321 399.495,312.807 396.565,312.807 L394.619,312.807 L394.619,297.803 L396.565,297.803 C399.495,297.803 401.484,300.290 401.484,305.091 ZM396.009,311.542 L396.651,311.542 C398.640,311.542 400.072,309.635 400.072,305.519 L400.072,305.091 C400.072,300.976 398.576,299.068 396.629,299.068 L396.009,299.068 L396.009,311.542 ZM400.809,293.324 L400.809,282.007 L402.135,282.007 L402.135,283.593 C402.541,282.586 403.333,281.792 404.552,281.878 L404.552,283.400 L404.509,283.400 C403.162,283.400 402.135,284.279 402.135,286.165 L402.135,293.324 L400.809,293.324 ZM404.670,299.432 L403.279,299.432 L403.279,297.675 L404.670,297.675 L404.670,299.432 ZM404.648,312.807 L403.301,312.807 L403.301,301.490 L404.648,301.490 L404.648,312.807 ZM408.313,281.835 C410.067,281.835 411.329,283.828 411.329,287.408 L411.329,288.266 L406.453,288.266 C406.538,290.966 407.629,292.231 408.976,292.231 C409.682,292.231 410.195,292.017 410.944,291.524 L411.072,292.810 C410.260,293.303 409.682,293.496 408.784,293.496 C406.838,293.496 405.127,291.609 405.127,287.901 L405.127,287.601 C405.127,283.764 406.602,281.835 408.313,281.835 ZM410.045,287.151 C410.045,284.729 409.340,283.057 408.313,283.057 C407.308,283.057 406.517,284.407 406.453,287.151 L410.045,287.151 ZM408.112,303.076 C408.519,302.069 409.310,301.275 410.529,301.361 L410.529,302.883 L410.486,302.883 C409.139,302.883 408.112,303.762 408.112,305.648 L408.112,312.807 L406.786,312.807 L406.786,301.490 L408.112,301.490 L408.112,303.076 ZM414.290,301.318 C416.044,301.318 417.306,303.311 417.306,306.891 L417.306,307.748 L412.430,307.748 C412.515,310.449 413.606,311.714 414.953,311.714 C415.659,311.714 416.173,311.499 416.921,311.007 L417.049,312.292 C416.237,312.786 415.659,312.978 414.761,312.978 C412.815,312.978 411.104,311.093 411.104,307.384 L411.104,307.084 C411.104,303.247 412.579,301.318 414.290,301.318 ZM416.023,306.634 C416.023,304.212 415.317,302.540 414.290,302.540 C413.285,302.540 412.494,303.891 412.430,306.634 L416.023,306.634 ZM415.113,283.143 C414.365,283.143 413.745,283.314 413.082,283.657 L413.082,282.371 C413.745,282.050 414.429,281.878 415.285,281.878 C417.252,281.878 418.450,283.078 418.450,285.308 L418.450,293.324 L417.102,293.324 L417.102,291.802 C416.653,292.874 415.969,293.517 414.942,293.517 C413.509,293.517 412.483,292.081 412.483,290.066 L412.483,289.852 C412.483,287.623 413.552,286.229 415.327,286.229 C416.033,286.229 416.611,286.422 417.124,286.658 L417.124,285.436 C417.124,283.979 416.439,283.143 415.113,283.143 ZM415.562,287.365 C414.408,287.365 413.787,288.330 413.787,289.766 L413.787,289.980 C413.787,291.395 414.343,292.359 415.327,292.359 C416.397,292.359 417.124,291.224 417.124,289.937 L417.124,287.773 C416.632,287.537 416.097,287.365 415.562,287.365 ZM422.053,301.340 C422.652,301.340 423.101,301.468 423.464,301.704 L423.464,303.119 C423.058,302.819 422.630,302.626 422.117,302.626 C421.069,302.626 419.935,303.933 419.935,306.956 L419.935,307.384 C419.935,310.471 421.026,311.693 422.202,311.693 C422.630,311.693 423.079,311.478 423.464,311.178 L423.464,312.529 C423.058,312.807 422.630,312.978 422.031,312.978 C420.171,312.978 418.588,311.200 418.588,307.341 L418.588,306.998 C418.588,303.162 420.235,301.340 422.053,301.340 ZM423.001,292.188 C423.194,292.188 423.472,292.145 423.664,292.081 L423.664,293.238 C423.408,293.346 423.001,293.431 422.702,293.431 C421.483,293.431 420.606,292.938 420.606,291.416 L420.606,283.164 L419.644,283.164 L419.644,282.007 L420.606,282.007 L420.606,278.899 L421.953,278.899 L421.953,282.007 L423.643,282.007 L423.643,283.164 L421.953,283.164 L421.953,291.095 C421.953,291.952 422.338,292.188 423.001,292.188 ZM425.289,293.324 L425.289,282.007 L426.636,282.007 L426.636,293.324 L425.289,293.324 ZM425.267,278.191 L426.657,278.191 L426.657,279.949 L425.267,279.949 L425.267,278.191 ZM425.214,298.382 L426.562,298.382 L426.562,301.490 L428.252,301.490 L428.252,302.647 L426.562,302.647 L426.562,310.578 C426.562,311.435 426.947,311.671 427.610,311.671 C427.803,311.671 428.080,311.628 428.273,311.564 L428.273,312.721 C428.016,312.829 427.610,312.914 427.310,312.914 C426.091,312.914 425.214,312.421 425.214,310.899 L425.214,302.647 L424.252,302.647 L424.252,301.490 L425.214,301.490 L425.214,298.382 ZM430.891,293.388 L428.218,282.007 L429.565,282.007 L431.512,291.117 L433.479,282.007 L434.784,282.007 L432.132,293.388 L430.891,293.388 ZM432.506,301.318 C434.281,301.318 435.778,303.419 435.778,306.998 L435.778,307.320 C435.778,310.899 434.281,313.000 432.485,313.000 C430.710,313.000 429.213,310.899 429.213,307.320 L429.213,306.998 C429.213,303.419 430.710,301.318 432.506,301.318 ZM430.539,307.320 C430.539,310.085 431.394,311.778 432.485,311.778 C433.576,311.778 434.431,310.085 434.431,307.320 L434.431,306.977 C434.431,304.212 433.576,302.540 432.485,302.540 C431.394,302.540 430.539,304.212 430.539,306.977 L430.539,307.320 ZM435.467,287.601 C435.467,283.764 436.943,281.835 438.654,281.835 C440.407,281.835 441.669,283.828 441.669,287.408 L441.669,288.266 L436.793,288.266 C436.878,290.966 437.969,292.231 439.317,292.231 C440.022,292.231 440.536,292.017 441.284,291.524 L441.413,292.810 C440.600,293.303 440.022,293.496 439.124,293.496 C437.178,293.496 435.467,291.609 435.467,287.901 L435.467,287.601 ZM440.386,287.151 C440.386,284.729 439.680,283.057 438.654,283.057 C437.648,283.057 436.857,284.407 436.793,287.151 L440.386,287.151 ZM438.750,303.076 C439.157,302.069 439.948,301.275 441.167,301.361 L441.167,302.883 L441.124,302.883 C439.777,302.883 438.750,303.762 438.750,305.648 L438.750,312.807 L437.424,312.807 L437.424,301.490 L438.750,301.490 L438.750,303.076 Z"/>
<g filter="url(#Filter_0)">
<path fill-rule="evenodd"  fill="rgb(236, 236, 236)"
 d="M273.394,152.892 L251.727,131.115 C250.405,129.785 248.261,129.785 246.940,131.115 C245.618,132.444 245.618,134.597 246.940,135.926 L262.826,151.895 L216.810,151.895 C214.940,151.895 213.425,153.418 213.425,155.298 C213.425,157.177 214.940,158.700 216.810,158.700 L262.826,158.700 L246.940,174.670 C245.618,175.999 245.618,178.152 246.940,179.481 C247.601,180.146 248.468,180.478 249.334,180.478 C250.200,180.478 251.068,180.146 251.727,179.481 L273.394,157.704 C274.716,156.374 274.716,154.221 273.394,152.892 L273.394,152.892 Z"/>
</g>
<g filter="url(#Filter_1)">
<path fill-rule="evenodd"  fill="rgb(236, 236, 236)"
 d="M213.785,258.326 L213.745,259.038 L213.501,259.709 C213.264,260.358 207.629,274.872 180.454,274.872 C179.477,274.872 178.467,274.846 177.437,274.806 C162.597,287.615 133.937,292.414 111.359,292.576 C110.901,292.579 110.439,292.581 109.983,292.581 C82.834,292.581 59.720,286.725 46.370,276.662 C45.442,276.694 44.526,276.717 43.640,276.717 C14.014,276.717 7.871,260.894 7.612,260.186 L7.346,259.455 L7.303,258.679 C3.891,198.222 53.876,179.419 54.393,179.181 C53.047,148.338 53.930,127.941 55.506,114.543 C56.037,106.060 61.300,54.212 110.928,52.990 C135.778,52.375 153.296,69.595 161.246,94.504 C162.366,97.312 163.608,101.764 164.628,108.796 C164.991,111.048 165.287,113.338 165.512,115.663 C165.512,115.663 165.480,115.668 165.459,115.672 C166.775,128.868 167.331,148.760 165.898,178.691 L171.128,181.083 C171.602,181.302 216.915,202.871 213.785,258.326 ZM104.021,282.856 C106.413,282.941 108.828,282.993 111.291,282.975 C113.290,282.961 115.269,282.899 117.231,282.819 L143.373,215.685 L121.465,215.975 L110.876,246.034 L99.945,215.977 L77.863,215.685 L104.021,282.856 ZM127.384,188.182 C130.489,183.361 133.591,178.559 136.078,174.711 C135.263,173.506 134.059,171.376 133.051,168.224 C126.798,174.291 119.272,177.930 110.628,177.930 C102.154,177.930 94.863,174.628 88.800,169.104 C87.782,172.235 86.571,174.338 85.773,175.513 C93.467,187.527 102.888,202.232 106.382,207.675 L107.125,207.675 L110.732,217.592 L113.097,210.879 L113.125,210.889 C113.468,209.979 114.049,209.052 114.704,208.004 C115.459,206.795 116.542,205.087 117.849,203.038 C120.442,198.973 123.912,193.571 127.384,188.182 ZM67.850,118.664 C66.437,118.481 65.001,118.228 63.547,117.933 C61.843,123.704 62.514,132.344 72.961,143.019 C70.365,135.407 68.649,127.099 67.850,118.664 ZM75.969,178.017 L62.483,205.878 L94.107,206.297 L75.985,178.015 L75.969,178.017 ZM125.088,95.063 C117.403,102.583 101.037,118.127 77.551,119.096 C80.400,144.502 92.509,168.328 110.628,168.328 C129.872,168.328 142.331,141.465 144.125,114.373 C136.181,111.913 128.314,106.502 125.088,95.063 ZM157.118,116.262 C156.013,116.255 154.840,116.210 153.610,116.118 C152.896,125.559 151.002,134.853 148.035,143.263 C159.782,131.393 159.449,122.013 157.118,116.262 ZM145.304,178.104 C139.048,187.779 131.897,198.867 127.144,206.297 L158.747,205.878 L145.304,178.104 ZM174.695,248.717 C159.630,256.489 140.290,254.215 139.990,254.183 L139.990,259.927 C140.939,259.991 142.630,260.084 144.905,260.084 C151.645,260.084 163.324,259.276 174.695,254.704 L174.695,248.717 ZM142.830,15.661 L142.830,15.318 C142.820,11.481 144.462,9.655 146.281,9.650 C146.880,9.649 147.330,9.776 147.694,10.011 L147.698,11.425 C147.291,11.126 146.863,10.934 146.349,10.936 C145.300,10.938 144.169,12.249 144.178,15.271 L144.179,15.700 C144.187,18.786 145.282,20.005 146.458,20.003 C146.887,20.001 147.335,19.786 147.720,19.484 L147.723,20.834 C147.317,21.114 146.890,21.287 146.291,21.289 C144.429,21.294 142.841,19.519 142.830,15.661 ZM139.713,9.817 L141.061,9.814 L141.091,21.131 L139.743,21.134 L139.713,9.817 ZM139.681,6.002 L141.072,5.999 L141.077,7.756 L139.686,7.760 L139.681,6.002 ZM133.528,40.633 L133.498,29.316 L134.825,29.312 L134.829,30.899 C135.233,29.891 136.022,29.095 137.242,29.177 L137.246,30.699 L137.203,30.700 C135.855,30.703 134.830,31.585 134.836,33.471 L134.855,40.630 L133.528,40.633 ZM136.343,13.277 C136.339,11.691 135.758,10.814 134.753,10.817 C133.747,10.820 132.958,11.850 132.962,13.415 L132.983,21.153 L131.656,21.156 L131.616,6.024 L132.942,6.020 L132.957,11.422 C133.361,10.478 134.022,9.640 135.199,9.636 C136.697,9.632 137.663,10.895 137.669,13.038 L137.691,21.140 L136.364,21.144 L136.343,13.277 ZM131.846,35.579 L126.968,35.592 C127.061,38.292 128.155,39.554 129.503,39.551 C130.209,39.549 130.722,39.333 131.470,38.838 L131.601,40.124 C130.790,40.619 130.212,40.814 129.314,40.816 C127.367,40.821 125.650,38.939 125.641,35.231 L125.639,34.931 C125.630,31.094 127.101,29.162 128.812,29.157 C130.567,29.153 131.835,31.142 131.844,34.722 L131.846,35.579 ZM128.816,30.379 C127.810,30.381 127.022,31.734 126.965,34.478 L130.559,34.468 C130.553,32.046 129.842,30.376 128.816,30.379 ZM127.164,21.361 C126.030,21.364 125.321,20.337 124.891,19.223 L124.903,23.960 L123.577,23.964 L123.539,9.861 L124.866,9.857 L124.871,11.829 C125.296,10.692 125.999,9.661 127.133,9.658 C128.632,9.654 129.941,11.451 129.951,15.224 L129.953,15.780 C129.963,19.510 128.662,21.357 127.164,21.361 ZM128.604,15.270 C128.596,12.463 127.800,10.900 126.773,10.902 C125.767,10.905 124.830,12.451 124.838,15.216 L124.839,15.816 C124.846,18.581 125.791,20.121 126.797,20.119 C127.824,20.116 128.612,18.549 128.605,15.742 L128.604,15.270 ZM124.094,40.658 L122.768,40.662 L122.747,32.796 C122.742,31.210 122.162,30.332 121.156,30.335 C120.151,30.338 119.362,31.369 119.366,32.933 L119.387,40.671 L118.060,40.674 L118.030,29.357 L119.357,29.354 L119.361,30.940 C119.765,29.995 120.426,29.158 121.603,29.155 C123.101,29.151 124.067,30.413 124.073,32.556 L124.094,40.658 ZM120.271,19.665 C119.825,20.738 119.142,21.383 118.114,21.385 C116.680,21.389 115.650,19.955 115.645,17.941 L115.644,17.727 C115.638,15.497 116.704,14.101 118.480,14.096 C119.186,14.094 119.765,14.286 120.279,14.521 L120.276,13.299 C120.272,11.841 119.585,11.007 118.258,11.010 C117.509,11.013 116.889,11.186 116.226,11.531 L116.223,10.244 C116.886,9.921 117.570,9.748 118.426,9.746 C120.394,9.740 121.596,10.938 121.602,13.167 L121.623,21.183 L120.275,21.186 L120.271,19.665 ZM120.282,15.635 C119.789,15.401 119.254,15.231 118.718,15.232 C117.563,15.235 116.945,16.201 116.949,17.638 L116.949,17.851 C116.953,19.266 117.512,20.229 118.497,20.226 C119.567,20.224 120.291,19.086 120.287,17.800 L120.282,15.635 ZM112.748,14.047 L112.767,21.206 L111.440,21.210 L111.410,9.893 L112.737,9.889 L112.741,11.475 C113.145,10.467 113.935,9.672 115.155,9.755 L115.159,11.276 L115.116,11.276 C113.768,11.280 112.743,12.161 112.748,14.047 ZM114.656,31.317 L114.650,29.366 L115.998,29.362 L116.027,40.165 C116.033,42.480 114.730,43.512 112.569,43.518 C111.713,43.521 110.878,43.372 110.107,43.096 L110.103,41.789 C110.875,42.086 111.838,42.299 112.502,42.297 C113.914,42.293 114.683,41.648 114.679,40.147 L114.673,37.918 C114.248,39.034 113.544,40.064 112.410,40.068 C110.955,40.072 109.624,38.339 109.614,34.717 L109.614,34.545 C109.604,30.944 110.926,29.183 112.381,29.179 C113.515,29.176 114.224,30.203 114.656,31.317 ZM110.941,34.563 L110.941,34.692 C110.948,37.392 111.786,38.826 112.771,38.824 C113.734,38.821 114.714,37.361 114.707,34.704 L114.707,34.553 C114.700,31.895 113.711,30.419 112.749,30.422 C111.764,30.424 110.934,31.884 110.941,34.563 ZM106.485,40.705 L106.455,29.388 L107.803,29.384 L107.833,40.701 L106.485,40.705 ZM106.423,25.574 L107.814,25.570 L107.819,27.327 L106.428,27.330 L106.423,25.574 ZM102.627,13.946 L102.626,13.517 C102.613,8.609 104.725,6.095 107.271,6.089 C108.063,6.087 108.620,6.256 109.156,6.555 L109.159,8.034 C108.517,7.650 107.939,7.437 107.297,7.439 C105.542,7.444 104.028,9.441 104.039,13.492 L104.040,13.963 C104.051,18.207 105.533,20.090 107.309,20.085 C107.630,20.084 107.822,20.041 108.122,19.932 L108.107,14.574 L106.117,14.580 L106.114,13.315 L109.388,13.306 L109.408,20.808 C108.595,21.218 108.040,21.348 107.226,21.349 C104.723,21.356 102.641,18.961 102.627,13.946 ZM104.427,30.958 C103.806,30.639 103.206,30.490 102.564,30.492 C101.751,30.494 101.153,31.010 101.155,31.846 L101.156,31.889 C101.158,32.596 101.523,33.130 102.831,34.414 C104.355,35.931 104.935,36.851 104.938,38.072 L104.938,38.115 C104.943,39.809 103.640,40.863 102.142,40.867 C101.308,40.869 100.601,40.678 99.873,40.337 L99.869,38.987 C100.662,39.391 101.433,39.647 102.118,39.645 C102.952,39.643 103.614,39.084 103.612,38.184 L103.612,38.141 C103.610,37.433 103.223,36.748 101.957,35.552 C100.434,34.098 99.832,33.178 99.829,31.956 L99.829,31.913 C99.824,30.242 101.063,29.253 102.561,29.249 C103.288,29.247 103.823,29.352 104.424,29.608 L104.427,30.958 ZM96.384,39.639 C97.090,39.637 97.604,39.421 98.351,38.926 L98.483,40.212 C97.671,40.707 97.094,40.902 96.195,40.904 C94.248,40.909 92.531,39.027 92.521,35.319 L92.520,35.019 C92.510,31.183 93.982,29.250 95.693,29.245 C97.448,29.241 98.716,31.230 98.725,34.810 L98.728,35.667 L93.849,35.680 C93.942,38.381 95.036,39.643 96.384,39.639 ZM97.440,34.556 C97.434,32.134 96.724,30.464 95.697,30.467 C94.691,30.470 93.903,31.822 93.846,34.566 L97.440,34.556 ZM95.456,20.159 C96.162,20.157 96.675,19.941 97.423,19.447 L97.554,20.733 C96.743,21.228 96.165,21.422 95.267,21.425 C93.320,21.430 91.602,19.548 91.593,15.840 L91.592,15.540 C91.582,11.703 93.053,9.771 94.765,9.766 C96.520,9.761 97.788,11.751 97.797,15.331 L97.799,16.188 L92.921,16.201 C93.013,18.901 94.108,20.163 95.456,20.159 ZM96.512,15.077 C96.506,12.655 95.795,10.985 94.768,10.987 C93.763,10.990 92.974,12.343 92.918,15.086 L96.512,15.077 ZM86.288,40.759 L84.341,40.764 L84.301,25.760 L86.248,25.755 C89.180,25.747 91.176,28.228 91.189,33.029 L91.190,33.458 C91.203,38.259 89.220,40.751 86.288,40.759 ZM89.777,33.033 C89.766,28.918 88.263,27.015 86.316,27.020 L85.695,27.022 L85.728,39.496 L86.370,39.494 C88.361,39.488 89.789,37.577 89.778,33.462 L89.777,33.033 ZM88.486,6.139 L89.834,6.135 L89.874,21.268 L88.526,21.271 L88.486,6.139 ZM83.499,21.477 C81.723,21.482 80.220,19.385 80.211,15.806 L80.210,15.485 C80.201,11.905 81.693,9.801 83.490,9.796 C85.266,9.791 86.769,11.888 86.779,15.467 L86.779,15.789 C86.789,19.368 85.297,21.473 83.499,21.477 ZM85.430,15.449 C85.423,12.684 84.563,11.015 83.471,11.017 C82.380,11.020 81.529,12.694 81.536,15.459 L81.537,15.803 C81.545,18.567 82.404,20.258 83.496,20.255 C84.587,20.252 85.439,18.557 85.431,15.792 L85.430,15.449 ZM75.754,21.498 C74.835,21.501 74.021,21.224 73.142,20.754 L73.138,19.233 C74.146,19.852 74.981,20.150 75.687,20.148 C76.821,20.145 77.590,19.435 77.587,18.214 L77.587,18.171 C77.583,17.078 77.196,16.350 75.650,14.339 C73.696,11.837 73.138,10.960 73.134,9.459 L73.134,9.416 C73.128,7.466 74.516,6.112 76.249,6.107 C77.169,6.105 77.833,6.317 78.541,6.722 L78.544,8.244 C77.729,7.710 77.044,7.455 76.338,7.457 C75.290,7.460 74.521,8.212 74.524,9.327 L74.524,9.370 C74.527,10.377 74.935,11.083 76.482,13.008 C78.371,15.318 78.973,16.453 78.977,18.103 L78.977,18.146 C78.983,20.161 77.574,21.493 75.754,21.498 Z"/>
</g>
<g filter="url(#Filter_2)">
<path fill-rule="evenodd"  fill="rgb(32, 86, 133)"
 d="M218.858,85.206 L206.936,73.259 L109.429,170.972 L11.923,73.259 L0.001,85.206 L97.507,182.919 L0.001,280.631 L11.923,292.579 L109.429,194.866 L206.936,292.579 L218.858,280.631 L121.351,182.919 L218.858,85.206 Z"/>
</g>
</svg>
