<svg
 xmlns="http://www.w3.org/2000/svg"
 xmlns:xlink="http://www.w3.org/1999/xlink"
 width="117px" height="96px">
<path fill-rule="evenodd"  fill="rgb(245, 130, 32)"
 d="M115.664,55.476 L107.055,62.723 L111.454,76.035 C111.721,76.852 111.447,77.750 110.766,78.266 C110.413,78.535 109.996,78.668 109.574,78.668 C109.183,78.668 108.792,78.551 108.452,78.316 L96.732,70.199 L84.965,78.320 C84.265,78.797 83.328,78.781 82.651,78.262 C81.970,77.742 81.699,76.844 81.970,76.031 L86.412,62.723 L77.760,55.480 C77.118,54.942 76.878,54.055 77.160,53.262 C77.447,52.469 78.190,51.942 79.025,51.942 L89.105,51.942 L94.963,40.066 C95.629,38.707 97.842,38.709 98.507,40.064 L104.369,51.942 L114.395,51.942 C115.231,51.942 115.973,52.469 116.256,53.262 C116.542,54.051 116.303,54.938 115.664,55.476 ZM103.143,55.942 C102.392,55.942 101.704,55.512 101.371,54.832 L96.735,45.443 L92.104,54.832 C91.771,55.512 91.082,55.942 90.332,55.942 L84.520,55.942 L89.987,60.519 C90.618,61.047 90.862,61.914 90.598,62.695 L87.611,71.645 L95.617,66.121 C95.954,65.891 96.344,65.773 96.735,65.773 C97.126,65.773 97.517,65.891 97.858,66.125 L105.828,71.648 L102.868,62.691 C102.613,61.910 102.853,61.051 103.480,60.524 L108.924,55.942 L103.143,55.942 ZM93.520,36.463 C92.425,36.463 91.539,35.568 91.539,34.463 L91.539,20.232 L77.443,20.232 C76.348,20.232 75.462,19.338 75.462,18.232 L75.462,4.000 L44.051,4.000 L44.051,58.250 C44.051,59.355 43.165,60.250 42.070,60.250 C40.975,60.250 40.089,59.355 40.089,58.250 L40.089,2.000 C40.089,0.894 40.975,-0.000 42.070,-0.000 L77.443,-0.000 C77.708,-0.000 77.966,0.054 78.206,0.155 C78.447,0.257 78.664,0.404 78.846,0.588 L94.918,16.816 C95.101,17.000 95.247,17.219 95.347,17.463 C95.447,17.704 95.501,17.965 95.501,18.232 L95.501,34.463 C95.501,35.568 94.615,36.463 93.520,36.463 ZM79.424,6.829 L79.424,16.232 L88.738,16.232 L79.424,6.829 ZM79.424,70.176 C79.424,71.281 78.538,72.176 77.443,72.176 L56.351,72.176 C55.256,72.176 54.370,71.281 54.370,70.176 C54.370,69.070 55.256,68.176 56.351,68.176 L77.443,68.176 C78.538,68.176 79.424,69.070 79.424,70.176 ZM71.012,55.188 C72.107,55.188 72.993,56.082 72.993,57.187 C72.993,58.293 72.107,59.187 71.012,59.187 L51.716,59.187 C50.621,59.187 49.735,58.293 49.735,57.187 L49.735,24.725 C49.735,23.619 50.621,22.725 51.716,22.725 C52.811,22.725 53.697,23.619 53.697,24.725 L53.697,39.375 L59.161,33.861 C59.934,33.080 61.188,33.080 61.962,33.861 L66.992,38.939 L76.042,29.803 C76.816,29.022 78.070,29.022 78.844,29.803 C79.618,30.584 79.618,31.850 78.844,32.631 L68.393,43.182 C67.619,43.963 66.365,43.963 65.591,43.182 L60.561,38.104 L53.697,45.032 L53.697,55.188 L71.012,55.188 ZM48.775,75.914 L48.857,76.000 L55.937,76.000 C70.931,76.000 87.635,81.750 87.635,90.000 C87.635,91.106 86.749,92.000 85.654,92.000 L20.278,92.000 L20.278,94.000 C20.278,95.105 19.392,96.000 18.297,96.000 L2.448,96.000 C1.353,96.000 0.467,95.105 0.467,94.000 L0.467,66.000 C0.467,64.894 1.353,64.000 2.448,64.000 L18.297,64.000 C19.392,64.000 20.278,64.894 20.278,66.000 L20.278,68.000 L32.164,68.000 C41.402,68.000 46.382,73.344 48.775,75.914 ZM16.316,68.000 L4.429,68.000 L4.429,92.000 L16.316,92.000 L16.316,68.000 ZM32.164,72.000 L20.278,72.000 L20.278,88.000 L82.806,88.000 C79.796,84.293 69.252,80.000 55.937,80.000 L28.202,80.000 C27.107,80.000 26.221,79.106 26.221,78.000 C26.221,76.895 27.107,76.000 28.202,76.000 L43.141,76.000 C40.742,73.993 37.271,72.000 32.164,72.000 Z"/>
</svg>
