<svg
 xmlns="http://www.w3.org/2000/svg"
 xmlns:xlink="http://www.w3.org/1999/xlink"
 width="48px" height="46px">
<path fill-rule="evenodd"  fill="rgb(255, 255, 255)"
 d="M45.043,15.089 C44.846,15.284 44.588,15.381 44.330,15.381 C44.072,15.381 43.814,15.284 43.618,15.089 C43.224,14.701 43.224,14.071 43.618,13.682 C44.950,12.367 45.684,10.673 45.684,8.913 C45.684,7.153 44.950,5.459 43.618,4.143 C40.954,1.513 36.623,1.511 33.955,4.143 C33.561,4.532 32.923,4.532 32.530,4.143 C32.136,3.755 32.136,3.125 32.530,2.736 C35.961,-0.649 41.619,-0.647 45.043,2.736 C46.757,4.427 47.700,6.621 47.700,8.913 C47.700,11.204 46.757,13.398 45.043,15.089 ZM44.330,25.332 C44.330,31.727 41.246,37.412 36.483,41.056 L38.995,43.535 C39.389,43.924 39.389,44.554 38.995,44.943 C38.798,45.137 38.540,45.234 38.282,45.234 C38.024,45.234 37.766,45.137 37.570,44.943 L34.802,42.210 C31.712,44.115 28.076,45.234 24.172,45.234 C20.267,45.234 16.630,44.114 13.539,42.209 L10.773,44.943 C10.576,45.137 10.318,45.234 10.060,45.234 C9.802,45.234 9.544,45.137 9.347,44.943 C8.954,44.554 8.954,43.924 9.347,43.535 L11.858,41.055 C7.096,37.411 4.012,31.727 4.012,25.332 C4.012,14.358 13.055,5.430 24.172,5.430 C35.288,5.430 44.330,14.358 44.330,25.332 ZM24.172,7.420 C14.168,7.420 6.028,15.456 6.028,25.332 C6.028,35.209 14.168,43.244 24.172,43.244 C34.176,43.244 42.314,35.209 42.314,25.332 C42.314,15.456 34.176,7.420 24.172,7.420 ZM25.180,27.322 L17.116,27.322 C16.559,27.322 16.108,26.877 16.108,26.327 C16.108,25.777 16.559,25.332 17.116,25.332 L24.172,25.332 L24.172,14.386 C24.172,13.836 24.622,13.391 25.180,13.391 C25.737,13.391 26.188,13.836 26.188,14.386 L26.188,26.327 C26.188,26.877 25.737,27.322 25.180,27.322 ZM14.387,4.143 C11.633,1.424 7.479,1.424 4.725,4.143 C1.971,6.862 1.971,10.963 4.725,13.682 C5.119,14.071 5.119,14.701 4.725,15.089 C4.528,15.284 4.270,15.381 4.012,15.381 C3.754,15.381 3.496,15.284 3.300,15.089 C-0.268,11.569 -0.268,6.257 3.300,2.736 C6.867,-0.786 12.245,-0.786 15.812,2.736 C16.206,3.125 16.206,3.755 15.812,4.143 C15.419,4.532 14.781,4.532 14.387,4.143 Z"/>
</svg>
