<svg
 xmlns="http://www.w3.org/2000/svg"
 xmlns:xlink="http://www.w3.org/1999/xlink"
 width="96px" height="96px">
<path fill-rule="evenodd"  fill="rgb(245, 130, 32)"
 d="M86.000,96.000 L10.000,96.000 C4.486,96.000 -0.000,91.516 -0.000,86.000 L-0.000,10.000 C-0.000,4.486 4.486,-0.000 10.000,-0.000 L86.000,-0.000 C91.516,-0.000 96.000,4.486 96.000,10.000 L96.000,86.000 C96.000,91.516 91.516,96.000 86.000,96.000 ZM92.000,10.000 C92.000,6.692 89.308,4.000 86.000,4.000 L10.000,4.000 C6.691,4.000 4.000,6.692 4.000,10.000 L4.000,20.000 L92.000,20.000 L92.000,10.000 ZM92.000,24.000 L4.000,24.000 L4.000,86.000 C4.000,89.309 6.691,92.000 10.000,92.000 L86.000,92.000 C89.308,92.000 92.000,89.309 92.000,86.000 L92.000,24.000 ZM82.000,84.000 L38.000,84.000 C36.894,84.000 36.000,83.106 36.000,82.000 L36.000,70.000 C36.000,68.895 36.894,68.000 38.000,68.000 L82.000,68.000 C83.106,68.000 84.000,68.895 84.000,70.000 L84.000,82.000 C84.000,83.106 83.106,84.000 82.000,84.000 ZM80.000,72.000 L40.000,72.000 L40.000,80.000 L80.000,80.000 L80.000,72.000 ZM82.000,64.000 L38.000,64.000 C36.894,64.000 36.000,63.106 36.000,62.000 L36.000,50.000 C36.000,48.895 36.894,48.000 38.000,48.000 L82.000,48.000 C83.106,48.000 84.000,48.895 84.000,50.000 L84.000,62.000 C84.000,63.106 83.106,64.000 82.000,64.000 ZM80.000,52.000 L40.000,52.000 L40.000,60.000 L80.000,60.000 L80.000,52.000 ZM82.000,44.000 L14.000,44.000 C12.895,44.000 12.000,43.106 12.000,42.000 L12.000,30.000 C12.000,28.895 12.895,28.000 14.000,28.000 L82.000,28.000 C83.106,28.000 84.000,28.895 84.000,30.000 L84.000,42.000 C84.000,43.106 83.106,44.000 82.000,44.000 ZM80.000,32.000 L16.000,32.000 L16.000,40.000 L80.000,40.000 L80.000,32.000 ZM14.000,48.000 L26.000,48.000 C27.106,48.000 28.000,48.895 28.000,50.000 L28.000,82.000 C28.000,83.106 27.106,84.000 26.000,84.000 L14.000,84.000 C12.895,84.000 12.000,83.106 12.000,82.000 L12.000,50.000 C12.000,48.895 12.895,48.000 14.000,48.000 ZM16.000,80.000 L24.000,80.000 L24.000,52.000 L16.000,52.000 L16.000,80.000 ZM16.000,8.000 C18.205,8.000 20.000,9.795 20.000,12.000 C20.000,14.205 18.205,16.000 16.000,16.000 C13.795,16.000 12.000,14.205 12.000,12.000 C12.000,9.795 13.795,8.000 16.000,8.000 ZM16.000,12.000 L16.000,10.000 L15.996,12.000 C15.998,12.000 16.000,12.000 16.000,12.000 ZM28.000,8.000 C30.205,8.000 32.000,9.795 32.000,12.000 C32.000,14.205 30.205,16.000 28.000,16.000 C25.795,16.000 24.000,14.205 24.000,12.000 C24.000,9.795 25.795,8.000 28.000,8.000 ZM28.000,12.000 L28.000,10.000 L27.996,12.000 C27.998,12.000 28.000,12.000 28.000,12.000 ZM40.000,8.000 C42.205,8.000 44.000,9.795 44.000,12.000 C44.000,14.205 42.205,16.000 40.000,16.000 C37.795,16.000 36.000,14.205 36.000,12.000 C36.000,9.795 37.795,8.000 40.000,8.000 ZM40.000,12.000 L40.000,10.000 L39.996,12.000 C39.998,12.000 40.000,12.000 40.000,12.000 Z"/>
</svg>
