<svg
 xmlns="http://www.w3.org/2000/svg"
 xmlns:xlink="http://www.w3.org/1999/xlink"
 width="48px" height="39px">
<path fill-rule="evenodd"  fill="rgb(245, 130, 32)"
 d="M43.000,38.500 L5.000,38.500 C2.243,38.500 0.000,36.258 0.000,33.500 L0.000,5.500 C0.000,2.743 2.243,0.500 5.000,0.500 L43.000,0.500 C45.758,0.500 48.000,2.743 48.000,5.500 L48.000,33.500 C48.000,36.258 45.758,38.500 43.000,38.500 ZM46.000,5.500 C46.000,3.846 44.654,2.500 43.000,2.500 L5.000,2.500 C3.346,2.500 2.000,3.846 2.000,5.500 L2.000,10.500 L46.000,10.500 L46.000,5.500 ZM46.000,12.500 L2.000,12.500 L2.000,33.500 C2.000,35.154 3.346,36.500 5.000,36.500 L43.000,36.500 C44.654,36.500 46.000,35.154 46.000,33.500 L46.000,12.500 ZM31.000,26.500 L23.000,26.500 C22.447,26.500 22.000,26.053 22.000,25.500 C22.000,24.947 22.447,24.500 23.000,24.500 L31.000,24.500 C31.553,24.500 32.000,24.947 32.000,25.500 C32.000,26.053 31.553,26.500 31.000,26.500 ZM11.707,30.207 C11.512,30.402 11.256,30.500 11.000,30.500 C10.744,30.500 10.488,30.402 10.293,30.207 C9.902,29.816 9.902,29.184 10.293,28.793 L14.586,24.500 L10.293,20.207 C9.902,19.816 9.902,19.184 10.293,18.793 C10.684,18.402 11.316,18.402 11.707,18.793 L16.707,23.793 C17.098,24.184 17.098,24.816 16.707,25.207 L11.707,30.207 ZM8.000,4.500 C9.103,4.500 10.000,5.397 10.000,6.500 C10.000,7.603 9.103,8.500 8.000,8.500 C6.897,8.500 6.000,7.603 6.000,6.500 C6.000,5.397 6.897,4.500 8.000,4.500 ZM8.000,6.500 L8.000,5.500 L7.998,6.500 C7.999,6.500 8.000,6.500 8.000,6.500 ZM14.000,4.500 C15.103,4.500 16.000,5.397 16.000,6.500 C16.000,7.603 15.103,8.500 14.000,8.500 C12.898,8.500 12.000,7.603 12.000,6.500 C12.000,5.397 12.898,4.500 14.000,4.500 ZM14.000,6.500 L14.000,5.500 L13.998,6.500 C13.999,6.500 14.000,6.500 14.000,6.500 ZM20.000,4.500 C21.103,4.500 22.000,5.397 22.000,6.500 C22.000,7.603 21.103,8.500 20.000,8.500 C18.897,8.500 18.000,7.603 18.000,6.500 C18.000,5.397 18.897,4.500 20.000,4.500 ZM20.000,6.500 L20.000,5.500 L19.998,6.500 C19.999,6.500 20.000,6.500 20.000,6.500 Z"/>
</svg>
