<svg
 xmlns="http://www.w3.org/2000/svg"
 xmlns:xlink="http://www.w3.org/1999/xlink"
 width="48px" height="48px">
<path fill-rule="evenodd"  fill="rgb(245, 130, 32)"
 d="M43.000,48.000 L5.000,48.000 C2.243,48.000 -0.000,45.758 -0.000,43.000 L-0.000,5.000 C-0.000,2.243 2.243,-0.000 5.000,-0.000 L43.000,-0.000 C45.758,-0.000 48.000,2.243 48.000,5.000 L48.000,43.000 C48.000,45.758 45.758,48.000 43.000,48.000 ZM46.000,5.000 C46.000,3.346 44.654,2.000 43.000,2.000 L5.000,2.000 C3.346,2.000 2.000,3.346 2.000,5.000 L2.000,10.000 L46.000,10.000 L46.000,5.000 ZM46.000,12.000 L2.000,12.000 L2.000,43.000 C2.000,44.654 3.346,46.000 5.000,46.000 L43.000,46.000 C44.654,46.000 46.000,44.654 46.000,43.000 L46.000,12.000 ZM41.000,42.000 L19.000,42.000 C18.447,42.000 18.000,41.553 18.000,41.000 L18.000,35.000 C18.000,34.447 18.447,34.000 19.000,34.000 L41.000,34.000 C41.553,34.000 42.000,34.447 42.000,35.000 L42.000,41.000 C42.000,41.553 41.553,42.000 41.000,42.000 ZM40.000,36.000 L20.000,36.000 L20.000,40.000 L40.000,40.000 L40.000,36.000 ZM41.000,32.000 L19.000,32.000 C18.447,32.000 18.000,31.553 18.000,31.000 L18.000,25.000 C18.000,24.447 18.447,24.000 19.000,24.000 L41.000,24.000 C41.553,24.000 42.000,24.447 42.000,25.000 L42.000,31.000 C42.000,31.553 41.553,32.000 41.000,32.000 ZM40.000,26.000 L20.000,26.000 L20.000,30.000 L40.000,30.000 L40.000,26.000 ZM41.000,22.000 L7.000,22.000 C6.447,22.000 6.000,21.553 6.000,21.000 L6.000,15.000 C6.000,14.447 6.447,14.000 7.000,14.000 L41.000,14.000 C41.553,14.000 42.000,14.447 42.000,15.000 L42.000,21.000 C42.000,21.553 41.553,22.000 41.000,22.000 ZM40.000,16.000 L8.000,16.000 L8.000,20.000 L40.000,20.000 L40.000,16.000 ZM7.000,24.000 L13.000,24.000 C13.553,24.000 14.000,24.447 14.000,25.000 L14.000,41.000 C14.000,41.553 13.553,42.000 13.000,42.000 L7.000,42.000 C6.447,42.000 6.000,41.553 6.000,41.000 L6.000,25.000 C6.000,24.447 6.447,24.000 7.000,24.000 ZM8.000,40.000 L12.000,40.000 L12.000,26.000 L8.000,26.000 L8.000,40.000 ZM8.000,4.000 C9.103,4.000 10.000,4.897 10.000,6.000 C10.000,7.102 9.103,8.000 8.000,8.000 C6.897,8.000 6.000,7.102 6.000,6.000 C6.000,4.897 6.897,4.000 8.000,4.000 ZM8.000,6.000 L8.000,5.000 L7.998,6.000 C7.999,6.000 8.000,6.000 8.000,6.000 ZM14.000,4.000 C15.103,4.000 16.000,4.897 16.000,6.000 C16.000,7.102 15.103,8.000 14.000,8.000 C12.897,8.000 12.000,7.102 12.000,6.000 C12.000,4.897 12.897,4.000 14.000,4.000 ZM14.000,6.000 L14.000,5.000 L13.998,6.000 C13.999,6.000 14.000,6.000 14.000,6.000 ZM20.000,4.000 C21.103,4.000 22.000,4.897 22.000,6.000 C22.000,7.102 21.103,8.000 20.000,8.000 C18.897,8.000 18.000,7.102 18.000,6.000 C18.000,4.897 18.897,4.000 20.000,4.000 ZM20.000,6.000 L20.000,5.000 L19.998,6.000 C19.999,6.000 20.000,6.000 20.000,6.000 Z"/>
</svg>
